<?xml version="1.0" encoding="UTF-8"?><svg xmlns="http://www.w3.org/2000/svg" viewBox="0 0 100 100"><defs><style>.cls-1{fill:#c4c4c4;}.cls-2{fill:#4f4f4f;}</style></defs><g id="maps"><polygon class="cls-1" points="93.63 83.13 92.93 81.57 91.69 79.39 93.09 76.12 94.1 71.76 92.08 70.2 91.76 68.1 92.47 66.15 93.87 66.15 94.18 60.93 94.02 37.96 93.71 35.7 90.67 33.28 89.82 31.88 89.82 30.71 91.38 29.47 92.39 28.45 92.62 26.04 49.47 24.79 7.8 21.83 7.26 25.81 6.09 37.8 5.08 51.35 3.91 70.82 15.44 71.6 30.39 72.46 43.63 73.32 61.31 74.17 69.33 73.86 70.89 75.58 74.47 77.83 75.33 78.53 78.6 77.52 81.48 77.13 83.51 76.98 84.91 77.99 88.65 79.24 90.83 80.48 91.14 81.73 91.84 83.29 93.25 83.29 93.63 83.13 93.63 83.13"/></g><g id="black_pins"><path class="cls-2" d="M72.67,42.13c-3.42,0-6.22,2.7-6.22,6.01,0,1.31,.45,2.56,1.24,3.59l4.7,6.15c.1,.14,.35,.17,.48,.07l.07-.07,4.7-6.15c.8-1.04,1.24-2.28,1.24-3.59,0-3.32-2.8-6.01-6.22-6.01h0Z"/></g></svg>