<?xml version="1.0" encoding="UTF-8"?><svg xmlns="http://www.w3.org/2000/svg" viewBox="0 0 100 100"><defs><style>.cls-1{fill:#c4c4c4;}.cls-2{fill:#4f4f4f;}</style></defs><g id="maps"><path class="cls-1" d="M70.73,12.65l1.18,4.72,2.13,5.61,3.01,5.37,2.13,3.6,2.72,3.19,2.3,2.13,.89,1.65-.65,.77-.47,.77,1.65,4.25,1.65,1.65,1.48,3.07,2.01,3.37,2.54,4.72,.71,4.37,.3,6.85,.35,1-.18,1.95-1.36,.77,.18,1.12-.35,1.12,.18,1.42,.3,1.12-1.54,1.89-1.71,.83-2.18,.12-.83,.95-1.36,.53-.71-.3-.65-.53-.18-1.65-.47-1.95-1.95-2.95-2.01-1.3-2.19-.18-.47,.77-1.71-2.54-.35-2.07-1.48-2.3-1-.65-.89,1.24-1-.18-1.18-2.89-1.65-2.24-1.65-3.07-1.48-1.77-2.01-2.13,1.18-1.42,1.83-3.19-.12-.94-2.54-.53-.89,.35,.18,.35,1.48,.53-.83,2.6-.47,.3-1-2.3-.71-2.78-.18-1.59,.83-2.72v-5.49l-1.71-2.13-.71-1.77-2.95-.77-1.12-.35-.89-1.48-1.95-.94-.65-1.95-1.54-.53-1.36-2.13-2.36-.83-1.65-.83h-1.36l-2.3,.47-.12,1.12,.47,.59-.3,.65-1.71-.12-2.13,2.07-2.01,1.12h-2.18l-1.83,.77-.18-1.6-.89-1.12-1.65-.65-.89-.83-4.55-2.24-4.31-1-2.48,.35-3.37,.3-3.37,1.18-1.95,.35-.12-4.61-1.48-1.12-1-1,.18-1.77,5.79-.77,14.41-1.65,3.84-.35,3.48-.12,1.48,2.24,.83,.83,4.49,.12,6.14-.35,12.11-.77,3.07-.41h2.6l.12,1.65,1.48,.47,.18-2.54-.89-2.6,.65-.94,3.31,.47,2.54,.12h0Zm6.91,76.42l1.36-.35,.71-.12,.83-1.36,1.3-.94,.71,.3,.94,.18,.24,.59-1.95,.71-2.36,.83-1.3,.71-.47-.53Zm7.62-2.89l.71,.59,1.54-1.24,3.01-2.42,2.13-2.24,1.42-3.84,.53-1,.12-1.95-.41,.3-.53,1.65-.83,2.66-1.83,3.01-2.48,2.42-1.89,1.12-1.48,.94Z"/></g><g id="black_pins"><path class="cls-2" d="M89.03,56.17c-3.31,0-6.02,2.61-6.02,5.82,0,1.27,.43,2.48,1.2,3.48l4.55,5.96c.1,.13,.33,.17,.47,.07l.07-.07,4.55-5.96c.77-1,1.2-2.21,1.2-3.48,0-3.21-2.71-5.82-6.02-5.82h0Z"/></g></svg>