<svg xmlns="http://www.w3.org/2000/svg" viewBox="0 0 18.562 17.479"><title>ct</title>
<style>
path.state {
  fill:rgb(80,80,80,100)
}
path.state.active {
  fill:red;
}
</style>
<path class="state active" d="M16.541.262l.185.715.2.724.2.724.2.725.187.724.2.715.2.724.2.724.1.382.107.528.146.782L18.32,7.8l-.029.116-.02.187.078.654.01.264-.312.128-.02-.089.146-.068-.029-.067-.107-.06-.146-.039-.137.01-.627.186-.088.039-.537.48-.568-.3-.1.107.019.3-.058.166-.244.049L15.2,9.811l-.264.049.029.352-.3-.1-.508.5-.344-.059-.088-.039-.146-.029-.078-.029-.049-.089v-.087l.01-.108-.02-.117-.088-.118-.117-.088-.166-.059-.187.029.158.177.205.126.146.178-.029.322.117.049.039.01-.137.215-.215.039-.451-.049-.185.068-.2.147-.156.186-.088.205-.068-.049-.039-.01-.029-.019-.041-.058-.078.02-.088.106L11.3,11.4l-.234-.01-.529.264-.068.107-.049.107-.068.068-.127.029-.107-.02-.1-.049L9.9,11.865l-.137.01-.363.117-.1.059-.127.157H9.1l-.107-.029-.578.166-.137-.021-.107-.116-.1-.294-.059-.049-.068.107-.049.146-.01.069-.283.43-.158.411-.068.117-.117.068-.273.089-.088.087-.078.118-.186.146-.068.1L6.5,13.91l-.02.078-.041.059-.117.088-.166.078-.078-.029-.068-.078-.127-.049-.068.039-.264.323-.049.01L5.457,14.4l-.039-.029-.02-.01-.029.059v.127l-.031.019-.029.049-.088.2-.049.068-.088.02-.156-.039H4.84l-.078.049-.078.146-.068.049-.127.049-.176.107-.158.137-.039.156-.068.039-.361.393-.117.088-.312.322-.1.029L2.98,16.4l-.117.353-.107-.089-.127.226-.147.167-.185.059-.246-.107-.02.059L2,17.09l-.107.088-.2.176-.059-.088-.078-.1-.039-.039-.029-.01-.059-.02L1.4,17.07l-.332-.313L.75,16.443l-.078-.068.117-.127.363-.361.469-.471.5-.5.41-.411.127-.146-.2-.177L2.277,14l-.2-.2-.256-.274-.039-.234-.107-.6-.1-.6-.107-.587-.107-.6-.1-.587-.107-.6-.1-.587-.109-.6L.848,7.961l-.1-.6L.643,6.778l-.107-.6-.1-.588L.33,5,.223,4.41l-.1-.587,1.193-.255,1.193-.244L3.705,3.08l1.184-.255.666-.137.625-.127.539-.089.088.323.41-.145L7.2,2.357l1.34-.323.246.01.127-.01.078-.019.156-.137.488-.107,1.439-.344,1.437-.342L13.947.752,15.387.409,16.492.125l.049.137Z" stroke="#fff" stroke-linecap="round" stroke-linejoin="round" stroke-width="0.25"/></svg>
