<svg xmlns="http://www.w3.org/2000/svg" viewBox="0 0 98.525 86.073"><title>fl</title><path d="M35.973,17.62l-.236.215-.42.3-.068.117.605-.225.236-.177.078-.273-.088-.01Zm-1.156.969-.176.264-.146.068-.049.029-.029.068-.039.068-.088.04-.117.029-.02.059v.059l-.029.059-2.26,1.5-.48.186-.254.059-.332-.146-.186-.019.312.156.264.049.666-.1.234-.107.637-.489.205-.235L34,19.537l.6-.616.244-.146-.01-.049.08-.1.059-.049-.01-.09ZM30.67,20.262l-.039-.138-.02-.01h-.148l-.156-.029-.283-.01-.146.167-.215.049-.48-.01.137.088.236.059.137.049.088.078.088.108.107.1.1.039.264.059.127-.019L30.5,20.7l.01-.126.049-.127.059-.107ZM11.6,12.875l-.381.147-.088-.078-.244.146L9.7,13.4l-.5.039-.176.049-.293.146-.1.06-.266.127-.8.078-.637.313L5.644,14.6l-.91.126-.205.1.635.01,7.553-1.9h0l.127.039.129.01.117-.039.088-.068-1.1-.01ZM95.482,63.122l.088.088.01-.01.01.01.146-.02.039-.1-.107-.714h-.01v-.01l-.078.02-.02.1-.039.068-.049.069-.078.078.01.077h.01v.01h.049l.029.01.039.02.039.02h.01l-.107.137ZM72.17,56.948l-.236-.088-.283-.1h-.01l-.078.167-.215.059-.4-.02-.029-.01-.205-.049-.2-.118-.176-.175-.137-.255-.059-.138-.059-.116-.078-.1-.119-.059h-.01l.119.392.176.391.107.177.137.127.147.089.773.283h0v.01l.2.01.186-.1.254-.293.217-.088Zm22.98.773-.019-.1.166-.186.039-.4-.049-1.957L95.2,54.8l.029-.2-.02-.225-.088-.439-.01-.2.039-.41-.217-1.781.178-.049v-.382l-.334-1.653-.146-.391-.186-.177-.019-.088.147-.225-.059-.352-.529-1.174-.1-.118-.127-.067-.273-.029-.156-.04-.02-.088.127-.088.137-.039.107-.059.059-.157-.039-.147-.312-.439-.361-.656-.383-.518-.068-.176-.117-.2-.352-.1L92,43.985l-.519-.41-.088.029-.254.127-.107-.02-.2-.079-.088-.01-.353-.293-.088-.088.146-.039.107.029.088.059.09.049.283.088.478.039.156.089.148.244-.051-.2-2.436-3.807L88.557,37.9,83.43,30.4l-.146-.293-.451-.627-.351-.714-.147-.234-.49-1.213-.137-.519-.088-.245-.469-.626.068-.1-.02-.1-.186-.294-.393-1.145.246.059.439.294.518.088.078.225-.039.274-.068.215-.1-.068-.049.2v.265l.049.254.078.187.2.156.225.059h.742l.109-.029.127-.059v-.049l-.049-.186v-.049l.068-.02.068.028.068.04.039.01.225-.059.166.028.127.109.1.186.178.5.078.509-.049,1.7.371,2.24.205.519.52.969.9,1.115.188.431.41.342.068.078.059.118.371.488-.107-.558L86,33.645l-.342-.509-.078-.2-.225-.343-.48-1.271-.176-.7-.02-.284-.107-.068.059-.186-.225-1.263.029-.078.088-.059.068-.117.039-.117.01-.079.107-.039.156-.274.1-.294-.215-.225-.43-.8-.9-1.085-.754-.744-.949-1.2L79.8,21.523l-.109-.234-.137-.216-.225-.117-.176-.117.029-.245-1.389-1.78-1.1-1.929-.939-1.407-.666-.852-.107-.215-.1-.266L74.83,13.9l-.1-.244-.449-.549L74,12.356l-.137-.1-.1-.127-.166-.626-.088-.177.068-.107-.127-.039-.088-.059-.039-.088.029-.139-.068-.01-.109-.039h-.068V10.42l-.644-1.429-.234-.969-.088-.244-.324-.4-.137-.225-.605-1.36-.1-.528-.029-.6-.059-.117L70.8,4.481l-.088-.059-.049-.069-.029-.42-.068-.168-.078-.106-.059-.039-.059-.02-.078-.059-.078-.088-.107-.187-.078-.1-.353-.2-.019-.059-.2-.039-.117-.167-.059-.234-.01-.225-.059-.294V1.84l.1-.059.117.029.1.088.078.117.039.126.059.3.068.224.127.168.2.107L70,2.573,69.85,1.468l.019-.362-.01-.225L69.781.793,69.732.773,69.713.715,69.684.656,69.6.646l-.088.029-.146.078L69.3.783,69.019.725l-.029-.1L68.9.617,68.7.6l-.342.167-.107.019L67.768.754,67.648.725,67.473.656l-.078.01-.117.039-.117.01L66.592.637,66.416.6,66.289.538l-.078-.05L66.084.421l-.156-.01-.107.01-.1.029L64.637.2,64.471.138l-.1-.059L64.185,0h-.1L64,.01l-.068.01-.156.02-.088.019L63.6.108l-.049.049-.02.059V.479L63.5.548,63.463.6l-.1.04h-.1l-.117-.02L63.09.646,63.07.7V.832L63.06.91l-.02.068-.107.156-.029.05-.01.059-.01.068.01.127.1.313v.166l-.029.3.01.079L63,2.446l.039.1.059.116.068.108.266.274.068.088.029.059.029.127.02.147-.01.89-.088.852v.254l.088.372.01.078-.01.107-.029.06-.059.039-.295.137-.049.01H63.08l-.215-.029h-.078l-.508.146-.109.01-.088-.019-.068-.029L61.965,6.3l-.078-.1-.244-.46-.049-.107-.01-.068-.01-.079.01-.156.02-.2V5l-.02-.059-.02-.06-.078-.106L61.428,4.7l-.324-.3-.078-.1-.019-.048L61,4.2l.01-.049.039-.1.01-.088V3.924l-.029-.02-.469.049-.41.039-.529.049-.644.059-.734.058-.832.078-.91.077-.988.089-1.057.089-1.105.1-1.164.1-1.2.107-1.232.1L48.494,5l-1.271.1-1.271.107-1.273.1-1.262.1-1.242.1-1.213.1-1.174.088-1.135.078-1.076.078-1.018.078-.949.068-.871.06-.771.059-.686.049-.576.039-.461.029-.342.019-.215.02h-.068l-.363.029-.1.029-.566-.47L30.3,5.02l-.088-.548-.127-.294-.2-.293-.107-.079-.137-.381-.088-.138-.078-.06-.217-.116-.049-.049L29.172,2.9l.019-.039-1.779.234-1.781.245-1.772.234-1.779.234L20.3,4.041l-1.779.225-1.781.226-1.781.225-1.779.215L11.4,5.156l-1.791.215-1.779.216-1.781.2L4.266,6l-1.791.216-1.781.2-.508.059-.049.2.088.606-.01.068-.176.528L.01,8,0,8.091v.078l.029.1.059.107.137.166.146.145.6.471.078.1.283.4.185.206.166.107.969.46.1.068.049.039.029.137.01.194-.02.461-.049.353-.156.372-.029.117-.01.059.059.205.273.606.01.01.207.09.088.049.107.039.215-.059.1.02.117.117.078.166.01.166-.1.079-.264.1-.2.185-.285.44.01.088.158.078.019.138-.068.137L2.992,15l-.137.049-.283.029-.127.068.205.039.205.077-.41.109-.127.059-.1.078-.059.088-.068.078-.129.059.02.1.119-.069.234-.1.1.02.186-.127,1.564-.528.236-.147-.068-.235.117-.049.273-.078.1-.068.019-.127L4.793,14l.01-.127.205-.156.244-.049.217-.108.059-.312.049.029.01.02.029.02h.068l.215-.538.02-.166-.078-.226-.254-.3-.059-.157-.1-.41.029-.147.156-.049.146.068.068.128.1.1.2.01-.019.068-.01.146-.01.068h.244l.119.177.068.234.1.166-.049.187.01.215.078.137L6.828,13l.1-.166.019-.45.107-.322.156-.744.049-.1v-.137l-.137-.217.254.119.158.254.137.155.205-.165.068.078.02.039.01.058-.361.217-.148.166-.049.194.039.119.061.059.088.01.117-.01.059.049.176.234.107.048h.2l.254.029.246.09.156.137.01.146-.176-.029-.227-.1-.156-.039-.654.685-.205.068-.617.078-.656.265-.4.244-.088.039-.068.058-.029.158.557-.138,1.086-.449,1.732-.45.635-.078.314-.088.225-.157.254.067.91-.214.881-.049.117-.107-.029-.206.01-.059.273.01.127-.059.117-.215.1-.049.146-.029.137-.07.127-.087.107-.1.01-.1-.1-.323-.029-.156.117.166.127.108h.107l.059-.147.078-.078.107-.039.266-.029-.207.382-.029.205.178.145h.2l.146-.116.127-.146.156-.078L15,11.535l.471-.187.215-.059.488.029.227-.049.156-.186.186.331.156.109.2-.08.275-.175.02.216-.07.078-.058.068.1.185.391.333.01.068.107.088.01.176-.1.118-.225-.138-.117-.049-.559-.088-.332-.205-.176-.078h-.158l-.137.1.039.088.148.059.176.01.059.029-.02.088-.068.087-.058.07-.529-.07-.137-.1-.1-.137-.068-.137-.01.01-.02-.019-.049.019-.049.137-.039.185-.059.167-.137.088-.754-.078-.92.078-.186-.039v.078l-.01.02.322.166,1.369-.019,2.016.294,1.488.264,1.389.528,1.027.352,1.5.831.273.028-.107-.106-.078-.078L22.568,15l.166.137.059-.2-.215-.156-.225-.109-.107-.136.137-.273-.156-.129L22.1,14.01l-.137-.107-.215-.019-.236.078-.146.078-.127.019-.2-.127-.108-.215.088-.186.2-.147.176-.078.353-.088.117-.108.1-.254.176.254.176.2.127.176.029.226.137.029.068-.119.059-.146.119-.088L23,13.3l.156-.117.127-.029.078.166.176-.166.215-.509.1-.119.119.051.127.146.176.293-.264.018-.373.587-.283-.077-.176.048-.393.657-.225.176.107.117.1.078.1.058.42.148.117.068.107.147.176-.078.285.059.264.137.176.116.01-.077.029-.049.01-.059-.01-.1.225.059.166-.078.156-.117.217-.039.01.078-.146.156-.019.2.1.109.2-.129.068.2.029.44.137.205.176.068.1-.127.1-.314.1-.078.01.029.01.068.051.058h.088l.185-.038.088.028.068.139-.127.078-.176.078-.078.107-.158.127-.42-.107-.439-.244-.217-.245-.225-.166-.762-.137-.029-.235-.705-.039-.088.039.117.138.635.487.168.051,1.594,1-.225.028-.283-.136-.266-.215-.156-.2-.088.01.039.119.049.088.049.068.068.068.373.245,1.369.439.215.138.225.176.2.225.1.226.107.186.42.421.146.264.078.93.029.146.049.049-.068.128-.107.146-.107.068-.156.019-.1-.049-.352-.411-.158-.254-.127-.284-.068-.3-.088-.9-.049-.127-.127.312.117.666.361,1.066.139.176.205.176.244.068.4-.254.256-.02.273.01.244-.029,1.262-.606.461-.09.908-.02.139-.106.185-.381.273-.079.156-.361.137-.107.166-.089.139-.146.137-.088.2.059-.264.6-.029.117.078.216.127-.049.137-.177.146-.1.215-.078L33.6,18.7l.236-.245.166-.078.3-.078.127-.1.5-.636.3-.294.527-.225.422-.45.566-.45.137.117.187-.049.205-.1.215-.078.469-.019.451.078.01.078-.039.049-.088.167.293-.245.1-.322-.117-.265-.361-.078-.715.01-.117-.049-.039-.146-.049-.118-.186.019.107-.225L37.4,15l.234.107.4.068.3.077H38.5l.019-.048-.264-.244-.088-.107-.031.049-.068.1-.029.059-.068-.107-.039-.068.02-.107.01-.029-.01-.031-.059-.1.068-.107.049.029.029.02.088.029-.039-.215.06-.117.371-.284.127-.039L39,13.9l.01-.059.049-.146.068-.167.088-.107h.061l.059.01.049.029-.01.029.234-.039.059-.039.049-.127.068-.039.068.01.039.019.029.039.029.01.1.059.068.156.078.1.117-.059.207-.185.8-.185L41.666,13l.215-.049.93.558,1.164.518.537.145.256-.1.283.245.156.1.205.01.147.059.559.3.127.117.117.146.488.382.139.273.059.058.117.051.127.068.068.127.1.3.029.129.107.205.205.224.236.207.2.127.42.117.088.049.146.118.107.059.246.059h.234l.205.029.156.146.088.265.029.3-.039.274-.1.166.088.117.078.176.039.186L50,19.4l.314.175.156.049.117-.029.674.588.353.206.273-.088.264.166.236.186.41.421.254.352.039.02.059.264.049.138.049.078.127.1.2.088.225.059h.176l.176.049.127.157.107.166.1.1-.117.146.02.117.1.079.168.01.078.058.029.146.078.146.2.039.147-.029.078-.029.2-.107.156-.049.324-.059.127-.068.215.1.273.068.266-.029.2-.205.068.068.146.107.059.068.088-.078.205-.146.039.254.059.2.117.147.217.068-.227.185.168.206.469.273v.049l.059.4V24.9l-.049.146.088.09.137.049.147-.01-.039.264.1.216.568.527.1.06.088.02.225-.01.088.019.148.147.059.185.01.646.039.138.137.371-.334-.312-.205-.078-.127.225.059.107.264.265.09.156.039.049.078-.02.088.01.049.107.078.44.039.127.049.088.01.089-.078.137-.02.107.02.107.049.107.059.079-.078.254.137,1.115-.059.411v.156l.1.7-.176.48.029.088.01.079-.107.185-.244,1.154.078-.039.029-.029.039-.049.049.166-.068.2-.186.41-.031.382L60,35.387l-.127.2-.117-.049-.029.176.029.264.029.167.117.322.1.186.139.166-.088.137-.012.156.041.352-.061,1.232-.225,1.1-.088-.176-.01-.234.049-.226.078-.2-.1.137-.1.205-.068.235-.01.245.068.254.166.352.049.167.205.284.822.587.225.4.07.205.137.274.166.216.146.009-.02-.166-.117-.273-.244-.421-.168-.216-.8-.645-.127-.156.01-.2.264.186.5.293.246.2.254.294.156.058.254-.01.029.06.029.283.049.108.068.048.078.01.217-.038.176-.108.1-.205v-.244l-.107-.2.078-.421v-.088l.02-.078.127-.226.029-.137-.029-.146-.1-.265-.049-.156.332-.273.1-.1-.488.138-.471-.107-.469-.187-.471-.1.158-.254.5-.235.117-.185-.42.068-.117-.01-.01-.059.059-.108-.01-.059.039-.146v-.107l-.039-.088-.127-.187-.049-.106.537.371-.029-.127v-.049l.068-.01.117.127.166.1.344.117.02.1-.227.128.02.1.363-.049.3.02.234.137.127.313.029.645.068.312.187.235.1.01.42-.049.029-.138-.039-.137-.107-.176-.059-.47.01-.215.078-.176.225-.167.205-.01.158.127.2.519.312.509.078.294-.059.205-.312.479-.059.147-.285.284-.049.1-.117.392-.068.068-.107.049-.078.078-.01.157-.019.106-.283.314-.107.284-.039.283-.078.255-.227.205.068.117.039.039-.107.187.137-.088.178-.059-.049.166-.139.146-.322.146-.166.128H63l.146.028.137.059.139.089-.246.049-.322-.107-.293-.04-.166.255.088.078.088.039h.088l.068-.068.068-.01.029.128v.116l-.039.118-.068.107-.146-.107-.332-.108-.129-.067-.078-.089-.244-.4-.078.01.068.206.322.548.158.166.2.05.439.01.51.264.234.088.185.137.225.607.322.459.07.323-.08.01-.059-.068-.039-.029-.049-.02-.049-.04.039.284.2.225.227.226.186.265.078-.02-.019-.177L65,47.8l.108.128.068.176.029.215-.068-.049-.049-.059-.078-.137.107.283.361.489.187.45,1.389,1.928.117.244.059.039.068.039.146.059-.088-.2-.2-.274-.068-.205.361.3.529,1.047.381.176.107-.01.078.01.176.029.109.039.127.1h.078l.068-.02.029-.039.02-.029.029-.02.059.02.137.107.039.02.059-.059.078-.107.049-.108.01-.038.117.117.107.362.09-.079.049-.176-.039-.2-.2-.558-.264-.449-.078-.079-.088-.077-.225-.372-.147-.128-.068.118-.148-.1-.41-.371-.166-.215-.059-.1.264.079.147.127.3.352.178.02.176-.138.108-.049-.01.226.254.215.147.088.049-.049.049-.138.146-.039.129-.077.02-.206.283.029.2-.078.186-.117.461-.176.215-.284.176-.088-.078.421-.049.1-.1.078-.244.1-.529.44-.2.215.01.166.273.157.166.059.107.108.08.313.029.293-.041,1.546.041.293.088.2.283.421.088.225.029.3-.019.205v.167l.137.205.215.176L72,55.9l.139-.127.225-.138.029.177.1-.068.264-.127.078-.068.039-.069.2-1.065.088-.226.314-.47.2-.226.176-.116.215-.06.256-.215.156-.1-.019.166L74.4,53.3l-.068.108-.109.106-.127-.049-.117.069-.088.137-.02.127-.43.587-.107.186.1.323-.156.392-.266.352-.283.265-.039.068-.039.059-.088.04-.088-.029-.108-.128h-.049l-.049.138v.184l.039.2.039.117.059-.107.078.059.039.01.137-.107.7.255.244-.049.058.029.059.049.088.029.049-.049.029-.118-.1-.323-.039-.185.117.185.3.373.119.185.1.245.156.8-.078.01-.02-.087-.078.01.078.215.449.577.019.039.01.088v.45l.273,1,.363.891.088-.01-.029-.147-.02-.127.01-.138.029-.126.352.89.234.3.383.206-.078.137.059.148.127.137.147.078h.117l.264-.068.176-.03-.02.157-.059.2-.088.155-.1.079L77,62.817l-.156-.116-.147-.059-.156.087.146.372.059.089.137.116.049.02h.088l.068-.01-.019-.087.049-.068.029-.039.029-.1.02-.078.1.088.137.059.139-.01.137-.049.107-.1.059-.186.1-.116.088.136.137.089.137.029.088-.049.039.078.029.029.01.029-.029.107.088-.049.119-.137.049-.039.107.02.176.088.264.059.156.118.127.029.127-.2.148.1.185.186.156.087.156.03.352.01.156.029.324.156.322.206.274.3.107.078-.264.293-.088.157.156.039.068.068.2.323.1.1h.108l.4-.049.049.235.068.137.117.087.02.177.324.411.225.558.068.117.146.029.254-.107.127.029.029.088-.029.118-.059.088-.2.186.176.235.461.361.254.46.039.127.1.255.039.136.117.118.617.343.469.009.068.02.225.089h.432l.234.068.793.6.117.216-.068.3-.176.186-.246.117-.264.029-.225-.049-.01-.078.068-.039.1-.069.059-.029-.02-.088-.959-.225-.176-.078h-.039l-.273-.363-.1-.087-.137-.1-.158-.068-.147-.011.039-.2-.186.206-.127.469-.039.518.059.411.205.372.256.371.654.431.185.01L86.629,72l.469-.127.373-.147.449-.088.215-.079.215-.342.049-.029.295-.273.2.137.361.01-.02.117.01.1.117.01h.059l.029-.04.019-.117.078.068.07.029.068.02.059.03.01-.059.01-.049.02-.039.02-.059.137.117.205.039.2-.029.137-.049.2-.264.148-.1.2.078.068-.019.049-.117-.02-.079-.049-.078-.049-.118.059-.049.42-.175-.019.068-.01.01h-.019l-.029.029.2.029.078-.206.029-.294.08-.234.166-.088.478-.088.147-.059.059.078.02.039.029.049L92.6,69.6l-.049.04-.02.059-.029.088.088.029.068.048.068.059.049.079.187-.166.234-.01.215.137.088.274.078-.01L93.5,69.96l-.176-.166-.234-.088-.266.019.119-.186.215-.156.176-.05.039.2.166.029.293.293.207.118-.01-.128-.187-.116-.176-.167-.01-.255-.01-.146.156-.265.02-.128v-.116l.039-.108.422-.694.371-.45-.019-.156-.1-.089-.166-.058-.117-.088.039-.265.068-.2-.059-.059-.088-.039-.068-.059-.088-.274-.019-.234.049-.255.146-.312.039-.226-.107-.637V64.2l.283-.4.147-.587-.039-.323.02-.128.107-.136.107-.039.117-.02.117-.079.129-.274-.1-.548.09-.361-.01-.479.322-.626.1-.02.068.166.068.333.02.6.1.538.078-.019-.5-3.816ZM83.82,27.109v-.421l-.264-.351-.156.039-.127.088-.215.225-.227.186-.049.107-.029.225-.244.039-.029.362.107.421.137.186.283,1.027.1.234.215.245.615,1.174.246.323-.061-.2-.117-.2-.156-.234-.049-.147-.01-.117.019-.244-.215-1.6.02-.5Zm.51,4.353.059.138.049.156h0v.01l.088-.019-.049-.118-.274-.381.059.088-.059-.088Zm3.678,5.332.283.332.049.108.049.156.158.244.117.372.117.176.137.138.137.205.822,1.868.225.382.049.156L90.2,41l.176.1.049.059.078.186.979,1.409.215.479.285.244.234.343-.01-.029.019.029-.107-.294-2.926-4.94-.068-.2-.068-.264-.1-.265-.254-.45-.607-.733-.332-.489-.176-.509-.049-.039-.039-.029-.019-.029-.01-.068-.01.01v-.01l-.08.039-.029.039-.039.049.2.254Zm8.1,49.278L96.176,86l.022-.059-.051.049Zm1.1-.675.08-.04-.041-.029Zm.178-.06.068-.059-.059-.01Zm.664-.449h.088l-.01-.069Zm.441-.177-.01.1.049-.029ZM60.2,29.761l.078.059.049.02.029.01.01-.029v-.049l-.029-.049-.176.01-.02.02Zm-.3-3.053.01.069.029.068.1.039.022-.039-.012-.039-.029-.029-.029-.177-.059-.088-.117-.029-.059.049.117.059v.068Zm.146,1.5-.078.059.029.049.207-.078-.059-.019Zm-.166.265-.068-.01-.059.039.01.049.039.02-.029.01-.039.01-.049.01.01.039.166.039.01.049.049.029.049-.01.019-.01.039-.107-.01-.156-.088-.02Zm.178.459L60,28.89v.06l.039.01Zm-.3-1.085-.1-.03-.078.02-.02.069.039.078.049.029v.049l-.039.078v.039l.059.01.117-.029.078-.1-.02-.127Zm.205,1.555.049.059-.029-.088Zm-.81-2.611-.029.02v.059l.039-.049.039.02.01.029.068-.1-.059-.04-.049.021.039.029-.01.01Zm.1.626-.088.029L59.1,27.5l.039.029.088-.068.039-.01.039.01.049.01.029-.029-.039-.02Zm-.215-.47-.01.068.059.019L59.06,27Zm.674-.2.049-.011v-.029l-.059-.029-.059-.02-.059.01L59.5,26.7l-.068.06.02.049.137-.049Zm-.713,1.184.039-.02v-.049l-.029.029Zm-1.351-4.041-.049.01-.059.039-.01.1.059.039.068-.029.059-.07-.01-.058Zm-2.7-.1-.068-.068-.088-.049-.078.088.02.185.107.029.137-.087.078-.039L55,23.832Zm4.549,2.622.088.039.078.01.039-.039-.02-.02-.039-.01-.039-.02-.059-.02-.068.02-.039.029.029.02Zm.137,2.279v-.029l-.059-.01-.049.059.02.029.039-.02ZM79.6,80.653l-.059-.039-.068-.029h-.01l-.068.01-.215.253-.078.06-.127.01-.137-.02-.1.039-.02.216.01-.01v.01l.352-.107.166-.079.107-.1.039-.089.02-.1.049.059h.019v-.068l.039.049.039.048.049.029h.01l.068.01-.039-.1Zm-.83-17.277v-.059l-.049-.02-.039.029-.01.118.039.039.049-.049Zm-3.787,17.7-.156-.02L74.7,81.1l-.019.049.068-.019.059-.01.088.039.108.039.127.165.019.069.02-.138-.049-.136Zm-.02.548v.039l.117-.059.049-.06-.049.019Zm-.234.078-.01-.01-.02.01.02.02h0l.01.01.01-.01-.01-.029Zm5.762-1.575-.01.01v-.01l-.3.136-.137.029-.127-.068h-.01l-.068.01-.049.089-.01.078.029.059.078.059.01.078-.1.156-.039.048.01-.01v.01l.85-.41-.088-.205Zm.393-15.937.039.011-.01-.04.029-.039.039-.068.059-.059.117-.029.068-.059-.039-.068-.1-.048L81,63.758l-.236-.128-.1-.068-.225-.068-.107.137.01.128.039.077.049.284L80.5,64.1l.078-.108.1.02.156.137Zm.264-.2-.117.108.019.068.322.069.088-.039.068-.1-.058-.088h-.137l-.068.029-.039.039-.039-.059ZM74.615,81.445l.02-.01-.02-.019Zm4.451-18.3-.1-.079-.146.01-.01.118.039.068.068.048.078.02.029.118.01.206.039.039.078-.235.01-.108-.039-.077-.068-.059-.039-.029.019-.01Zm.576.479.039.03.187-.011.088.079.039.059.059.067.1.068.068-.039.019-.1-.049-.078-.039-.029-.039-.108L80,63.376l-.117-.069-.178.069-.049.029-.1.049-.146.1-.02.157.078.059.039.029v.048h.019V63.63l.049-.049Zm-2.2-.294-.146.06-.117.01-.107.029-.01.127.039.068.029.03.068.039.039.059.049.087.078.02.146-.01.06-.077.1-.274-.059-.128Zm-11.5,18.8.01-.02-.02-.049ZM66,82.062h.02l-.01-.039Zm.068.049.01-.039h-.02Zm-.734.03.039-.04-.039-.039Zm-1.6-35.7-.52-.44-.351-.479-.137-.078-.02-.01-.2-.059.078.156.176.206.1.087.127.187.578.5.234.127v-.01l.01.01Zm6.828,7.728-.264-.205-.254-.049v.01l-.01-.01-.158.029.217.351.283.382.225.362v.342l.2.226.285.605.2.235h.01l.156.029-.019-.226-.2-.654-.117-.167-.227-.254-.186-.265.029-.479Zm3.982,27.55.039.029.019-.029-.039-.029Zm-8.394.049v-.01l-.02.02.01.02h.01l.01-.01v-.02Zm8.375-.176.019.02-.019-.069Zm-5.1-26.67-.254-.459-.068-.3-.088-.049-.02-.01-.029-.01-.049.01.244.587.137.244.215.265-.01-.01.01.02Zm12.3,23.97-.107-.128-.039-.01-.01.01v-.01l-.029.01-.019-.01-.01-.068h0l-.078.01-.039.294.01-.01v.01l.127-.01L81.6,79l.02.039-.049.087.019.1h.01l.205-.05.127.039.07.128-.029.177-.07.02-.088-.147H81.8l-.166-.078-.3-.029-.059-.01v.01l-.01-.01.088.078.078.059.2.079-.068.127-.029.029-.029.048-.059.059-.244.167-.117-.049h-.01l-.127.079-.2.234.01.087.01-.01v.01l.812-.381.373-.244.264-.255-.02-.1ZM68.725,53.084l-.176-.273-.068-.079h-.01l-.039.01-.049.089.147.215.137.636.137.255v-.01l.012.01.039-.3-.029-.273ZM85.387,69.657l.107.059.127.049.01-.127.019-.069-.019-.049-.049-.1h-.1l-.127.059h-.049l.029-.029-.078-.01-.061.078Zm1.7.684.059-.068.078-.019-.078-.088-.078.01v.02l.02.02.01.01-.039.078Zm.283.332.119.01h.01l-.029-.1.088-.059.049-.039-.029-.02v-.049l-.088-.02-.07.01.041.039-.02.06Zm-1.262-1.017.088-.1-.029-.049-.215-.019-.068.029-.01.078.049.069.059.049Zm-.312.224.068.157.117.138.107.02.068-.069.029-.088.068-.167-.059-.136-.059-.019h-.146l-.146.049Zm-.049-.538.01-.039h-.2l-.234-.038-.068.038-.02.079.088.01ZM63.07,43.692h-.01l-.049-.011-.02.05-.039.117.01-.01v.01l.2-.127.01.01h.01l.02-.029-.02.01.01-.01-.039.02ZM87.607,70.234l.049.068.049.186.029-.01.029-.089v-.116l-.088-.157-.088-.068-.059.088v.108l.029.01Zm-5.234,8.442-.049-.04-.1-.059-.1-.019h-.078l-.059-.019-.039.01-.022.146.01.177.07.1.039.029.029.02h.059l.049-.039.049-.029.078.01.078.059.068.088.02-.068-.049-.235ZM60.508,30.9l.01.029.01.01.039-.029v-.029l-.059-.078-.107.019.068.029Zm31.961,39.28-.049.02v.049l-.059.029-.019.059h.01l.088-.039Zm-1.535,1.281-.029-.068-.049-.019.01.126.029-.02Zm.225,2.739.019.067.049-.02Zm.156-2.7-.068-.029-.059.029.01.029.059.05.029.068.039.01.029.039.02-.068-.02-.089Zm-.744-.264-.088.019.088.089Zm.422,3.521-.088.068-.059.079-.01.1.049-.01.166-.147.078-.078.107-.175-.029-.059Zm1.047-1.173-.068.077-.295.519.117-.068.2-.294.078-.166-.01-.029Zm-.656-2.162.049-.01v-.127l-.078-.147-.019-.029-.029.049.01.138Zm3.787-3.864-.178.155-.234.519-.137.128-.361.166-.059.089.068.136.1.049.107.079.059.176-.059.293-.352.548-.127.6-.559-.02-.02.245v0l.156-.088h.049l.088.02.088.108-.019.156-.088-.029h-.01l-.039.01.01.048.068.078-.078.177-.107.089-.244.088.068.155-.059.157-.234.361-.117.3-.08.078-.185.059-.049.087-.068.48-.117.077-.176.068-.1.1.088.127h.01l.234-.039.215-.322.334-.636.312-.383.068-.155.049-.313.059-.156.137.01.117-.088.793-1.115-.019-.079-.088-.186.1-.343.283-.626.266-.5.039-.147v-.1l.029-.165.059-.157.059-.1.049-.039.039-.05.029-.049.019-.077-.273-.058Zm-3.277,3.032-.078-.029-.1-.02-.039.068.049.049.148.029Zm-.52,1.243.049.068.039-.039-.039-.069Zm-.793,1.29.059-.077-.068-.01Zm.5-1.506-.127.01.186.059Zm-6.1,6.78-.117.194.019.029.107-.087.068-.107-.019-.049Zm-1.574-.479-.393-.216h-.1l-.029-.01-.049-.039.039.039h0l-.049-.039,1,1.076.078.372h.01v.01l.236-.244-.266-.479Zm-.627.723-.088.01-.01.05.039-.01-.01.029-.068.078.029.079.156.1.029.059.068-.01.01-.137-.068-.138Zm.344.285.039.039.088.039.029-.107-.088-.04Zm1.018-.813-.09.01-.039.05.049.088.049.039.119.05.117.107.01-.068-.088-.177Zm5.9-4.167.059.05v-.021Zm.254,1.418h0l-.078.01-.058.079-.029-.01h0l-.01-.089v-.136l-.01.01v-.01l-.459.47-.1.165h.01l.432-.106.176-.088.088-.108.049-.088.01-.039-.01-.06Zm-1.369-2.425.01-.01-.049-.029Zm-1.408,4.187v-.01l-.256.088-.605.312-.225.157.019-.01-.01.01.381-.068.1.039.039.02.1.177v-.01l.01.01.029-.177.049-.138.1-.106.256-.156.029-.05v-.088Zm1.281-.763v-.01l-.363.147-.811.783.029-.02-.019.02.811-.519.148-.186.147-.059.039-.03.039-.059-.01-.077Zm1.447-3.679-.059-.108-.039.059.107.108ZM95.834,65.5v-.01l-.1.069-.019.068-.049.773-.068.224-.137.167.039.01h.01l.029-.01.01.01h0l.01.01.137-.186.107-.3.059-.313v-.283l.01-.068v-.1l-.029-.069Zm-2.5,5.6-.068-.176-.029.127-.068.088-.01.059-.029.02-.019.05.029.039.127-.187Z"/></svg>