<?xml version="1.0" encoding="UTF-8"?>
<svg id="maps" xmlns="http://www.w3.org/2000/svg" viewBox="0 0 100 100">
  <defs>
    <style>
      .cls-1 {
        fill: #4f4f4f;
      }

      .cls-2 {
        fill: #c4c4c4;
      }

      .cls-3 {
        fill: #961a26;
      }
    </style>
  </defs>
  <path class="cls-2" d="M32.45,15.56l3.57,1.19,7.91,2.3,6.97,1.62,16.24,4.68,18.62,4.68,13.01,3.06-.85,3.23-3.06,11.05-3.66,17.17-2.98,13.52-.17,8.08-11.31-2.8-12.16-2.98-12.5.09-.34-1.11-4.51,1.7-3.66-.51-1.96-1.36-1.02.59-3.82-.17-1.36-1.1-4.25-1.7-.68.08-3.57-1.19-1.62,1.53-5.02-.26-4.84-3.4.59-.68.17-6.46-1.87-3.23-3.31-.51-.51-2.12-1.96-.42-1.53-1.27-1.45.76-1.87-2.38.26-2.38,2.21-.26,1.27-3.31-2.13-.94.17-3.06,3.57-.51-2.21-2.29-1.19-5.87.51-2.38v-6.38l-1.45-2.72,1.87-7.74,1.7.42,1.96,2.38,2.21,2.12,2.63,1.62,3.66,1.7,2.47.51,2.38,1.19,2.72.76,1.87-.17v-2.04l1.02-.94,1.7-1.1.26.94.26,1.45-1.87.42-.26,1.7,1.45,1.19.94,2.04.51,1.62,1.19-.17.17-1.1-.76-1.1-.42-2.72.68-1.45-.51-1.19v-1.87l1.45-2.98-.94-2.12-1.96-3.83.26-.68,1.11-.42h0ZM24.72,20.57l1.62-.17.42,1.1,1.27-1.36h1.87l.68,1.27-1.27,1.44.51.68-.6,1.7-1.1.34s-.76.09-.76-.17,1.19-2.12,1.19-2.12l-1.36-.43-.26,1.19-.59.51-1.27-1.87-.34-2.12Z"/>
  <path class="cls-1" d="M50.02,53.75c-3.44,0-6.25,2.71-6.25,6.04,0,1.32.45,2.57,1.25,3.61l4.72,6.18c.1.14.35.17.49.07l.07-.07,4.72-6.18c.8-1.04,1.25-2.29,1.25-3.61,0-3.33-2.81-6.04-6.25-6.04h0Z"/>
  <path class="cls-3" d="M50.02,53.75c-3.44,0-6.25,2.71-6.25,6.04,0,1.32.45,2.57,1.25,3.61l4.72,6.18c.1.14.35.17.49.07l.07-.07,4.72-6.18c.8-1.04,1.25-2.29,1.25-3.61,0-3.33-2.81-6.04-6.25-6.04h0Z"/>
</svg>