<?xml version="1.0" encoding="UTF-8"?>
<svg id="Layer_1" data-name="Layer 1" xmlns="http://www.w3.org/2000/svg" viewBox="0 0 60 60">
  <defs>
    <style>
      .cls-1 {
        fill: #497436;
      }

      .cls-1, .cls-2 {
        stroke-width: 0px;
      }

      .cls-2 {
        fill: #6b964a;
      }
    </style>
  </defs>
  <path class="cls-2" d="M40.51,19.44c-1.12-.72-2.4-1.17-3.71-1.35v-.24c0-1.05-.21-2.03-.63-2.98-.49-1.12-1.33-2.04-2.32-2.75-2.05-1.46-4.84-1.56-7.05-.4-2.2,1.16-3.6,3.53-3.61,6v.37c-2.55.36-4.87,1.78-6.37,3.91-.91,1.29-1.45,2.79-1.62,4.36-.05.47-.05.94-.05,1.41v6.71c.19-.29.38-.58.58-.85.19-.25.38-.5.58-.74.48-.57,1-1.11,1.57-1.61,1.82-1.59,3.99-2.77,6.35-3.36,1.21-.3,2.47-.46,3.71-.46h1.51c1.61,0,3.22-.05,4.82.17,2.33.32,4.6,1.23,6.51,2.6,1.07.77,2.06,1.66,2.91,2.66.2.24.4.48.58.73.21.27.4.55.58.84v-7.14c-.02-3.17-1.68-6.16-4.35-7.86h0ZM34.46,18.01h-5.79c-1.05,0-2.1,0-3.14,0v-.08c0-.27,0-.54.03-.8.07-.39.17-.76.31-1.12.13-.28.28-.55.44-.8.04-.06.08-.12.12-.18-.01.01-.02.03-.03.04.02-.02.03-.04.05-.06,0,0,0,0,0-.01.03-.03.07-.08.08-.09h0c.1-.12.19-.22.3-.33.12-.12.25-.23.38-.35,0,0,.02-.01.03-.02.07-.05.14-.1.21-.15.26-.17.54-.33.82-.46.37-.14.74-.25,1.13-.31.4-.04.79-.04,1.19,0,.39.07.77.17,1.13.31.28.13.55.28.8.44.06.04.12.08.18.12-.01-.01-.03-.02-.04-.03.02.02.04.03.06.05,0,0,0,0,.01,0,.03.03.09.07.1.08.11.1.22.19.32.3.12.12.23.25.34.38,0,0,.01.02.02.03.05.07.1.14.15.21.17.26.33.54.46.82.14.37.25.74.31,1.12.03.3.03.58.03.89Z"/>
  <path class="cls-1" d="M44.85,46.3v-5.2s0-.07-.01-.1c-.12-.83-.31-1.65-.57-2.44-.1-.3-.21-.59-.32-.88-.08-.19-.17-.38-.26-.57-.23-.49-.5-.96-.79-1.42-.19-.3-.39-.59-.59-.87.02.02.02.03.03.03,0-.01-.03-.04-.05-.07,0,0-.01-.01-.02-.02,0,0,0,0,0,0,0,0,0-.01-.01-.02-.04-.05-.08-.11-.12-.16-.11-.13-.22-.27-.33-.4-.46-.54-.96-1.04-1.5-1.5-.08-.07-.16-.13-.24-.2-.02-.01-.03-.03-.05-.04-.05-.04-.1-.1-.15-.12,0,0,.08.06.12.1,0,0,0,0-.01,0-.03-.03-.07-.05-.1-.08-.06-.05-.12-.1-.19-.14-.29-.21-.59-.42-.9-.61-.56-.35-1.14-.66-1.74-.92-1.03-.43-2.11-.73-3.21-.9,0,0,0,0,0,0-.63-.08-1.25-.11-1.88-.11h-2.89c-1,0-1.99,0-2.98.12-1.07.17-2.12.47-3.13.89-.68.3-1.34.66-1.96,1.06-.29.19-.58.39-.85.6.02-.01.02-.02.03-.02-.01,0-.04.03-.07.05,0,0-.02.01-.02.02h0s-.02.02-.03.02c0,0,0,0,.01,0-.05.04-.11.08-.16.13-.13.11-.26.22-.39.34-.53.47-1.02.98-1.47,1.52-.07.08-.13.16-.19.24-.01.02-.03.03-.04.05-.04.05-.09.1-.12.16,0,0,.04-.06.07-.1-.02.03-.04.06-.06.09-.05.06-.09.13-.14.19-.21.3-.41.6-.6.92-.23.39-.45.79-.65,1.2-.09.18-.17.36-.25.55-.12.3-.23.61-.33.92-.24.74-.42,1.5-.54,2.28-.02.11-.03.22-.04.33v4.96c0,.55.02,1.08.27,1.6.4.81,1.26,1.32,2.14,1.34.05,0,.1,0,.14,0h24.49c.08,0,.16,0,.24,0,.62,0,1.21-.24,1.66-.67.49-.46.75-1.13.76-1.8,0-.11,0-.2,0-.3h0ZM34.69,41.23h0s0,.03,0,.04c0,.01,0,.03,0,.04h0s0,.04,0,.05c0,0,0,.02,0,.02h0c-.06.26-.23.48-.46.59,0,0-.02,0-.03.01-.05.02-.12.04-.17.06-.02,0-.03,0-.04,0-.02,0-.03,0-.05,0h-7.79s-.05,0-.05,0h-.03s-.03,0-.04,0c-.02,0-.03,0-.04,0-.06-.01-.12-.03-.17-.06,0,0-.02,0-.03-.01-.23-.11-.4-.33-.46-.59h0s0-.04-.01-.06h0s0-.02,0-.02v-4.39s0-.03,0-.04c0-.01,0-.03,0-.04h0s0-.04,0-.05c0,0,0-.02,0-.02h0c.06-.26.23-.48.46-.59,0,0,.02,0,.03-.01.05-.02.12-.04.17-.06.02,0,.03,0,.04,0,.02,0,.03,0,.04,0h0s.02,0,.03,0c.02,0,.03,0,.05,0h7.7s.03,0,.05,0c.01,0,.02,0,.03,0,.02,0,.03,0,.05,0,.02,0,.03,0,.04,0,.06.01.12.03.17.06,0,0,.02,0,.03.01.23.11.4.33.46.59h0s0,.04.01.06h0s0,.02,0,.02v4.39Z"/>
</svg>