<?xml version="1.0" encoding="UTF-8"?>
<svg id="Layer_1" data-name="Layer 1" xmlns="http://www.w3.org/2000/svg" viewBox="0 0 60 60">
  <defs>
    <style>
      .cls-1 {
        fill: #4f95c7;
      }

      .cls-1, .cls-2, .cls-3 {
        stroke-width: 0px;
      }

      .cls-2 {
        fill: #7ab44e;
      }

      .cls-3 {
        fill: #a51e22;
      }
    </style>
  </defs>
  <path class="cls-3" d="M34.57,24.74c.35.64,1.25.64,1.6,0,0,0,3.76-7.21,4.58-8.88.86-1.71.86-3.63,0-5.34-1.51-2.95-5.14-4.14-8.07-2.65-2.98,1.49-4.14,5.17-2.68,7.98,1.42,2.82,4.58,8.88,4.58,8.88h0ZM32.54,13.3c-.04-1.54,1.25-2.82,2.85-2.82s2.85,1.28,2.85,2.82-1.29,2.82-2.85,2.82-2.85-1.28-2.85-2.82Z"/>
  <path class="cls-1" d="M24.16,48.76v-7.96h10.41v7.96h-10.41Z"/>
  <path class="cls-2" d="M34.49,32.37v6.96s2.99,0,2.99,0c1.14,0,2.18.42,2.94,1.17l4.6,4.39v-12.52h-10.52Z"/>
  <path class="cls-2" d="M25.54,39.28v-6.91h7.57v6.91h-7.57Z"/>
  <path class="cls-2" d="M14.99,39.28v-6.91h9.17v6.91h-9.17Z"/>
  <path class="cls-2" d="M23.62,26.54l-7.01-7.71c-.99.46-1.62,1.42-1.62,2.57v9.45h9.17v-2.94c0-.55-.18-1.01-.54-1.38Z"/>
  <path class="cls-1" d="M37.55,40.8h-2.99v7.96h7.53c1.33,0,2.42-.81,2.84-1.94l-5.92-5.44c-.38-.36-.95-.59-1.47-.59h0Z"/>
  <path class="cls-1" d="M15.01,40.8v5.13c0,1.58,1.67,2.84,3.76,2.84h8.41v-7.96h-12.17Z"/>
  <path class="cls-2" d="M42.15,18.56h-.18c-1.48,2.84-3.74,7.25-3.88,7.48-.51,1.01-1.52,1.65-2.68,1.65s-2.17-.64-2.68-1.61l-3.83-7.48h-10.84l6.14,6.61c.69.78,1.11,1.74,1.11,2.8v2.84h19.7v-9.41c.05-1.61-1.25-2.89-2.86-2.89h0Z"/>
</svg>