<?xml version="1.0" encoding="UTF-8"?>
<svg id="Layer_1" data-name="Layer 1" xmlns="http://www.w3.org/2000/svg" viewBox="0 0 60 60">
  <defs>
    <style>
      .cls-1 {
        fill: #4f95c7;
      }

      .cls-1, .cls-2, .cls-3 {
        stroke-width: 0px;
      }

      .cls-2 {
        fill: #a4c8e2;
      }

      .cls-3 {
        fill: #025387;
      }
    </style>
  </defs>
  <path class="cls-3" d="M36.99,23.32h11.12c.1-.06.18.02.24.14l2.78,6.3c.07.15.07.33,0,.48l-2.78,6.3c-.05.12-.14.19-.24.14h-11.12c-.23.06-.36-.33-.24-.61l2.68-6.06-2.68-6.06c-.13-.29.01-.67.24-.61Z"/>
  <path class="cls-1" d="M23.03,23.32h11.12c.1-.06.18.02.24.14l2.78,6.3c.06.15.06.33,0,.48l-2.78,6.3c-.05.12-.14.19-.24.14h-11.12c-.23.06-.36-.33-.24-.61l2.68-6.06-2.68-6.06c-.13-.29.01-.67.24-.61Z"/>
  <path class="cls-2" d="M9.11,23.32h11.12c.1-.06.19.02.24.14l2.78,6.3c.06.15.06.33,0,.48l-2.78,6.3c-.05.12-.14.19-.24.14h-11.12c-.23.05-.36-.33-.24-.61l2.67-6.06-2.67-6.06c-.13-.29.01-.67.24-.61Z"/>
</svg>