<?xml version="1.0" encoding="UTF-8"?>
<svg id="Layer_1" data-name="Layer 1" xmlns="http://www.w3.org/2000/svg" viewBox="0 0 60 60">
  <defs>
    <style>
      .cls-1 {
        fill: #fff;
        stroke-width: 0px;
      }
    </style>
  </defs>
  <path class="cls-1" d="M16.64,43.36c1.08,1.08,2.48,1.79,3.98,2.02,3.1.46,6.24.69,9.38.69,3.14,0,6.27-.23,9.38-.69,1.51-.23,2.9-.94,3.98-2.02,1.08-1.08,1.79-2.48,2.02-3.98.91-6.22.91-12.54,0-18.75-.23-1.51-.94-2.9-2.02-3.98-1.08-1.08-2.48-1.79-3.98-2.02-6.22-.91-12.54-.91-18.75,0-1.51.23-2.9.94-3.98,2.02-1.08,1.08-1.79,2.48-2.02,3.98-.91,6.22-.91,12.54,0,18.75.23,1.51.94,2.9,2.02,3.98ZM20.58,28.19c.4-.51,1.14-.59,1.65-.19l5.63,4.5,9.86-9.19h0c.48-.44,1.22-.4,1.66.08.44.48.4,1.23-.08,1.66l-9.99,9.19h0c-.82.76-2.07.8-2.93.09l-5.61-4.5c-.25-.19-.41-.47-.44-.78-.04-.31.06-.62.25-.86h0Z"/>
</svg>