<svg xmlns="http://www.w3.org/2000/svg" viewBox="0 0 65.336 40.675"><defs><style>.a{stroke:#fff;stroke-linecap:round;stroke-linejoin:round;stroke-width:0.25px;}</style></defs><title>ia</title><path class="a" d="M59.693,12.346l-.107.293.137.166.322.137.156.127.168.177.342.234.9.46.332.274.215.422-.01-.088.088.732.117.294.334.157.244.283.137.059.137.02.9.421.107.088.273.265.1.059.158.01.078.088.029.156.01.2.049.177.3.558-.029.156v.548l-.137.47-.01.8-.088.586-.1.284-.168.138-.156.078-.391.361-.127.148-.117.2-.117.274-.068.294-.02.283-.119.274.02.049.051.059.019.068.029.313-.01.137-.039.137-.139.166-.42.284-.078.1-.068.186-.176.146-.4.2-.979.264-.2.109-.342.478-.186.2-.422.176-2.855.46-.383.294-.205.42-.166.529-.107.576-.039.559.019.273.078.312.137.265.215.1.148.049.537.342.322.371.217.519.117.587.01.616-.139.479-.908,1.213-.156.265-.09.215-.029.205.01.578-.039.283-.156.538-.234.4-.322.273-.393.167-.4.077-.312.107-.432.235-.391.274-.156.244-.02.088-.078.147-.02.128.049.107.293.226.107.205.029.234-.039.4.02.226.078.332.029.2-.078.137-.586.226-.117-.1-.3-.089-.127-.088-.4-.332-.1-.117.019-.088-.01-.088-.039-.089-.068-.088-.088-.058-.207-.069-.1-.06-.029-.068-.029-.067-.029-.059-.068-.02-.107.01-.049-.01L52,39.043l-.049-.078-.059-.176-.029-.049-.244-.137-.227-.039-.1-.05-.088-.088-.049-.1-.029-.119-.02-.176-.049-.068-.2-.117-.049-.059-.1-.186-.412.029-.969.078-2.465.2-2.465.2-2.465.186-2.467.176-2.465.177-2.465.176-2.465.166-2.467.157-2.475.155-2.465.147-2.465.137-2.477.138-2.465.137-2.465.127-2.475.117-2.476.117H9.8L9.828,40v-.283l-.107-.284-.2-.128-.547-.2L8.861,38.9l-.031-.117-.068-.088-.049-.1-.019-.187.029-.137.039-.069.139-.155.2-.323-.019-.107-.107-.166-.029-.157.029-.3.068-.244.049-.254-.049-.323L8.9,35.854l-.019-.167.029-.273-.01-.127-.07-.138-.185-.137-.088-.1L8.5,34.768l.02-.118.059-.068.029-.068-.059-.1-.039-.068-.02-.049-.029-.039L8.41,34.23v-.079l.059-.088.127-.371-.068-.177-.039-.42-.059-.2.234-.118-.137-.1-.459-.127L7.922,32.4l-.01-.215.059-.559.107-.059.2-.244.137-.264-.1-.107-.176-.019L7.686,30.8l-.166-.088.2-.831v-.147l.08-.538-.07-.127-.068-.029-.088.01-.41-.078-.137-.078-.068-.146.02-.128.039-.167.049-.156.049-.058.01-.04-.078-.088-.127-.088L6.8,27.988l-.088.029-.2.137-.117.01-.225-.146-.02-.264.049-.265v-.106l-.146-.1-.078-.225-.039-.293-.019-.549.029-.1L6,26.012l.1-.137.029-.068-.019-.068-.02-.176.039-.245.078-.235.029-.254-.107-.293-.617-.588-.039-.077L5.3,23.537,5.26,23.42v-.147l.1-.265.029-.118-.137-.518L4.879,22.1l-.42-.226-.295-.361-.049-.293-.01-.265-.019-.245-.117-.215-.186-.156-.342-.205-.148-.2-.107-.313.029-.234.078-.225.039-.244-.029-.3L3.244,18.4l-.117-.166-.146-.107-.019-.205-.342-.392.029-.548.117-.568-.156-.527-.176-.127L2.2,15.69l-.439-.058-.02-.461-.068-.156-.059-.029-.049-.068-.01-.078v-.107l-.01-.078-.029-.069-.068-.117-.039-.059-.039-.039-.059-.029-.168-.1-.02-.04v-.029l.029-.049.01-.02.109-.088.029-.059-.01-.059-.039-.049-.078-.088-.09-.078-.537-.362-.088-.078-.088-.1L.2,12.912l-.059-.127-.02-.107.02-.176.039-.127.078-.186.146-.216.02-.059.029-.068.01-.068L.5,11.709l.029-.059L.564,11.6l.029-.039.039-.02.146-.068.039-.029L.848,11.4l.01-.069v-.166l.019-.078L.9,11.024l.039-.049.039-.03.02-.068.019-.1.01-.352.01-.088.01-.029.178-.206.029-.078.039-.157L1.27,9.625l-.01-.049.01-.029v-.02l.039-.068.059-.176.02-.088-.01-.06L1.357,9.1l-.029-.05-.049-.068V8.911l.02-.068.312-.313.039-.068.039-.1.088-.519V7.737l-.02-.079-.029-.1-.039-.127-.1-.557-.039-.138L1.523,6.68l-.039-.048L1.426,6.6H1.367l-.1.01H1.191l-.217-.03L.818,6.6.73,6.593.662,6.572.594,6.5l-.02-.068.01-.068.029-.059.088-.1L.73,6.162.711,6.113.662,6.064.584,6.016.5,5.878l-.01-.087.029-.06.059-.019.146.019.068-.019.049-.029.039-.049L.9,5.584l.029-.312-.02-.665L.877,4.47.838,4.421.662,4.244.584,4.137.4,3.951.35,3.883.3,3.756l-.01-.1V3.54l.019-.147L.3,3.3.271,3.217.242,3.148.213,3.07l.039-.039,1.389-.059L4.83,2.865,8.02,2.748l3.189-.128,3.2-.126L17.6,2.346l3.189-.156,3.189-.166,3.189-.166,3.189-.185,3.189-.2,3.189-.2,3.18-.216L43.1.85,46.291.615,49.471.38,52.66.125V.312l.02.155.039.147.059.137.156.254.059.117.039.137.078.354.088.127.117.078.871.264.264.273.059.481-.156.4-.459.734-.078.46.127.9.107.431.039.47.029.147.059.146.059.588.078.283.127.205.3.313.119.176.078.226.068.547.059.236.381.615.137.156.244.147.441.147,1.721.186.461.127.234.01.244.059.166.176.236.509.1.147.283.342.1.186-.01.147-.107.295Z"/></svg>