<svg xmlns="http://www.w3.org/2000/svg" viewBox="0 0 43.09 73.154"><defs>
<style>.a{stroke:#fff;stroke-linecap:round;stroke-linejoin:round;stroke-width:0.25px;}
  polygon.state {
    fill:rgb(80,80,80,100)
  }
  polygon.state.active {
    fill:red;
  }
</style>
</defs><title>il</title><polygon class="a state active" points="42.496 46.987 42.33 46.518 42.35 46.361 42.467 46.146 42.486 45.989 42.428 45.461 42.34 45.305 42.006 45.079 41.869 44.942 41.791 44.736 41.644 44.258 41.518 44.043 41.166 43.759 40.998 43.68 40.92 43.631 40.852 43.523 40.832 43.025 41.42 42.311 41.371 41.753 41.086 41.342 41.008 41.127 41.086 40.854 41.254 40.638 41.84 40.275 41.869 40.217 41.82 39.719 41.615 37.84 41.4 35.971 41.205 34.093 40.793 30.336 40.588 28.457 40.383 26.589 40.178 24.711 39.971 22.843 39.766 20.974 39.56 19.105 39.355 17.236 39.16 15.367 38.955 13.499 38.748 11.631 38.543 9.762 38.523 9.635 37.879 8.911 37.662 8.52 37.32 7.609 36.949 6.984 36.693 5.858 36.605 5.624 36.488 5.389 36.43 5.301 36.352 5.223 35.99 5.105 35.922 5.047 35.873 4.969 35.775 4.881 35.668 4.772 35.607 4.636 35.568 4.498 35.5 4.381 35.1 3.784 34.894 3.363 34.738 2.875 34.602 1.906 34.592 1.76 34.621 1.652 34.66 1.583 34.689 1.495 34.641 0.232 34.621 0.125 32.898 0.292 31.146 0.468 29.387 0.645 27.635 0.811 25.885 0.977 24.133 1.133 22.371 1.3 20.621 1.456 18.869 1.603 17.119 1.76 15.357 1.906 13.596 2.053 11.846 2.189 10.094 2.337 8.334 2.474 6.572 2.602 6.572 2.602 6.572 2.602 6.572 2.602 6.562 2.602 6.562 2.602 6.562 2.602 6.562 2.602 6.553 2.611 6.553 2.611 6.553 2.611 6.543 2.611 6.543 2.611 6.543 2.611 6.533 2.611 6.426 2.904 6.562 3.07 6.885 3.207 7.041 3.334 7.209 3.511 7.551 3.745 8.451 4.205 8.783 4.479 8.998 4.9 8.988 4.813 9.076 5.545 9.193 5.839 9.527 5.996 9.771 6.279 9.908 6.338 10.045 6.357 10.945 6.778 11.053 6.866 11.326 7.131 11.424 7.189 11.582 7.199 11.66 7.287 11.689 7.443 11.699 7.639 11.748 7.815 12.051 8.373 12.021 8.529 12.021 9.077 11.885 9.547 11.875 10.35 11.787 10.936 11.689 11.22 11.521 11.357 11.365 11.436 10.975 11.797 10.848 11.944 10.73 12.148 10.613 12.423 10.545 12.717 10.525 13 10.406 13.274 10.426 13.323 10.477 13.382 10.496 13.45 10.525 13.764 10.516 13.9 10.477 14.037 10.338 14.203 9.918 14.487 9.84 14.585 9.771 14.771 9.596 14.918 9.193 15.113 8.215 15.377 8.01 15.486 7.668 15.965 7.482 16.16 7.06 16.336 4.205 16.796 3.822 17.09 3.617 17.51 3.451 18.039 3.344 18.615 3.305 19.174 3.324 19.447 3.402 19.76 3.539 20.024 3.754 20.123 3.902 20.172 4.439 20.514 4.762 20.885 4.978 21.404 5.096 21.991 5.105 22.607 4.967 23.087 4.059 24.3 3.902 24.564 3.812 24.779 3.783 24.984 3.793 25.563 3.754 25.846 3.598 26.384 3.363 26.785 3.041 27.059 2.648 27.226 2.248 27.303 1.935 27.41 1.504 27.646 1.113 27.92 0.957 28.164 0.937 28.252 0.859 28.398 0.84 28.526 0.889 28.634 1.182 28.859 1.289 29.064 1.318 29.299 1.279 29.7 1.299 29.926 1.377 30.258 1.406 30.453 1.328 30.59 0.742 30.815 0.447 31.109 0.252 31.715 0.154 32.391 0.125 32.929 0.164 33.525 0.596 35.648 0.664 35.844 0.82 36.049 1.016 36.245 1.074 36.333 1.133 36.422 1.172 36.52 1.191 36.637 1.211 36.949 1.162 37.341 1.182 37.488 1.23 37.576 1.377 37.713 1.465 37.879 1.76 38.123 1.838 38.25 1.867 38.388 1.916 38.691 2.072 39.121 2.307 39.425 5.057 41.527 5.232 41.714 5.369 41.949 5.447 42.223 5.516 42.398 5.682 42.535 8.205 44.063 8.451 44.268 8.715 44.561 9.018 45.021 9.164 45.285 9.252 45.539 9.281 45.715 9.291 46.077 9.31 46.244 9.381 46.4 9.596 46.674 9.644 46.811 9.615 46.957 9.547 47.114 9.518 47.281 9.596 47.447 9.693 47.594 9.762 47.809 9.791 48.023 9.762 48.19 10.309 49.119 10.662 49.482 11.102 49.609 11.531 49.364 12.109 48.465 12.617 48.308 12.824 48.367 13.195 48.572 13.391 48.602 13.635 48.602 14.174 48.709 15.24 49.188 15.689 49.492 15.885 49.824 15.826 50.059 15.68 50.401 15.514 50.715 15.377 50.852 15.25 51.008 15.26 51.331 15.357 51.85 15.396 52.387 15.25 52.809 14.809 53.688 14.408 55.186 13.978 56.037 13.852 56.467 13.852 56.956 13.998 57.543 14.076 57.748 14.154 57.896 14.232 58.022 14.33 58.141 14.947 58.58 15.025 58.697 15.348 58.972 15.426 59.079 15.514 59.275 15.709 59.412 16.121 59.607 16.414 59.852 16.697 60.155 17 60.4 17.383 60.488 17.998 60.928 18.176 61.006 18.557 60.967 18.693 60.996 19.035 61.064 19.418 61.3 20.072 61.867 20.338 62.004 21.002 62.22 21.275 62.376 21.56 62.719 21.932 63.403 22.185 63.648 23.242 64.029 23.545 64.244 23.477 64.411 23.535 64.616 23.635 64.852 23.693 65.086 23.693 65.301 23.664 65.526 23.654 65.771 23.713 66.035 23.977 66.465 24.309 66.857 24.592 67.287 24.75 67.815 24.611 68.305 24.279 68.695 24.006 69.098 24.055 69.605 24.113 69.645 24.328 69.713 24.426 69.752 24.602 69.87 24.602 70.046 24.66 70.262 24.76 70.457 25.043 70.867 25.521 71.416 25.707 71.768 25.668 72.159 25.865 72.336 26.432 72.717 26.883 72.854 27 72.844 27.039 72.707 26.99 72.512 26.902 72.404 26.803 72.336 26.695 72.237 26.559 71.953 26.607 71.816 26.803 71.768 27.059 71.748 27.127 71.807 27.205 72.12 27.244 72.228 27.352 72.307 27.586 72.424 27.674 72.502 27.742 72.639 27.781 72.775 27.83 72.912 27.937 73.01 28.066 73.029 28.193 72.99 28.31 72.922 28.408 72.883 28.623 72.961 28.223 72.58 27.998 72.277 27.937 71.943 28.125 71.514 28.447 71.073 28.74 70.379 28.838 70.223 29.172 69.89 29.592 69.654 30.07 69.547 30.59 69.596 33.613 70.672 34.414 71.093 34.846 71.171 35.236 71.063 35.51 70.721 35.678 70.174 35.627 69.762 35.402 69.381 35.041 68.96 34.768 68.549 34.621 68.09 34.621 67.57 34.758 67.004 34.855 66.808 34.973 66.661 35.139 66.555 35.353 66.494 35.824 66.455 36 66.387 36.576 65.977 38.465 65.418 38.777 65.164 38.816 64.793 38.533 64.254 38.182 63.961 38.123 63.893 37.908 63.55 37.809 63.315 37.85 62.992 37.957 62.689 38.055 62.504 38.592 61.936 38.728 61.75 38.807 61.447 38.787 61.183 38.807 61.006 38.553 60.938 38.348 60.938 38.279 60.918 38.23 60.859 38.23 60.791 38.26 60.762 38.562 60.752 38.728 60.723 38.826 60.654 38.748 60.518 38.182 60.087 37.986 59.891 38.465 59.92 38.562 59.91 38.719 59.813 38.738 59.715 38.699 59.588 38.65 59.412 38.562 59.157 38.553 58.991 38.641 58.912 38.68 58.824 38.65 58.619 38.592 58.414 38.533 58.287 38.641 58.12 38.465 57.816 38.582 57.748 38.758 57.699 38.935 57.592 39.092 57.465 39.228 57.318 39.053 57.191 38.738 57.27 38.562 57.201 38.777 57.005 38.984 56.761 39.072 56.672 39.297 56.594 39.385 56.525 39.473 56.281 39.326 56.154 39.111 56.057 39.004 55.948 38.955 55.87 38.875 55.792 38.787 55.704 38.748 55.566 38.758 55.4 38.826 55.303 38.904 55.225 38.984 55.098 39.033 54.883 39.072 54.657 39.15 54.49 39.346 54.422 39.365 54.5 39.482 54.638 39.6 54.696 39.658 54.441 39.707 54.334 39.785 54.227 39.853 54.178 39.902 54.227 39.941 54.354 40 54.471 40.1 54.52 40.168 54.441 40.178 54.295 40.168 54.129 40.187 54.012 40.246 53.855 40.305 53.552 40.373 53.395 40.451 53.326 40.646 53.229 40.715 53.18 40.852 52.965 40.978 52.671 40.998 52.406 40.832 52.27 40.812 52.172 41.117 52.035 41.43 51.84 41.508 51.752 41.605 51.604 41.674 51.537 41.771 51.526 41.84 51.575 41.889 51.575 41.947 51.429 41.928 51.271 41.723 51.018 41.664 50.822 41.693 50.617 41.781 50.46 41.908 50.333 42.025 50.245 41.967 50.245 42.006 50.215 42.035 50.176 42.064 50.117 42.084 50.049 42.006 49.795 42.064 49.521 42.191 49.286 42.35 49.129 42.447 49.1 42.594 49.08 42.711 49.041 42.75 48.943 42.965 47.955 42.779 47.457 42.496 46.987"/></svg>
