<svg xmlns="http://www.w3.org/2000/svg" viewBox="0 0 62.031 52.12"><defs><style>.a{stroke:#fff;stroke-linecap:round;stroke-linejoin:round;stroke-width:0.25px;}</style></defs><title>la</title><path class="a" d="M28.957,45.654h-.285L28.32,45.6l-.01-.02-.361-.127-.314-.264-.185-.108-.644-.1-.148.02-.039.049-.107.177-.059.059-.273.107-.215.039-.215.078-.256.255v.186l.207.156,1.2.431.117.107.127.039.685.392.439-.117.156-.02.078-.039.02-.1-.01-.176.049-.225.137-.148.4-.264.088-.205-.078-.1Zm9.566,6.165h.029l-.146-.039Zm.029,0,.344.1.4-.029-.273-.059Zm1.283.029-.09-.019-.039.049.019.059.078.039.09.02.019-.029-.029-.059Zm2.053-.392-.049.01h-.2l-.029.039-.078.068-.147.039-.1-.029-.039-.049-.068.01-.234.117-.051.068-.3.108.029.078.176-.02.861-.284.186-.1.137-.107.022-.029-.08.049Zm2.721-.078-.137-.059-.285-.088-.684-.079-.01.069.566.176.52.078.078-.01-.01-.049Zm15.857-9.186.049-.059-.059.049-.1.1.01.01Zm-3.473-3.5.059-.039-.039-.059L57,38.533l.039-.1-.293.1-.2.1-.176.176.029.059.1-.049.117-.049.205-.059ZM58.246,44.6l.176-.137.051-.205-.019-.039-.01-.029-.021-.02-.049.02-.039.185-.156.137-.381.177.215-.01ZM44.06,48.962l.059-.078.068-.108-.02-.117-.127.068-.059.294.029.185.01-.146Zm15.242-5.2.3-.431.039-.078-.059.029-.02.02-.422.587.078-.049ZM55.81,37.223l.225-.068.01-.029.029-.068.059-.068.078-.031.041.011.039.03.049.029.088.01.01-.029.029-.07.049-.077.078-.029.088.02.049.077.049.09.039.059.176.205.078.02.059-.156.176.029.1-.107.029-.2-.029-.205h-.08l-.02.088-.049.078L57.2,36.9l-.078.068-.02-.059-.068-.127.02-.185-.215-.068-.166-.088.146-.265L57.1,35.8l.137-.127.148-.1-.02-.088-.168.059-.137.146-.2.294-.264.244-.156.1-.166.077.107.217-.088.088-.148.01-.078.02-.039.1-.117.077-.146.06-.137.03.088.176Zm.461,1.5.088-.139.137-.321.068-.227h-.059l-.156.285-.1.225-.041.128-.088.146-.1.146.059-.02Zm.459,1.546-.068.02-.107.068-.117.029-.363-.059-.02.078.578.411ZM40.275,51.809l-.049.049v.049l-.01.049h.029l.107-.088.029-.1h-.039Zm19.859-3.454.01.1.088-.01.039-.137.078-.039.254.049-.1-.127-.049-.02-.107-.01-.01-.1.234-.02-.137-.177-.137-.078-.176-.01-.2.049.059.128.029.058h-.146l-.186-.029-.168-.089-.078-.146-.488-.088-.01-.088.127-.049.108-.059.078-.088.059-.118-.127-.039-.049-.107-.059-.137-.117-.137-.039.039-.107.078-.049-.157-.078-.088-.078-.068-.078-.117-.039.039-.109.059-.01-.146-.019-.127-.029-.078h-.049l-.02-.03-.01-.039-.02-.02-.049.01-.078.245-.166.185-.2.107-.146-.029-.059-.088-.059-.244-.078-.1-.129-.05-.1.02-.1.04-.234.059-.166.078-.088.02-.127-.01-.185-.107-.1-.02-.059-.04.01-.088.059-.107.119-.049.127-.01.1-.029.068-.059-.01-.068-.146-.01-.137-.01-.119.039-.088.068-.068.01-.078-.049h-.1l-.107.029L55.7,45.9l-.244-.107-.254.02-.666.215h-.156l-.127-.049-.068-.127.059-.029.117-.029.107-.1V45.47l-.166.107-.068-.088.029-.185.1-.186-.01-.1-.205.01-.334-.156-.2-.049.019-.049.01-.01.049-.049-.176-.059-.283.059-.283-.148-.324-.077-.117-.068-.078-.127-.088-.284-.078-.146-.361-.362-.08-.146.041-.01.107-.01-.088-.117-.119-.049-.283-.049L51.879,43l.967.166.217-.107-.324-.275-.02-.059V42.7l-.01-.059-.244-.078.107-.068.039-.02-.166-.118-.312-.156-.117-.137.352.078.588.3.332.039.312-.01.361.049.139.078.147.127.166.1h.205l-.01-.1-.41-.3-.187-.088.061-.01.049-.01.049-.01.078.01-.147-.146-.236.01-.254.049-.234-.01-.146-.127-.1-.216.01-.244.156-.225.107-.039.254.01.107-.02.127-.079.059-.068.1-.244.146-.187.156-.166.088-.176-.068-.227.147-.01.146.03.127.069.1.088.147.215.1.078.139-.01-.01.088-.01.187-.01.088.1-.1.078-.265.088-.108H55.6l.273.039h.117l-.166-.078-.1-.137-.078-.157-.107-.137.049-.088.078-.1.1-.078.146-.029-.049-.059-.02-.04-.039-.04-.068-.028L55.8,39.6l.225-.166-.332-.1-.078-.049-.068.1-.059.049-.166.068-.01-.1.205-.176.078-.119-.049-.136-.1-.019-.137.068-.117.106-.061.109-.068.01V39.18l-.02-.01.01-.011-.078-.05-.186-.2-.01-.078.293-.205.1.205.215-.068.107-.206-.205-.234-.168-.029-.312.088h-.146l-.156-.068.02-.049.107-.049.078-.1L54.705,38l-.059-.1-.029-.107.059-.137.137-.1.322-.01.148-.051.127-.126.01-.107-.078-.068-.166-.039-.08.039-.225.186-.059.078-.068.01-.029-.049-.01-.01h-.02l-.039-.02-.01-.1.088-.01-.01-.078-.088-.049-.273-.088-.117-.01-.078-.068-.059-.011-.08.06-.02.078.02.166-.01.068-.049.117-.039.089-.039.088-.068.088-.117.088-.225.078-.107.059-.146.148-.049.166.039.479-.02.283-.1.294-.158.264-.186.157-.244.088-.264.02-.254-.068-.236-.177-.293-.293.029-.157.137-.234.02-.078-.1-.049-.371.215L51,39.081l-.314.019-.2-.028-.137-.127-.137-.234-.1-.245-.039-.205.039-.206.137-.205.225-.156.314-.02.3.1.234.2.107-.117-.01-.127-.049-.117.019-.138.088-.078.322-.146.02-.333.1-.176.147-.137.127-.245-.127-.068-.215-.205-.168-.049-.293.117-.039.1.068.049.1.029.039-.01v-.068l.059-.039.059.019.039.078-.02.106-.049.06-.147.127-.059.029-.176-.01-.068.01v.049L51.076,37l-.039-.07-.049-.038-.049-.029-.039-.029.068-.137.088-.352.107-.166-.1-.176-.088.01-.02.176-.049.176-.088.177-.217.351L50.576,37l-.02.059h-.1l-.166-.039-.185-.08-.166-.107-.078-.127-.049-.2-.1-.068-.266-.02-.176.44-.283.382-.734.645L48.043,38l-.234.079-.764.137-.449.185-.266.02-.723-.137-.432-.235h-.83l-.48-.146-.42-.312-.254-.46v-.606l.225-.431.771-.812.266-.41.361-.657.234-.292.246-.205.371-.08.527.029.549.1.449.137.559.4.1.039.059.117.283.479.117.127.52.049.127-.029.205-.078.127-.029.254.068.432.3h.254l.371-.167.217.01.117.226-.01.127-.02.088v.088l.068.1.088.049.234.051.088.049.176-.1.176-.01.393.041.186-.07.176-.1.156-.039.127.146-.117.08-.068.029-.107.01.205.147.334-.137.313-.245.107-.186-.088-.078-.146-.029-.137.059-.078.146-.285-.273-.41-.773-.254-.363-.029-.538-.078-.214L51.564,33l-.1-.205-.02-.107-.01-.235-.02-.107-.039-.088-.215-.333-.342-.2-.187-.392-.2-.117-.381-.107-.186-.168-.353-.605.117-.283-.117-.217-.185-.184-.127-.186-.01-.235.059-.293.166-.489-.088-.246.078-.233.244-.362.109-.772.215-.509.108-.479.029-.47-.049-.2-.422.049-.488.039-.225.02-.637.059-1,.088-1.281.118-1.525.137-1.7.146L40.971,26l-1.879.158-1.879.156-1.82.146-1.7.136-1.525.119-1.293.107-.988.068-.644.049-.225.02L28.5,27l-.068.01.822-.8-.1-.333-.373-.393-.156-.36v-.128l.1-.234.019-.146.029-.049.039-.147.01-.146L28.75,24.2l-.156-.088-.2-.206-.137-.264v-.205l.166-.108.254-.04.539-.019.234-.067.127-.156.059-.216.078-.86.1-.127.02-.118v-.254l-.029-.078-.166-.266-.117-.145-.059-.088-.1-.567.234-.411.744-.626V19.2l.049-.147-.019-.313.127-1.154-.01-.265.029-.225.293-.655.108-.5.088-.245.148-.234.185-.146.459-.138.215-.1.2-.185.469-.636.059-.117.088-.284.078-.117.107-.078.334-.138.381-.332.205-.47-.029-.479-.371-.362-.01-.089-.01-.126.029-.137.1-.118.6-.019.334-.7.283-.869.459-.538-.01-.1.088-.049.02-.185-.088-.2-.264-.079-.391-.029L34.484,8.6,34.4,8.509,34.258,8l-.273-.224-.352-.117-.391-.2-.148-.175-.049-.215-.029-.538.02-.128.039-.146.02-.166-.039-.147-.088-.1L32.684,5.7l-.117-.088-.146-.177-.107-.205-.078-.244L32.185,4.7l.107-.194.273-.078.3-.039.2-.069.156-.293L33.152,3.8l-.205-.146-.557-.05-.146-.1-.039-.185.039-.528.127-.646.1-.147.127-.087.156-.2.137-.245.088-.234L32.742,1,32.6.867,32.449.829l-.176-.01L32.086.77,31.93.683,31.851.565l-.01-.44-.156.029L29.719.31,27.742.467,25.768.614,23.8.761,21.834.906l-1.977.147-1.977.138-1.965.137-1.977.126-1.976.128L10,1.71l-1.977.127-1.975.117-1.977.117L2.1,2.189.125,2.3.2,3.843l.156,3.08L.449,8.47l.078,1.546.078,1.546L.693,13.1l.078,1.545.049.979.01.028.029.04.058.068.156.108.078.029L1.3,16l.049.059.256.411.039.049.049.039.059.029.371.165.107.079.225.216.168.185.107.177.059.117.049.127.1.165.3.4.039.117.107.509.049.156.049.1.039.029.029.049.029.049.019.059v.078l-.039.216-.02.117.01.371-.01.108-.02.078-.039.1-.039.137v.087l.019.1.039.127.039.078L3.607,21l.129.146.312.313.1.078.059.029.068.029.273.067.068.03.059.029.039.05.01.078-.029.068-.029.039-.01.01v.01l-.117.078-.029.059-.01.059.029.107.029.059L4.6,22.4l.039.029.059.029.139.029.059.02.049.039.049.078.029.106.049.207.029.107.049.088.117.145.185.178.156.1.029.039-.01.039-.127.194-.029.05L5.428,24l-.019.078-.01.1.029.137.039.077.059.06.3.226.129.127L6,24.847l.029.067.039.069.02.108.039.088.039.068.059.088.02.068.068.352.029.068.029.039.039.039.029.019.029.01h.078l.215-.068.207.039.068.216v.587l-.01.127-.1.185-.019.146.334.47.166.138.049.088L7.414,28l-.078.068-.3.107-.109.028-.156.148.117.293.2.265.088.1.1.166-.01.059-.068.138-.156.166-.1.117-.029.137.019.147.07.244.019.146.01.157-.01.117-.058.225-.363.783-.059.636-.1.2-.361.323-.088.215-.127.664-.012.139-.225.078-.156.176-.088.235.01.264.039.059.088.049.039.068.019.255v.01l.156.392.02.1-.02.244-.068.187-.264.361-.137.3-.029.254.078.577.088.2.186.147.176.186.068.294-.02.127-.1.264-.01.157.029.127.129.186.029.088.039.245.049.185L6,39.8l-.059.3-.129.274-.01.117.09.156-.627.8-.205.42h0l.088.01.2.069.068.186-.01.85-.42.959L4.8,44l-.715.089-.1.146.039.3.146.538.3.382.234.156.236-.078.176-.156.342-.2.156-.147.363-.234.527-.117.959-.069h0l1.164-.039.283-.137.205.039.51-.088.244.088.234-.147.646-.156.6-.059.635.068,1.262.234.793.313,1.408.371.627.44.43.206,1.223.43,1.937.3.391-.127.129.059.107-.068.273.127,1.762.186.342-.039L23,46.517l.8-.5.332-.107.715.02.313-.029.137-.177-.244-.059.059-.137.137-.088.344-.1-.148-.117-.264.02-.274.107-.166.146h-.088l-.088-.215-.373-.656.146-.06.314-.243-.107-.059-.09.02-.108.039-.264.068-.156.137-.088.038-.107-.106-.137-.244-.107-.3-.059-.225.254.146.068.01.059-.059.078-.186.039-.039.2.039.1.127-.02.156-.137.127L24.23,44l.127-.107L24.6,43.6l.146-.1.959-.43.1-.1.059-.176-.029-.117.02-.059.2-.029.137.039.127.088.137.029.285-.264.146-.01.537.039.137.068.088.127.039.176-.02.235-.088-.039-.107-.138-.1-.088-.117.127-.088.255-.029.243.1.109.039.1.02.186L27.4,44l.283-.078.412-.283.2-.1,1.057-.138.264.01.283.1.1.167.01.577-.029.3-.051.226.061.127.3-.01.127-.039.244-.137.117-.029.1.059.039.137.01.166.049.117.139.225.068.293-.029.274L31,46.115l.285.039.469-.117.451-.186.254-.206.176.1-.02.117L32.547,46l-.049.137.068.088.137.02.283-.01.275.05.508.166.264.156.039-.146.117-.265.039-.146-.029-.029-.059-.107-.029-.137.039-.128.314-.3.049-.186-.146-.293.2-.01.147.049.107.117.049.167-.02.215-.088.137-.127.1-.107.118-.127.312-.02.352.088.342.2.294.078.049.156.029.059.039.029.088v.216l.039.1.137.107.383.176.674.489.156.274-.176.352.01.089.058.02.059.088.059.059-.1.108-.107.088-.234.108-.01-.146-.059-.107-.088-.059-.127-.02.1-.185.029-.2-.029-.439-.334.127-.283-.138-.156-.254.029-.216-.273.04-.127.156-.068.225-.117.245-.158.137-.215.068-.205-.039-.137-.2.186.577.529.4.674.245,1.213.107.137.039.285.226.117.049h.186l.146-.039.1-.107.02-.206.068-.068h.186l.188.059.117.107-.117.039-.078.078-.029.108.02.146.312-.146.322.049.3.166.568.45.117-.029.029-.059v-.059l.039-.05.244-.156.039-.117-.088-.205.205.059.207.117.2.059.2-.108.107.234-.117.1-.176.059-.088.166h.137l.42.1.088-.01.059-.2.2-.01.176.068.078.049.088-.029.039-.068.029-.068.156-.088v-.118l-.02-.117.01-.078.127-.059.127.019.078.107.088.166-.02-.225.039-.509-.029-.02-.059-.059.068-.313L42,49.226l.07-.107.117.127.107.127.088.049.1-.156-.156-.185.059-.138.107-.166v-.244l-.264-.01-.059-.039-.02-.148.049-.078.088-.02.117.039.01-.127.059-.068.1-.029.127.02.01.1-.146.088.117.049.4.1.139-.078.088-.117.117-.039.166.185.244-.322.078-.177.01-.205.039-.2h.117l.1.078.02.049.07.078.264.353.078.166.068.733.234-.391.029-.137V48.2l.049-.127.1-.078.137-.049v.088l.029.147.471.431.127.225.049.059.078-.166.068-.215V48.4l.117.01.088.118.049.166.02.137v.156l-.039.2.01.156-.029.137-.059.148-.039.137.059.117.266.215.078.1.049.166.02.166v.128l-.068.078.176.049.342-.186.549-.42.186-.089.176-.176.146-.2.146-.146.059-.089.215-.538.06-.215-.373.088-.225-.352.029-.4.342-.039-.146-.216.088-.117.186.02.178.206.225-.128L48.9,47.7l-.2-.078-.178-.146-.117-.206-.049-.244.1.019.068.059.061.078.039.1-.01-.352-.029-.107-.041-.079-.059-.068-.078-.059L48.4,46.4l.02-.127.088-.089.168-.1-.275-.215-.283-.148-.293-.069H47.5l-.119-.009-.117-.068-.527-.411-.117-.068-.059.078-.049.02-.059-.05-.068-.117.107-.01.1-.029.166-.088-.01-.088-.068.01-.234.02.049-.2.156-.235.059-.137.176.137.312.372.2.156.078-.107-.166-.078.039-.078.148-.05.2.021.225.078,1.32.724.352.088.373-.205.391.342.2.049.059-.3-.01-.186.049-.039.088.039.275.039.039.078L51,45.518l-.019-.01-.049.059-.049.078-.02.068.01.079.029.049.029.019.02.019.029.059.049.088.078.078.068.029.234-.166.127-.039.068.117-.029.1-.059.078-.019.1.068.146.029-.068.02-.029.039-.029.059-.068.078.176.059.146-.01.146-.068.157-.127.117-.176.127-.381.176h1.6l.127-.059.285-.312.156-.1.137.107.01.117-.166.323.2.146.088.205.117.167.312.039h.3l.7.185-.146-.265.117-.127.236-.02.234.088-.2.118-.1.01.744,1.1.244.068.1.068-.049.156v.1l.168.343.127.1.254-.078.254-.176.127-.226-.019-.156-.088-.274-.029-.156.02-.146.068-.088H57.1l.049.127.02.323.039.166.088.088.09-.049.02-.156L57.4,48.9l.01-.1h.176v.265l-.078.3-.068.156-.158.47-.1.059-.254.079-.088.088V50.3l.029.127.02.156-.049.138-.215.322-.068.137-.186.187-.059.078-.02.127V52l.244-.1.186-.2.459-.851.059-.186.01-.167.078-.215.236-.107.264-.059L58,50.029l.049-.118-.02-.078-.039-.088-.029-.127.01-.138.049-.009.137.077.088.1.344.47.078.156.088.127.381.4.137.078.146-.088-.273-.421.01-.244.283-.343.129-.2.039-.186.059.1.068.059.137.1-.01-.148-.049-.146-.068-.117-.088-.108.2-.01.137.068.078.147.029.2.137-.166.254-.684-.752.058-.107.02V48.61l.146-.2.186-.176.156-.059v.078Zm-5.156-7.4L54.9,40.8l-.166-.078-.049-.039-.059-.039-.146-.078-.156.176-.02.2.1.548.147-.108.078-.313L54.715,41l.078.049.068.117.1.117.156.039-.078-.176Zm5.93.6.352-.587.146-.313L60.771,41.7ZM50.518,47.24l-.02.078-.078-.02-.078-.078h-.029l-.029.078-.088.089-.01.059.205.02.147.1L50.5,47.5l-.01-.059.029-.029.078-.029v-.03l-.029-.058ZM61.74,37.5l-.187-.214-.127-.3-.146-.264-.264-.137.186.127.127.185.156.46.088.088-.039.147.068.205.2.343-.059.088.029.215.059.684-.039.227-.275.714.059.068.02.077.02.07-.01.078.227-.567.068-.3.01-1.1ZM45.412,50.342l-.088-.039-.07.019-.02.068v.068l-.029.029-.225.127-.176.04-.059.039.029.039.588-.245.068-.078Zm4.244-2.26-.088.01-.146.2-.273.137-.244.157-.049.3.078-.01.137-.185.381-.245.217-.176-.09-.088Zm.295-.244-.068.048-.049.1h.117l.156-.128.01-.068-.108.019ZM45.988,50.86l-.1.02-.088.039-.088.059-.3.3.7-.333-.01-.1Zm2.2-5.312.059.088.049.029.049.019H48.4l.059-.049.088.01.09.078.049.108.068.049.166-.039.059.01.049-.059-.01-.089-.029-.039-.01.029-.01-.04-.01-.067-.02-.01-.01.059-.039.029-.078.029-.107-.04-.127-.126-.01-.049.127.01.029-.059-.078-.107-.109-.039-.137-.02-.088-.039-.059-.05-.088-.039-.254-.068-.156.029-.1-.01-.1.02-.068.079.019.117.215.215.117.059.147-.059.166-.039h.068l-.029.01Zm13.119-6.389.078.2-.039-.127Zm-.43-.078-.049-.029-.059.029-.107.157.039.01.185-.129Zm.166-.2.039-.02.029-.127-.039-.01-.205.264.01.039.078-.049Zm.107-.059-.029-.02.02.215.01-.1Zm-7.1,3.3.185.01.049-.029-.029-.049-.039-.029L54.148,42l-.049-.029L54.08,41.9l-.029-.147-.07-.029-.039.01.068.1-.039.069-.01.068.019.049.02.02.01.019-.01.039Zm6.084-2.074-.01-.078.01-.078-.01-.049-.039.107v.234l.01.028Zm-3.023-1.868-.029-.068-.049.01-.059.088-.283.273-.019.059.107-.039.049-.029.1-.127.137-.117Z"/></svg>