<svg xmlns="http://www.w3.org/2000/svg" viewBox="0 0 93.414 40.713"><defs>
  <style>.a{stroke:#fff;stroke-linecap:round;stroke-linejoin:round;stroke-width:0.25px;}
    path.state {
      fill:rgb(80,80,80,100)
    }
    path.state.active {
      fill:red;
    }
  </style></defs><title>nc</title>
  <path class="a state active" d="M70.916,39.072l-.127-.1-.166.02-.147.127-.039.225.088.127.176.049.186.029.137.059.059-.137.059-.821-.166.343Zm.627-3.855-.068.343-.01.392-.041.342.119-.186.1-.332.088-.646.02-.02h.029l.02-.02-.02-.068Zm4.078-5.625-.371.333-.186.1-.176.1L73.7,31.3l-.3.469-.117.46.137-.226.891-1.213.137-.088.334-.166.771-.645.225-.294.029-.02.041-.01.01-.02-.019-.059Zm8.326-3.648-.127-.068-.793-.108-.215.049.019.089.137.049.578.078.459.215.049.039.137-.107-.078-.127ZM81.9,25.659l-1.691.616-1.605.656-.264.186-.146.234,2.748-1.291.264-.088,1.3-.186L82.49,25.7Zm4.705-3.893-.137.156-.049.127-.049.1-.381.4-.842,1.38-.812,2.279-.068.41.147.235.039-.372.842-2.494.441-.783.166-.176.2-.176.41-.685.246-.244.137-.4-.127.088Zm1.3-2.211-.049.049-.012.127-.059.108-.068.088L87.7,20l-.029.2-.244.411-.078.166.068-.01.107-.283.666-.725.039-.02.029-.02.029-.029.029-.049-.264-.078Zm1.73-1.5-.478.509-.266.186-.254-.02-.019.362-.039.166-.1.157.988-1.037.881-.559.156-.244.146-.127.049-.078.039-.107-.264.244Zm3.375-5.439L93,11.581l-.156-.518-.342-.616-.088-.255-.088-.273L92.164,9.6l-.205-.274-.225-.128-.078.089.117.225.273.392.078.244.48.881.186.519.078.3v.146l-.078.312-.01.156.039.147.107.235.039.137.049.293v.48l.059.5.019.655-.029.177.088.391-.225.294-.674.421-.588.488-.039.02-.02-.029-.019-.039-.039-.02-.049.039-.01.059.01.068-.01.039-.039.07-.01.067L91.4,17l-.1.039-.078.078-.078.108v.088l.107.01.088-.039.107-.146.059-.05.156-.078.361-.274.217-.088.352-.273.332-.059.107-.039.156-.176.059-.235.039-1.037ZM90.031,7.98l-.176-.185-.039-.107-.078-.049L89.66,7.6l-.166-.029-.088-.029-.1-.029-.1.01-.088.039-.068.1.039.059.078.039.078.059.117.127.371.265.127.186.107.235.119.186.176.059.2-.059.019-.068-.029-.127.049-.255Zm1.146.871.049.078.088.029L91.529,9l.1.039-.49-.694-.225-.509-2.24-2.65L87.93,3.96l-.441-.567L87.4,3.2l-.088-.3L87.2,2.639l-.273-.488L86.041.135l-.01-.01-.147.029-.137.029.01.019.01.068L86,.692l.176.421.215.273.088.215.215.284.07.157.254.821.147.343h-.02l-.029.029-.01.049.049.059.176.127.43.509.2.4.234.342.2.362.02.333.019.088.127.2.108.215.117.2.188.1.1-.117.117.049.117.147.1.2-.234.127h-.088l-.117-.117v.234l.137.127.176.029.117-.117.068-.01.93.812.234.3.127.45.107.216.264.1.041.1ZM84.789.683l.059.177.078.176.234.029.43-.088.1-.059L85.67.83,85.6.722,85.541.6,85.453.262V.252l-.186.039L85.1.33l-.059.088-.127.039L84.848.379l-.48.1.088.1Zm3.639,11.485.176.215.205.068.236-.166.029.039.029.029.019.039.02.049-.068.039-.129.1.022.088.322-.078.137-.059.1-.089.01-.078-.049-.117-.01-.107.088-.059.088-.039.049-.059.039-.068.088-.3-.039-.127-.322-.313-.156-.205-.02-.1.244-.078.264-.049.02-.1-.068-.274L89.66,10.2l-.2-.2-.059-.117.01-.2.049-.2.039-.205-.049-.235-.068-.078-.234-.225-.039-.166-.676-.7-.371-.293-.412-.166.019.127-.01.117-.019.117-.039.117.127-.029h.117l.119.039.117.068-.185.147-.236.01-.244-.049-.225-.01.088.157.137.146.147.108.234.049.049.088v.088l-.088.059h-.068l-.283-.088-.273-.244-.186-.128-.059.059-.059.118-.295.312-.059.127.353,1.585.039.44-.148,1.1-.068.02-.068-.088-.049-.068-.02-.049v-.039l-.283.127-.273.078-.273-.049-.256-.283.246-.06.371.049h.332l.137-.234-.068-.029L86.3,11.3l-.088-.146.1-.1.039-.088-.078-.137-.137-.137-.107-.059.078-.01-.156.02h-.186l-.178-.04-.147-.059-.107-.117.127-.029.3.039.283-.157-.02-.342-.205-.332-.275-.147-.019-.088.217-.1.146-.235.078-.3L86,8.441l-.137.059-.334.215-.01-.46.088-.147.256.079-.019-.216L85.6,7.824l-.322-.078-.264-.01-.978.293-.871.471-.2.244.127.117.244.078.168.137-.266.039-.488-.107-.234.01-.107.068-.07.107-.068.05-.088-.069-.019-.068V8.988l-.01-.137-.068-.117L81.717,8.7l-.529.234-.508.343-.283.284-.078.02-.295-.029-1.447.3-.02-.088.254-.6.019-.2-.156.01-.059-.1-.029-.156-.059-.146L78.42,8.5l-.107-.069-.107-.1-.146-.353-.207-.254-.059-.137-.176-.852-.01-.273.049-.255.117-.274.137-.205.039-.117-.01-.176-.068-.107-.234-.177-.1-.137.254.039.227.088.137.216-.019.371-.049.137-.119.206-.019.146-.029.606.139.323.361.528.3.665.254.187.246-.059.107-.334.127.079.391.411.137.029.2-.029.354-.1.244-.128.3-.225.285-.294.166-.3-.107.02-.029.01-.029-.1.156-.127,1.018-.4-.029-.1H82.3l-.312-.068-.3-.107L81.551,6.6l-.078-.1-.422-.127-.1-.078-.107-.108-.205-.274L80.855,6l.225.127.205.068.158-.078.234.235.332.127,1.2.244h.266l.244-.107-.01-.078-.234-.127L83,5.975,82.861,5.9l-.107-.019-.117-.059-.107-.1-.068-.107-.049-.176h.068l.2.127.352.166.1.02.088.059.234.255.373.127.117.02.107-.01.322-.088-.02-.078-.068.02-.02-.1.373-.117.107-.068.2-.2.049-.107-.127-.01-.137-.039-.168-.284-.283-.078-.146-.127L83.9,4.654l-.185-.117-.246-.127L83.2,4.322l-.244-.01-.049-.059.019-.166.059-.177.088-.088.137.01.019.088-.049.107L83.1,4.1l.588.039.186.059.254.137.225.176.1.049.207.01.1.049.332.333.225.146.234.029.227-.019.781.069-.02-.089-.166-.029-.176-.068-.322-.206.117-.117-.059-.2L85.8,4.244l-.2-.461-.117-.1-.137-.059-.137-.176.205-.029.176.059.334.186-.088.265.078.1.166.039.176.069.049.078.049.186.039.078.078.049.273.146.178.176.088.138.059.117-.01.108-.02.117.01.117.078.107.352.322.215.157.2.049.176-.118-.1-.215L87.762,5.5l-.137-.234-.088-.186-.891-1.36-.078-.156-.117-.186L86,2.923l-.137-.176-.078-.6-.1-.343-.129.039-.019.274-.039.166h-.039l.049.127.068.088.09.088.117.088-.256-.107L85.2,2.3,85,2.014l.166-.128-.264-.1-.273-.167L84.4,1.406l-.137-.234L84.221.957V.7L84.191.546l-.02-.03L83.9.575,82.361.908l-1.818.371-1.82.372-1.82.372-1.828.371-1.82.362-1.818.362-1.82.361-1.83.362L65.967,4.2l-1.82.351-1.83.353-1.828.343-1.82.342-1.83.342-1.818.333-1.83.333-1.83.332-1.828.333L47.7,7.58l-1.83.322-1.83.323-1.828.313-1.83.312-1.83.312-1.828.313-1.83.3-1.84.293-1.828.3-1.83.3-1.84.283-1.828.293-.234.039-.08-.01-.049-.029-.088-.137-.361.9-.049.283.029.059.205.284.02.117-.088.509-.176.587-.02.128v.088l.029.049.146.2.176.176.039.059.039.059-.019.05-.049.02-.332.01-.588-.1-.049.01-.049.029-.732.686-.246.283-.039.059-.723,2.172-.068.128-.088.107-.1.068-.148.177-.088.088-.088.049-.068.02h-.088l-.166-.02-.078-.02L21.4,18.41l-.059-.029-.049-.049-.029-.049-.02-.059-.02-.069L21.2,18.1l-.029-.049-.039-.039-.049-.029-.061-.02h-.068l-.147.02h-.078l-.059-.02-.107-.06-.059-.01-.039.01-.059.02-.107.069-.293.294-.051.039-.225.029-.088.02-.244.176-.352.156-.1.059-.158.117-.166.177-.3.44-.088.166-.088.332-.029.088-.156.284-.068.1-.059.068-.039.039-.041.029-.439.381-.088.059-.068.029-.068.01-.068-.01-.068-.02-.059-.029-.059-.049-.039-.039-.039-.049-.09-.166-.02-.068-.01-.078.01-.1.031-.177.01-.059-.01-.039-.021-.029-.215-.226-.049-.029-.078-.01-.1.039-.459.333-.246.138-.664.508-.01.02-.02.039v.049l.029.186-.01.068-.02.059-.107.157-.029.117-.01.078-.049.107-.059.049-.068.029-.06-.01-.127-.078-.156-.088-.146-.039-.1-.01-.107.02-.156.059-.078.059-.059.059-.02.059-.02.059-.02.078v.078l.01.068.019.068.029.06.127.2.01.069-.02.078-.1.176-.02.059v.137l-.01.068-.039.127-.207.432-.215.361-.078.068-.059.029-.166-.02-.451.029-.127-.02-.059.02-.049.029-.517.372-.354.166-.078.05-.059.049-.215.3-.1.078-.254.146-.078.049-.049.059-.029.059-.2.255-.168.333-.068.039-.078.019-.078-.01-.1.01-.107.039-.088.059-.137.176-.1.146-.117.128-.539.333-.088.078-.059.068-.088.156-.205.264-.068.068-.059.039-.676.245-.078.01-.078-.01-.059-.029-.059-.039-.059-.039-.078-.01-.1.01-.2.1-.117.029-.1.02-.059-.01H6.25l-.068.02-.068.02-.1.059-.039.01-.039.01-.383.019-.068.01-.205.088-.2.107-.234.2-.146.156-.1.068-.078.049-.332.128L4.029,29l-.088.068-.049.06-.127.381-.039.068-.068.107-.068.059-.422.216-.088.068-.068.078-.205.294-.019.068-.02.049v.1l.078.166.01.059v.078l-.01.069-.02.068-.147.294-.019.078-.029.127v.078l.039.42-.029.118-.078.127-.178.235-.088.107-.068.059-.039.01-.273.039-.566.146-.158.02H1.123l-.059-.02-.059-.029-.1-.078-.068-.01-.088.01L.6,32.859l-.078.059-.059.059-.166.206-.1.176-.049.128-.019.059v.107l.019.449.029.49.039.733.029.626.041.616.8-.127.812-.128.812-.127.8-.127.812-.127,1.615-.264.81-.128.8-.127.812-.138.8-.127.81-.137.812-.137.8-.127.8-.137.81-.138.2-.029,2.963-1.526.334-.127.059.1.049.039.088.02.049-.02.088-.068.107-.1.234-.176.1-.1.068-.1.02-.147.02-.078.059-.068.1-.02.119-.01.088-.03.088-.059.332-.234.519-.264.068-.029.391-.068.078-.029.049-.039.039-.06.068-.088.068-.039.383-.059.078-.049.049-.06.029-.205.039-.078.059-.078.137-.127.078-.039.068-.01.049.029.029.039.068.068.029.029.039.02.049.01.793-.205.773-.078.1-.02.293-.029.461-.049.605-.069.725-.078.82-.088.891-.107.959-.1.978-.117.979-.117.978-.107.93-.107.869-.107.793-.088.676-.079L34,29l.666-.078h.137l.088.02.059.039.049.039.039.039.029.05.029.059.01.068.01.078-.02.068-.068.264-.01.059v.107l.02.049.029.06.049.059.049.049.078.049.06-.01.059-.029.771-.782.059-.049h.049l.039.01.039.029.49.449.7.666.566.537.059.069.02.078.2,1.351.019.088.039.078.068.059.088.01L39,32.566l.117-.02.332-.049.529-.078.684-.108.8-.127.91-.138.959-.156,1-.156,1-.156.959-.146.9-.147L48,31.157l.676-.107.527-.089.344-.059.117-.02.4-.059H50.4l.226.029.41.284.832.587.83.587.832.577L55.2,34.062l1.672,1.164.842.578.842.586.842.588.83.577.842.577.842.577.851.577.84.577.842.587.283-.156.02.078-.039.059-.078.156.881-.537.637-.313.225-.206.039-.391.078-.01.107.225.01.108-.029.107.371.01.832-.361h.293l.148.039.6-.137.205-.02,1.027.088.186-.019.148-.088.068-.127.273-.7.107-.518v-.176l-.1-.44-.019-.225.029-.186-.166-.294-.3-.9-.068-.362.068-.01.275.529.313.459-.01.392.293,1-.078.411.01.078.059.088.01.117-.039.254.254-.42.059-.734-.088-1.457.029-.234.148-.52.049-.43.127-.235.273-.382.4-1.018.51-.909,1.164-1.477L74.8,30l.518-.274.156-.1.078-.078-.039-.039-.059-.029-.019-.088.1-.156-.117-.127-.215-.079-.2-.01-.1-.039-.137-.107-.129-.128-.059-.1.029-.117.088-.088.1-.029.049.049.1.01.166-.078.127-.185-.049-.323-.1-.156-.147-.157-.147-.068-.119.107-.117-.2-.215-.655.147.147h.127l.109-.05.088-.02.156.069.1.1-.02.078-.176.039.02.078.205.107.508.431.1.127-.049.265-.391.449-.117.226.4.01.059.039h.049l.256.166.185-.088.225-.235.127-.068.254-.225.4-.842.293-.225.029-.059-.137-.215-.01-.088.088-.029.078.059.078.078.078.019.107-.088.068-.167.019-.205-.029-.226-.059-.049-.127-.205-.029-.2h.2l.01.049.127.283.3.3-.147.177.029.147.117.059.1-.078.088-.089,1.437-.782.3-.294,2.094-.265-.1-.146-.313-.313-.058.088-.078.068-.088.059-.166.039.107-.254.186-.244.234-.2.244-.108.176.1.109.284.1.332.127.244.3.1.049-.3-.166-1.105.088.01.205.186.273.157-.137.225.088.186.227.117.244.039.234-.049.1-.059.078-.088.029-.118-.039-.088-.049-.068L84.2,24.5l.049-.118.068-.078.059-.059.068-.068.256-.527.137-.187.049-.088.039-.138v-.137l-.039-.215.02-.107.059-.01.029.068.078.107.029.068.371-.283.078-.088.068-.235L85.57,22.3l-.078-.06-.059-.127.02-.215.088-.039.129.02.176-.039.1-.1.107-.234.078-.1-.02-.1-.283-.1-.188-.206-.215-.176-.342-.029.117.176.244.235.068.186-.088.059-.225.059-.205.137-.059.244h-.1l-.432.244-.166.049-.068-.02-.068-.039-.039-.068-.02-.107.02-.147.068-.029.078-.01.244-.205.039-.088-.088-.108-.244-.226-.01-.117.01-.215-.02-.127-.029-.039-.137-.137-.029-.059-.059-.01-.088.205-.068.264-.029.2.029.148.039.176.039.187-.019.205-.2-.186-.178-.068-.176.01-.156.029-.2.127.059.176.312.3.107.245-.186-.029-.273-.117-.215-.069-.02-.039L82.6,22.1,82.48,22l-.119-.059-.117.02-.107.068-.176.185-.146.206-.127.245-.156.215-.256.166-.078.146-.068.039-.059-.019-.059-.049-.068-.078-.42-.186-.549-.059-.5.02L79,22.754l-.488-.441-.361-.489-.227-.205L77.7,21.56l-.049-.138-.605-.645.42.088.646.617.42.088.166.049.588.43.342.176.41.138.344-.01.459-.118L81.207,22l.119-.332.186-.226.41-.372.313-.352-.1-.205.3-.186.176-.294-.01-.342-.256-.322-.137.127.019.078.059.02.059.029.061.02-.149.127-.127-.01-.117-.068-.147-.039-.449.068-.148-.02.09-.156.146-.117.166-.078.156-.05.068-.059.078-.117.108-.118.166-.068.324.059.146-.01.039-.117-.078-.107-.146-.059-.275-.059-.019-.078H82.8l.234-.049.068-.185v-.138l.059-.244-.039-.089-.205-.146-.1-.107-.059-.127-.254.039L81.482,17.4l-.91-.02-.744-.244-.664-.021-.187-.068-.371-.186-.488-.167-.461-.02-.283.255-.176-.382-.137-.137-.227-.02-.127-.039-.147-.137-.254-.352.469.255.246.088.5.02.568.186.312.029.557-.049.227.068.273.166.264.068.539-.273.322.01.029-.088.059-.059.068-.049.1-.039.029.293.264.146h.324l.2-.156-.059-.088-.078-.059-.088-.039-.117-.02.02-.059.01-.049.019-.049.059-.049-.019-.079-.078-.029-.08-.049-.2-.137.029-.079.049-.293-.1-.107-.107-.1-.137-.059-.166-.01.371-.372.205-.138.285-.039.518.02.234-.039.266-.107-.078.382-.158.128L81.707,15l-.264.117-.01.156.146.146.234.107.019.078-.127.167.176.107.478.088-.019.079-.02.059-.049.039-.088.039.176.186.168.1.42.107-.059-.088-.059-.068-.078-.039-.078-.029.049-.137.1-.078.127-.01.137.049.137-.49-.137-.225.088-.117.186.029.139.215.1.411.088.206.117.078.02.1-.432.1.078.127.07.01.078-.029.1.01.176.088.1.117.147-.117.01-.2-.068-.176-.1-.059-.029-.1-.029-.177.059-.127.264.068.117.117.217.3.371.146h.127l.02-.146.01-.147.059-.059h.078l.166.215.2.02.725-.137.068-.078.088-.206.108-.117.373-.216.156-.049-.02-.078-.156-.166-.01-.3.117-.216.225.088L87.215,15l.127.058.059-.029.019-.108-.029-.186.029-.118.088-.107.029-.127-.117-.166.244-.147.059-.059.039-.107-.01-.069-.049-.059-.02-.068-.049-.078v-.079l.186-.088.051-.039.459-.753V12.54l-.059-.206-.039-.225.049-.215Z"/></svg>
