<svg xmlns="http://www.w3.org/2000/svg" viewBox="0 0 70.238 75.355"><defs>
  <style>.a{stroke:#fff;stroke-linecap:round;stroke-linejoin:round;stroke-width:0.25px;}
    path.state {
      fill:rgb(80,80,80,100)
    }
    path.state.active {
      fill:red;
    }
  </style></defs><title>nm</title><path class="a state active" d="M28.516,70.1l.626.733-.147-.156-.117-.049-.469-.029-.284-.02-.294-.019-.293-.02-.283-.01-.294-.019-.284-.02-.293-.02-.283-.019-.294-.02-.294-.019-.283-.02-.294-.02-.283-.01-.294-.02-.293-.02-.284-.02-.294-.019L23.2,70.27l-.293-.02-.284-.02-.294-.019-.283-.02-.293-.019-.294-.02-.284-.02-.293-.019-.283-.02-.294-.02-.294-.019-.283-.02-.294-.02L19.152,70l-.293-.02-.283-.02-.294-.029L18,69.909l-.293-.019-.293-.02-.284-.02-.294-.019-.283-.021-.293-.02-.294-.029-.284-.02-.293-.02L15.1,69.7l-.294-.02-.294-.018-.283-.02-.284-.029-.294-.02-.293-.019-.283-.02-.294-.02-.284-.02-.293-.029-.293-.019-.284-.02-.284-.019-.293-.029-.293-.019-.284-.02-.294-.029-.283-.02h0l-.01.1-.01.088v.088l-.01.1-.01.089v.1l-.01.088-.01.1-.01.088v.1l-.01.089-.01.1v.088L9.8,70.6l-.01.1-.01.087v.1l-.01.089-.01.1v.088l-.01.1-.01.087v.089l-.01.1-.01.088v.1l-.01.088-.01.1-.01.089v.1l-.01.088-.01.088v.1l-.01.1-.01.09v.088l-.01.1-.01.088-.01.1v.088l-.01.1L9.6,73.2v.088l-.01.1-.01.088v.1l-.01.089-.01.1v.088l-.01.1-.01.088-.01.1v.089l-.01.088-.01.1v.088l-.01.1-.01.088-.01.1v.088l-.01.088-.01.1v.088l-.01.1h0l-.479-.04L8.5,75.161l-.479-.038-.478-.039-.48-.029-.479-.039L6.1,74.977l-.479-.039L5.144,74.9l-.479-.029-.478-.039-.48-.039-.478-.039-.479-.039-.479-.04-.479-.04-.479-.038-.479-.039L.35,74.517.125,74.5h0v-.01h0v-.01h0v-.01h0v-.01h0v-.01h0v-.01h0l.2-2.328.186-2.329.2-2.318.187-2.328.2-2.328.185-2.319.2-2.328.186-2.328.2-2.319.186-2.328.2-2.318.186-2.328L2.6,44.208l.2-2.318.2-2.328.187-2.318.185-2.319.2-2.328.2-2.318.186-2.329.186-2.318.2-2.318.185-2.328.2-2.318.186-2.319.2-2.318.186-2.319L5.457,9.39l.2-2.318.2-2.318.186-2.318L6.22.125l2,.167,2,.156,2,.146,2,.156L16.189.9l2,.147,2,.137,2,.138,2,.137,2,.137,2,.127,2,.117,2,.117,2,.118,2,.117,2.006.107,2,.108,2,.107,2,.1,2,.1,2,.1,2,.088,2.006.088,2,.078,2,.079,2.006.078,2,.078,2,.068,2,.069,2,.059,2,.059,2,.059-.039,1.633-.039,1.645-.049,1.633-.039,1.645-.451-.01v.234l-.01.411-.059,1.829-.059,1.82-.059,1.829-.059,1.829-.059,1.82-.059,1.829-.059,1.829-.059,1.82-.059,1.829-.059,1.83-.059,1.829-.049,1.829-.06,1.82-.059,1.828-.068,1.83-.059,1.83-.059,1.829-.06,1.829-.059,1.83-.059,1.829-.059,1.83L68.2,51.008l-.059,1.829-.059,1.83L68.019,56.5l-.058,1.829-.059,1.83-.059,1.829-.059,1.839-.059,1.82-.059,1.829-.06,1.84-2.476-.069-2.484-.079-2.484-.077L57.679,69,55.2,68.911l-2.484-.1-2.484-.1-2.476-.108L45.273,68.5,42.8,68.383l-2.484-.117-2.476-.128-2.485-.127-2.475-.137-2.485-.137-2.476-.147-.293-.02-.186-.01v.226l.2.489.039.283.02.3.059.234.255.421-.089.088.069.156.1.118.127.088.147.029h0l.146.107Z"/></svg>
