<svg xmlns="http://www.w3.org/2000/svg" viewBox="0 0 66.109 99.227"><defs><style>.a{stroke:#fff;stroke-linecap:round;stroke-linejoin:round;stroke-width:0.25px;}</style></defs><title>nv</title><path class="a" d="M56.123,84.583l-.235.234-.166.392-.206.47-.235.548-.391.156-.538.02-.264-.049-.235-.137-.176-.2-.107-.186-.078-.166-.176-.567-.059-.137-.088-.138-.1-.137-.088-.068-.088-.049-.068-.02H52.68l-.069.01-.059.02-.294.127-.068.019h-.068l-.079-.01-.088-.02-.137-.068-.1-.089-.078-.078-.049-.039-.039-.029-.548-.244-.1-.02-.088.01-.176.049-.636.078-.372.166-.381.117-.049.04-.049.039-.088.1-.039.049L49,84.887l-.02.146-.01.3-.02.146-.068.137-.205.167-.029.362.059.361.118.323.352.6.049.127V87.7l-.059.147-.235.3-.078.186-.108.724-.02.362.02.264.245,1,.049.225-.127.265-.01.577-.3.606.107.538.118.656.244.723.059.323-.059.353-.02.332.059.646-.01.527-.049.274-.166.509-.049.039-.137.039-.157.02-.147-.02-.117.029-.059.176.04.128.166.265.02.176-.059.127-.293.293.049.44-.01.147h0l-1.751-2.123-1.732-2.133-1.8-2.221-1.673-2.113L39.7,88.633,38.22,86.745l-1.468-1.888-1.457-1.879L33.837,81.09l-1.458-1.9L30.932,77.3l-1.438-1.889L27.83,73.332l-1.643-2.084-1.644-2.084L22.919,67.07l-1.634-2.084-1.624-2.093L18.047,60.8l-1.6-2.094-2.074-2.515L12.3,53.678,10.25,51.153,8.205,48.629,6.171,46.105,4.145,43.572,2.13,41.037.125,38.5l.029-.176.137-.715.431-2.357.42-2.348.431-2.348L2,28.212l.43-2.349.431-2.348.43-2.348.421-2.348.43-2.338.431-2.338L5,11.8l.431-2.339.431-2.338.42-2.328.431-2.338L7.129.125,8.969.457,10.808.79l1.839.322,1.83.323,1.839.322,1.83.313,1.839.323,1.839.313,1.839.3,1.839.3,1.839.3,1.839.3,1.839.294,1.839.294L34.7,4.8l1.849.283,1.829.284,1.839.284,1.839.273,1.839.273,1.839.265,1.839.274L49.412,7l1.839.254,1.839.265,1.839.255,1.839.254,1.839.244,1.849.245,1.839.244L64.135,9l1.849.234-.254,2.006-.254,2.006-.254,2.016-.254,2-.264,2-.254,2.017-.254,2-.254,2.016-.254,2.016-.264,2.015-.254,2.016-.254,2.015-.254,2.016L62.4,37.408l-.264,2.016-.254,2.025-.254,2.015-.264,2.025-.254,2.024-.254,2.016L60.6,51.555,60.34,53.58l-.254,2.025-.264,2.034-.254,2.025-.254,2.024-.254,2.025-.264,2.035-.254,2.025-.264,2.035-.254,2.025-.254,2.034-.02.107-.039.3-.059.478-.078.617-.1.733-.107.811-.108.871-.117.9-.117.9-.118.87-.1.811-.1.734-.078.616-.059.479-.039.3-.019.108-.069.548-.029.127-.039.127-.254.265Z"/></svg>