<svg xmlns="http://www.w3.org/2000/svg" viewBox="0 0 81.02 58.645"><defs><style>.a{stroke:#fff;stroke-linecap:round;stroke-linejoin:round;stroke-width:0.25px;}</style></defs><title>ny</title><path class="a" d="M60.359,56.349l-.127.068-.117.107-.137.088-.234.04-.156-.01-.109.059-.068.235.01.205.068.4-.02.206-.059.068-.088.059-.088.088-.059.128.01.088.1.342,1.027-.89.383-.6-.129-.666Zm8.17-2.035-.019-.039.01-.02.049-.01-.02-.078-.176.117-.617.166-.107.05-.059.039-.127.166-.215.138-.061.068-.127.1-1.379.6.264.088,1.351-.626.5-.449.734-.265Zm4.246-2.631-.451.361-.488.265-.1.107-.107.107-.383.226-.137.049-.117.088-.225.332-.127.147-.588.4-.91.42-.293.226-.322.107h-.285l.1.138.342-.108.91-.421.969-.616.283-.244.146-.069.557-.547.852-.52.137-.059.1-.127.314-.254-.02-.078Zm7.943-6.154-.273.039-.2.089.068.117.02.078-.2.02-.166-.03-.107.05-.01.283-.205-.02-.166.146-.295.4-.332.254-.2.1-.107-.048-.078-.118-.441-.392-.146-.01-.068.176v.255l.049.226-.459-.294-.156-.04-.068.1-.01.146.019.068-.107.069-.227.205-.127.039-.078-.078-.078-.137-.107-.068-.137.107.166.215-.117.185-.225.177-.432.567-.127.215.01.147.059.157-.127.156-.205.137-.2.1-.225.02-.227-.04-.2.02-.166.205-.1-.049-.108-.01-.107.019-.107.039.059-.185.137-.206.166-.185L74.5,48.8l.059-.088.088-.2.02-.059.02-.166.039-.069.039-.02.117-.01.051-.02.215-.3.088-.048.039.077.117.128.117.079.01-.128-.059-.156-.068-.118-.01-.127.068-.166.078-.068.215-.049.088-.078-.088-.02-.088-.029-.078-.06-.078-.087.51-.793.332-.322.205.2.117-.089.127-.136.1-.168.019-.156-.088-.1-.146-.029-.156.02-.127.049-.461.393-.117.155-.166.343-.117.156-.42.234-.186.147-.1.372-.518.391-.469.754-.2.137-1.193.568-1.564.312-1.674.42.088.118-.01.1-.078.06-.127.029-.01-.275-.156-.02-.205.118-.156.117.1.2-.059.226-.156.186-.412.244-.107.029-.088-.01-.225-.059h-.1l-.205.02-.93-.107-.205.059-.07.117.236.2.088-.206.166.04.137.166.01.176-.127.039-.185-.029h-.2l-.1.147-.147-.068-.107-.069.039-.255-.205-.117-.254.06-.088.255.059.127.215.166.039.1-.068.068-.283-.059-.137.019.01-.068.029-.039-.559-.01-.508.283-.246.48.285.6-.137.049-.207-.137-.244-.215-.234-.146-.107.127-.068.176.02.137.342.049.078.147-.029.157-.088.1-.1-.059-.117-.146-.127-.108-.147.059-.039.137.107.334.01.156-.275-.107-.342-.01-.264.127-.039.3h-.5l-.225.235-.234.909-.029.068-.088.089-.039.058-.01.04-.01.108v.05l-.205.4-.029.117.107.283.361.255.01.265L61.465,57l.49-.226L62,56.73l.1-.128.078-.058.127-.03.1.021.088-.021.068-.156-.156-.137-.078-.039-.1-.019-.02-.088.234-.255.137-.1.215-.069L63,55.635l.283.019.215.069.02.127.068.068.02.039.02.049-.186.059-1.213.812-.156.157.352-.02,1.3-.754,1.791-.431-.02-.087-.283.01-.725.264-.234-.068.01-.2.254-.128.559-.137.986-.616,1-.323.2-.127.313-.313.6-.3.1-.078.109-.176.078-.079.176-.049.469.029.234-.02.129-.089-.029-.127-.07-.137.029-.127.119-.059.127.01.137.029h.117l.117-.039.4-.215.1-.147.1-.048.625-.186.2-.117.207-.206.117-.049.264.078h.127l.2-.088.117-.147v-.176L72.3,51.4l.352-.068,1.057-.431.236-.049-.059.127-.168.128-.459.245-.059.029-.02.048.039.069.068.029.039-.029.029-.06.049-.039.1-.038.91-.666.588-.273.322-.334.088-.127-.029-.117-.1-.107-.059-.117.01-.117.107-.068.264-.039.127.049.029.137-.068.234.186-.078.295-.283.312-.157.488-.361.764-.841.568-.324.625-.537.627-.333,1.018-1,.156-.108.117-.117.039-.138Zm-2.025-1.9.127-.039.127-.1.205-.264.148-.146.029-.01.029-.029.02-.058-.754.293-.137.117-.02.166.088.069ZM56.75,9.624Zm-26.9,5.812.078.029.217-.1.3-.353.2-.166-.01-.049-.029-.039-.068-.058h-.059l-.059.058-.088.049-.117-.039-.088.117-.227.127-.088.107-.02.1.01.119Zm.959-1.018.039.118.019.146.1.1.078-.039.227-.294.156-.107.176-.2.146-.244.088-.254.019-.029v-.039l-.01-.068-.127.039-.078.078-.127.225-.088-.176-.1.107-.146.411-.078-.06.02-.029.01-.01.01-.01.01-.059-.119.029-.088.039-.059.078-.029.1-.029-.01-.039.01-.059.01-.068.029.02.1Zm-.93,4.4.059-.3V18.37l-.107.01-.156.107-.117.119-.137.185-.029.147.117.4.283-.332Zm31.2,32.843-.068-.333-.4-1.046-.1-.559-.068-.225-.137-.2-.185-.136-.2-.108-.156-.137-.176-.411-.07-.088-.059-.107-.01-.186.029-.117.078-.118.148-.185.078.245-.029.225.02.226L60,48.64l.391.2.146.108.148.166.205.411.156.47.244,1.036.029.265-.019.548.049.548-.117.567.02.284-.02.2L60.9,54.559l-.02.255.029.273.059.273.2-.225.137-.822.127-.342.234-.205L62,53.609l.361-.1.3-.019-.068-.107-.2-.216-.059-.1.029-.127.107-.049.117-.02.039-.068v-.234l.078-.235.324-.567.078-.1.107-.059.215-.049.02-.059.137-.344.02-.137-.039-.049-.117-.059.078-.107.029-.029-.059-.088-.078-.1-.039-.039-.029-.01-.059-.02-.039-.029-.332-.313-.314-.314-.078-.068.117-.127.363-.361.469-.471.5-.5.41-.411.127-.146-.2-.177-.186-.185-.2-.2-.256-.274-.039-.234-.107-.6-.1-.6-.107-.587-.107-.6-.1-.587-.107-.6-.1-.587-.109-.6-.107-.588-.1-.6-.107-.587-.107-.6-.1-.588-.107-.6-.108-.587-.1-.587-.334-.245v-.244l.019-.5.029-.968.061-1.937.039-.969.029-.968.029-.96L61.9,29.5l.029-.97.01-.313.107-.244-.205-.312-.246-.383V26.8l-.029-.215-.02-.138-.029-.088-.059-.265-.088-.41-.117-.527-.137-.617-.156-.7-.166-.743-.344-1.536-.166-.743-.156-.694-.146-.617-.117-.527-.088-.411-.059-.255-.019-.1-.059-.273-.1-.078-.107-.068-.059-.02-.107-.089-.244-.411-.059-.059-.068-.049-.078-.01h-.156l-.068.02-.068.02-.06.039-.049.039-.039.049-.029.068-.01.069.01.234-.01.079-.029.059-.029.059L58.187,18l-.1.068-.029.019h-.029L58,18.058l-.1-.107-.078-.127-.059-.147L57.7,17.4l-.02-.145v-.118l.2-1.359v-.1l-.039.068-.088-.392-.039-.108-.1-.1-.266-.166-.078-.127-.01-.146.029-.254-.01-.157-.059-.138-.088-.117-.166-.166-.137-.205-.1-.215-.166-.656-.01-.254-.029-.146-.01-.02-.088-.068-.068.028-.09.128-.029.137-.176-.509.02-1.341-.2-.41.215-.2.49-.871-.137-.146L56.359,9l-.068-.167-.119-.352L56,8.069l-.068-.089-.059-.058-.039-.04L55.684,7.2l-.049-.137-.107.029-.039.225.01.283.049.216-.1-.146L55.4,7.5l-.01-.176.029-.166V6.983l-.088-.156L55.1,6.572l.129-.187.02-.215L55.145,6l-.225-.029-.1-.088L54.7,5.672l-.1-.255-.029-.166-.059.01v-.1l-.029-.117-.059-.1-.088-.1.117-.156-.01-.186-.127-.323-.01-.264.078-.127H54.5l.137.186.059.049h.068l.029-.1L54.764,3.8l-.059-.078-.068-.049L54.48,3.54l-.068-.03-.029-.039-.01-.156.039-.128.059-.029.059-.01.059-.068.059-.254-.029-.156L54.5,2.561l-.166-.1-.078-.138L54.207,2.1l-.02-.234.029-.361-.088-.451-.02-.2.029-.029.049-.01L54.236.77l.029-.137-.02-.117L54.2.4,54.09.223l.02-.1-.363.1-.93.235-.939.234-.928.225-.939.235-.93.235-.939.225-.93.234-.939.225-.928.235-.939.225-.93.225-.939.225-.939.225-.156.019-.273.069-1.223.137-.168.049-.147.089-.293.293-.508.322-.139.117-.342.4-.146.108-.469.244L36.578,6.122l-.539.734L35.168,8.04,34.238,9.3l-.928,1.252-.363.793-.264.459h0l.166.156.108.216.068.216-.059.2-.527.518v.05l.01.077v.078l-.02.069-.029.029-.461.3-.029.1-.068.137-1.008,1.3-1.115.8-1.4,1.507-.049.2.107.264.146.059.186.01.2.117.078.127v.107l-.02.088.039.1.088.049h.088l.059-.077v-.148l.049-.186.557-.43.117.146.373-.146.166.107-.059.078-.02.049v.166l.049-.088.068-.078.078-.049.088-.029-.02.176-.068.187-.107.165-.225.177-.127.177-.068.176.068.049.6-.127.166-.1.207-.284.146-.089h.166l.088.089.01.146-.078.177-.127.107-.3.117-.1.156-.029.2.02.156v.167l-.107.226-.342.43-.068.2-.3-.116.039-.089.029-.273-.422.322-.107.137-.068.226.078.078.156.029.176.108.07.049.146.059.059.049.049.088.02.1.039.088.176.215.166.323.1.147-.039.264.049.283.107.294.127.284.041-.2.068-.136.1-.06.137.04-.283.654.01.293.3.129-.146.2-.285.519-.176.138-.615.265-.256.009-.43-.058-.166.058-.391.6-.158.177-.9.685-.314.332-.264.393-.264.879-.264-.1-.148-.01-.029.155-.039.059-.566.412-.949.41-.039.05-.029.116.01.1.029.07v.067l-.019.088.01.039-.01.029-.088.05-.088.029-.1-.01-.088-.049-.088-.079.01-.049.029-.136-3.738.605-.42.176-1.125.676-.441.088-.43-.1-.812-.461-.059-.01-.225-.01-.029-.136-.264-.06-3.572.069-1.125.41-1.516.088L7.941,31.852l-.566.421-1.008.371-1.154.715-.637.235.088.215.266,1.125.02.137.01.167-.019.117-.039.107-.019.137.039.187h.01l.43.175,1.105-.088.312.274.01.284-.273.41-.029.3.068.107.205.118.058.068.176.548.09.126.273.344.088.146.039.108L7.541,39l.029.314-.049.244-.127.186-.166.176-.7.47-.322.294-.205.371-.119.509-.117.245-.186.137-.039.059-.1.372-.078.216-.039.059-.117.087-.607.313-.146.313L4,43.787l-.441.284-.1.078-.049.1-.059.137-.078.128-.264.2-.352.685-.49.392L2.043,46l-.137.177-.627.371-.625.705L.4,47.427l-.166.2-.107.059.01.029.068.363.068.371.068.371.068.373.07.371.068.371.068.372.068.362.078.44.361-.069,1.33-.254,1.342-.244,1.34-.254,1.33-.245,1.34-.255,1.33-.264,1.342-.255L11.807,49l1.34-.254,1.33-.264,1.332-.265,1.34-.264,1.33-.265,1.33-.273,1.33-.264,1.342-.274,1.33-.274,1.33-.273,1.33-.284,1.33-.273,1.332-.284,1.33-.283,1.33-.284,1.33-.284,1.332-.283,1.33-.293,1.32-.284,1.33-.293,1.33-.294L41.1,42.9l1.32-.3,1.33-.295.215-.049.117-.029.039.177.275.117.332.068.234.1.117.216.088.312.117.265.2.087L46,43.347l.127.02.264.127.285.029.2.207.1.028.137.02-.01.128-.166.322.234.068.176.019.146.088.109.264V44.8l-.109.136-.01.128.246.439.059.265.088.665.059.127.156.088.734.92.166.166.2.108.459.01.158.088.127.118.166.087h.244l.471-.146.225.069.146.087.108-.019.088-.067.1-.06.088.029.068.088.127.186.117.1.217.234.107.245,1.105.351,1.105.343,1.105.352,1.115.344,1.105.352,1.115.342,1.105.343ZM5.584,36.91l.107.058.166.147.2.117h.166l.361-.86v-.167l-.108-.1-.264-.038-.166-.039-.158.049-.156.077-.176.049.049.177-.049.449Z"/></svg>