<svg xmlns="http://www.w3.org/2000/svg" viewBox="0 0 92.738 44.323"><defs><style>.a{stroke:#fff;stroke-linecap:round;stroke-linejoin:round;stroke-width:0.25px;}</style></defs><title>ok</title><path class="a" d="M89.316,6.68,89.65,8.5l.322,1.809.332,1.811.334,1.82.322,1.809.332,1.82.334,1.81.332,1.818.088,2.857.078,2.856.078,2.856.088,2.867.078,2.855.088,2.857.078,2.867.078,2.856-.059-.01-.273.01-.2-.1v.1l-.529-.157-.166-.078.039-.068.029-.059-.234-.011-.283.069-.088-.117-.127-.068-.156-.039-.158-.02h-.078l-.117.068-.078.02-.059-.02-.1-.117-.2-.088-.2-.3-.156-.059h-.139L89,42.946l-.715-.1-.43-.382-.176-.284-.059-.078-.117-.069L87.41,42l-.068-.078-.039-.2-.029-.059-.08-.068-.088-.059-.078-.02h-.381l-.166-.039-.176-.117-.373-.343-.2-.117-.342-.068-.068-.078-.049-.088-.059-.079-.127-.078-.734-.205-.176.029-.2.176-.061.206-.01.224-.049.148-.137-.068-.059.107-.078.059-.1.05-.117.068-.127-.068h-.078l-.029.127v.1l-.02.059-.049.039-.068.039-.088.01-.92.01-.117.029-.078-.1-.07-.05-.088-.028h-.107L81.5,41.5l-.068.05-.049.029-.029-.049-.049-.068-.029-.049v-.019l-.342.01-.147-.068.1-.2-.088-.2-.127-.1-.148-.068-.147-.107-.146-.05-.117.118-.137.254H79.9l-.186-.06-.029.029-.256.147-.117.029-.117.079-.107.088-.068.088h-.107l-.166.019-.353.01-.078.087.059.363-.117.1-.078-.029-.059-.059-.059-.088-.088.029-.058.068-.068.088-.3.067-.127-.028-.637-.372-.117-.117-.117-.03-.137.089-.107.127-.041.1h-.078l-.166.1-.2.146-.371.177-.147.02-.568.02-.108.03-.215.137-.117.029-.107.1-.178.46-.1.176-.205.137-.2.029-.469-.039-.285.049-.068.128.01.194-.049.275-.3.225-.332-.3-.334-.478-.264-.3-.205-.039-.734.067-.088-.038L70.347,43l-.029-.117-.039-.1-.068-.049-.244-.117h0l-.451-.127-.137-.137L69.33,42.3l-.029-.059-.02-.068V42.1l.01-.069.117-.243-.029-.079-.1-.088-.273-.107-.147-.03h-.117l-.059.04-.039.039-.07.117-.127.411-.029.068-.029.059-.039.049-.049.04-.088.039-.107.039-.205.029h-.117l-.1-.01-.059-.029-.295-.216-.117-.049-.088-.01-.381.059H66.64l-.088-.029L66.5,42.1l-.139-.137L66.3,41.86l-.059-.128-.078-.371-.049-.127-.049-.069-.088-.049-.147-.068-.107-.01h-.088l-.373.078-.068.029-.049.029-.078.108.01.176-.019.313-.156.361-.166.226-.234.078-.392-.1.02.205.078.088.09.058.049.127-.049.1-.207.127-.039.146-.02.382-.088.342-.2.216-.351.029L63.126,44l-.215-.294-.156-.343-.059-.322.039-.226.2-.332.039-.216-.029-.166-.088-.146-.127-.117-.137-.1-.068.04-.137.059-.059.049-.039.059-.039.1-.185.344L62,42.477l-.3-.255-.127-.039-.176.128-.02.039-.059.137-.029.049-.059.067-.117.069-.039.049-.088.068-.119.039-.713.069-.176-.108-.078-.3-.029-.274-.09-.167-.166-.087-.254-.039-.7.059L58.5,41.89l-.107-.245v-.489l-.107-.226-.41-.194-.432.156-.381.312-.92.969-.42.274-.48.088-.469-.137-.254-.128-.107-.127.029-.2.01-.088.02-.128.068-.273v-.127l-.078-.148.068-.146L54.5,40.9l-.078-.107-.109.029-.391-.127-.537-.1-.422-.206-.029-.43-.059-.283.039-.392v-.343l-.176-.146-.273.039-.51.2-.332.05-1.466-.167L49.882,39l-.177.2-.127.234-.147.226-.068.117-.264.049-.549.01-.156-.088-.371-.422-.147-.1-.068-.068-.187-.313-.117-.079-.361-.067h-.127l-.245.048-.733.314-.127-.069-1.37-.283-.226-.078-.831-.528-.245-.059-.176.049-.166.068-.234.048-.216-.028-.421-.127-.225-.029-.509.029-.245-.049-.186-.157-.039-.205-.039-.714.039-.157.039-.107-.185-.225-.342-.3-.1-.205-.068-.235-.107-.2-.216-.087-.215-.01-.107-.029-.1-.039-.088-.088-.049-.1-.029-.088-.059-.078-.206-.147h-.157l-.107.147-.059.655-.088.2-.166.088-.254-.029-.235-.088-.411-.235-.527-.069-.1.03-.1.059-.118.147L36.6,35.8l-.2.059-.665-.059-.206-.069-.137-.147-.215-.322L33.338,33.5l-.107-.068L33,33.388l-.1-.059-.176-.05-.49.069-.166.019v-.743l-.01-1.5V25.15l-.01-1.5V17.676l-.01-1.486V10.211l-.01-1.486V8.068h-3.57l-2-.01-2.368-.019L21.461,8.02,18.634,7.99l-2.905-.029-2.916-.049L10,7.863,7.363,7.814,5,7.756,3,7.707,1.465,7.668.476,7.648l-.351-.01L.164,5.994.213,4.361.252,2.717.291,1.084l1.31.029,1.3.039,1.311.029,1.312.029,1.3.029,1.31.029,1.31.019,1.3.029,2.446.039,2.445.039,2.445.029,2.445.029,2.446.02,2.446.019,2.445.01,2.446.01h2.446l2.445-.01,2.445-.01,2.456-.01,2.436-.02L45,1.436l2.445-.019,2.446-.039,2.446-.039,2.435-.049,2.455-.049,2.436-.059,2.447-.059,2.445-.059L67,.986,69.447.918,71.894.839,74.339.751,76.785.663l2.445-.1L81.675.457,84.122.35,86.558.242,89,.125l.078,1.644L89.16,3.4l.078,1.643.078,1.634Z"/></svg>