<svg xmlns="http://www.w3.org/2000/svg" viewBox="0 0 62.324 39.617"><defs><style>.a{stroke:#fff;stroke-linecap:round;stroke-linejoin:round;stroke-width:0.25px;}</style></defs><title>pa</title><polygon class="a" points="61.709 21.492 61.084 21.169 60.682 20.865 60.242 20.475 60.193 20.406 60.066 20.309 59.449 19.976 59.195 19.516 59.02 19.33 58.666 19.564 58.412 19.467 58.168 19.252 58.012 19.036 57.719 18.067 57.463 17.774 56.926 17.726 56.643 17.853 56.506 17.823 56.348 17.49 56.279 17.373 56.23 17.236 56.25 17.1 56.123 16.708 56.104 16.59 56.113 16.482 56.045 16.365 55.977 16.219 55.977 16.033 56.025 15.642 55.996 15.642 55.937 15.564 55.898 15.455 55.937 15.397 55.996 15.338 56.045 15.221 56.084 14.986 56.289 15.035 56.475 14.967 56.613 14.8 56.623 14.556 56.613 14.232 56.701 14.086 56.818 13.959 56.867 13.724 56.779 13.489 56.584 13.303 56.387 13.166 56.289 13.078 56.25 13 56.211 12.971 56.143 12.971 56.084 12.981 56.045 12.971 56.035 12.922 56.035 12.863 56.016 12.814 55.859 12.688 55.781 12.599 55.742 12.511 55.801 12.286 55.977 12.041 56.172 11.836 56.299 11.738 56.506 11.631 56.662 11.445 56.945 10.857 56.984 10.828 56.975 10.799 56.936 10.643 56.965 10.574 57.043 10.477 57.131 10.397 57.189 10.35 57.297 10.222 57.66 9.43 57.758 8.822 57.777 8.441 57.758 8.354 57.797 8.168 58.217 7.561 58.227 7.522 58.246 7.385 58.266 7.326 58.305 7.277 58.412 7.248 58.52 7.102 58.607 7.042 58.824 6.974 58.99 6.808 58.98 6.788 58.873 6.543 58.656 6.309 58.539 6.211 58.412 6.024 58.344 5.937 58.256 5.907 58.158 5.967 58.07 6.034 57.963 6.054 57.816 5.967 57.592 5.897 57.121 6.044 56.877 6.044 56.711 5.957 56.584 5.839 56.426 5.751 55.967 5.741 55.762 5.633 55.596 5.467 54.861 4.547 54.705 4.459 54.646 4.332 54.559 3.667 54.5 3.402 54.254 2.963 54.264 2.835 54.373 2.699 54.373 2.57 54.264 2.307 54.117 2.219 53.941 2.199 53.707 2.131 53.873 1.809 53.883 1.681 53.746 1.661 53.648 1.633 53.453 1.426 53.168 1.397 52.904 1.27 52.777 1.25 52.26 1.465 52.062 1.378 51.945 1.113 51.857 0.801 51.74 0.585 51.506 0.487 51.174 0.419 50.898 0.302 50.859 0.125 50.742 0.154 50.527 0.203 49.197 0.498 47.877 0.801 46.545 1.094 45.215 1.388 43.885 1.681 42.564 1.965 41.234 2.258 39.902 2.541 38.572 2.825 37.242 3.109 35.912 3.393 34.58 3.677 33.25 3.95 31.92 4.234 30.59 4.508 29.26 4.782 27.918 5.057 26.588 5.32 25.258 5.594 23.928 5.858 22.588 6.122 21.256 6.387 19.926 6.65 18.586 6.904 17.256 7.169 15.914 7.424 14.584 7.688 13.244 7.942 11.914 8.188 10.574 8.441 9.232 8.686 7.902 8.939 7.541 9.009 7.463 8.568 7.395 8.206 7.326 7.834 7.258 7.463 7.187 7.092 7.119 6.719 7.051 6.348 6.982 5.977 6.914 5.613 6.904 5.584 5.76 6.309 5.389 6.689 5.006 6.895 4.635 7.336 4.244 7.561 3.812 7.951 3.588 8.069 3.568 7.971 3.617 7.903 3.715 7.717 3.754 7.668 4 7.619 4.088 7.551 4.166 7.424 3.932 7.375 3.764 7.512 3.637 7.707 3.412 7.903 3.344 8.216 3.246 8.305 3.168 8.344 2.924 8.627 1.455 9.801 0.859 10.035 0.723 10.152 0.594 10.31 0.125 10.555 0.311 11.562 0.781 14.242 1.26 16.914 1.494 18.254 1.74 19.594 1.975 20.934 2.209 22.274 2.453 23.606 2.687 24.955 2.934 26.295 3.168 27.636 3.168 27.646 3.168 27.646 3.168 27.655 3.168 27.665 3.168 27.675 3.178 27.675 3.178 27.685 3.178 27.694 3.539 29.749 3.725 30.775 3.91 31.803 4.098 32.83 4.283 33.858 4.459 34.885 4.645 35.922 4.801 36.813 4.967 37.703 5.125 38.603 5.281 39.492 6.602 39.258 7.912 39.023 9.232 38.779 10.545 38.544 11.865 38.299 13.176 38.055 14.486 37.811 15.807 37.565 16.971 37.35 18.125 37.125 19.291 36.91 20.455 36.686 21.619 36.46 22.783 36.234 23.947 36.01 25.111 35.785 26.275 35.561 27.43 35.325 28.594 35.09 29.758 34.865 30.912 34.631 32.076 34.397 33.24 34.161 34.395 33.926 35.559 33.682 36.723 33.447 37.879 33.202 39.043 32.957 40.197 32.713 41.361 32.479 42.516 32.225 43.67 31.98 44.834 31.734 45.988 31.481 47.152 31.236 48.307 30.981 49.461 30.727 50.615 30.473 51.779 30.219 52.934 29.964 53.012 29.954 53.021 29.925 53.168 29.515 53.307 29.113 53.463 28.663 53.609 28.447 53.795 28.252 53.961 28.125 54.264 27.959 54.48 27.871 54.92 27.753 55.41 27.714 55.801 27.753 56.133 27.861 56.328 27.969 56.338 27.979 56.525 27.578 56.662 27.469 56.838 27.391 57.385 26.951 57.641 27 57.875 26.902 58.236 26.579 58.785 26.227 58.902 26.061 58.785 25.807 58.775 25.513 58.854 25.248 59.01 25.121 59.215 25.004 59.479 24.643 59.693 24.495 60.008 24.25 60.115 24.133 60.408 23.615 60.535 23.479 60.889 23.272 60.977 23.204 61.26 22.822 61.338 22.744 61.582 22.656 61.885 22.471 62.131 22.235 62.199 21.951 62.023 21.707 61.709 21.492"/></svg>