<svg xmlns="http://www.w3.org/2000/svg" viewBox="0 0 53.576 40.42"><defs>
  <style>.a{stroke:#fff;stroke-linecap:round;stroke-linejoin:round;stroke-width:0.25px;}
    path.state {
      fill:rgb(80,80,80,100)
    }
    path.state.active {
      fill:red;
    }
  </style></defs><title>sc</title><path class="a state active" d="M47.141,23.791l-.146.146-.078.205-.01.245.049.254.078-.019.117-.548-.029-.2.039-.02.01-.019-.01-.02Zm6.252-11.809-.078-.069-.1-.039h-.107l-.01-.088.264-.137-.842-.587-.84-.577-.851-.577-.842-.577-.842-.577-.83-.577-.842-.588L46.633,7l-.842-.578L44.119,5.261,42.445,4.087l-.832-.577-.83-.587-.832-.587-.41-.284-.226-.029h-.332l-.4.059-.117.019-.344.059-.527.089-.676.107-.812.128-.9.146-.959.146-1,.156-1,.156-.959.156-.91.138-.8.127-.684.108-.529.078-.332.049-.117.02-.432.068-.088-.01-.068-.059-.039-.078-.02-.088-.2-1.351-.02-.078L27,2.1l-.566-.537L25.727.9l-.49-.449L25.2.419l-.039-.01h-.049l-.059.049-.771.782-.059.029-.06.01-.078-.049-.049-.049-.049-.059-.029-.06-.02-.049V.907l.01-.059.068-.264.02-.068-.01-.078L24.014.37,23.984.311l-.029-.05L23.916.223,23.867.184,23.809.145l-.088-.02h-.137L22.918.2l-.557.068-.676.079-.793.088-.869.107-.93.107-.978.107-.979.117L16.158,1l-.959.1-.891.107-.82.088-.725.078-.605.069-.461.049-.293.029-.1.02-.773.078-.793.205-.049-.01-.039-.019-.029-.029L9.555,1.69l-.029-.039-.049-.029-.068.01-.078.039L9.193,1.8l-.059.078L9.1,1.954l-.029.205-.049.06-.078.049-.383.059-.068.039-.068.088-.039.06-.049.039-.078.029-.391.068-.068.029-.519.264-.332.234-.088.059-.088.03-.119.01-.1.02-.059.068-.02.078-.02.147-.068.1-.1.1-.234.176-.107.1-.088.068-.049.019-.088-.019-.049-.039-.059-.1-.334.127L2.316,5.643l-.2.029.01.019.01.157L2.1,6.015l-.068.156-.107.137-.273.127-.127.1-.383.382-.1.156-.068.205-.1.431L.8,7.913.682,8.06l-.146.127-.127.156-.059.2L.32,8.616l-.01.1.01.107V8.93l-.029.118L.144,9.3l-.019.567.41.421,1.076.488.381.128.254-.118.08.01.039.177.107.146.43.167.283.264.246.117.225.273.2.177.381.138.5-.1.742-.107.5.216.166.322.107.342.215.4.117.1.764.851.137.284.373,1.086.088.166.088.049.215.215.264.059.156.108.146.126.109.118.176.343L9.213,17l.273.1.117.127.166.343.166.294.139.322.156.127.185.03.215-.03.205.148.225.244.3.255.371.166.371.107.461.206.517.3.607.4.351.3.225.558.217.235.137.273.225.352.254.205.283.128.246.068.537.068.234.078.256.146.557.509.254.176.49.226.2.205-.039.294.068.058.127.177-.166.059-.01.1.176.3-.137.107.107.177.549.479.107.068.029-.068.049-.069.117-.01.137.029.078.029.02.089-.137.107.215.117.1.137-.01.138-.137.127.215.264.2.138.207.039.244-.029.088.1.156.509.088.165.441.265,1.018.235.488.186.361.245.176.078h.246l.156.067.176.2.146.245.068.215-.01.459.039.255.146.089.725.88.166.343.068.2.039.186.1.2.137.156.109.2.01.176-.049.107v.156l-.019.148.039.059.059.02.078.078.068.088.039.088.01.255-.029.205.02.2.146.2.156.117.225.107.244.068.334.01.107.029.107.06.1.068.2.166.059.028.049-.01.256.089.068.039.059.107.049.138.078.117.156.029.166.068.088.216.059.4.519,1.008.176.029.156.127.127.216.068.264.01.167-.059.185-.019.127.01.146.078.332-.01.089-.068.245v.137l.049.087.264.383.01.039-.019.059.01.067.049.089.06.049.127.049.068.039.381.342.107.04.627-.166.254.02.478.127.088.088.109.157.185.107.215.039.225-.02h.01l-.1-.176-.01-.157.049-.156.4-.685.07-.265-.02-.322.039-.1.205-.312.059-.146-.01-.2-.02-.166v-.156l.068-.138.107.489-.234.871-.02.5.82-.734.275-.567.234-.361-.019-.138-.2-.226-.117-.106-.148-.088-.176-.01-.186.127-.439-.548-.107-.088-.178-.049-.029-.186.07-.332-.158-.3-.293-.44-.225-.439.029-.313-.01-.088-.107-.127L32,33.8l-.158-.1-.01-.078.207-.039.117.1.078.155.127.147.185.068.146-.01.039.059-.117.255.059.273.215.46.4.676.851.528.166.059.107-.049.01-.245-.049-.127-.137-.2-.049-.1-.149-.88.022-.177.068-.177-.068-.028-.022-.039-.068.029-.029.02-.02-.02-.049-.1.295-.029.107.215-.039.969.068.058.361-.243v.831l.049.343.127.332.127.029.393-.283.078-.02h.176l.117-.049.8-.725.088-.216-.225-.087.029-.02.039-.01.01-.02-.01-.068.068-.01.147.039.078-.235.029-.322-.01-.265-.078.02-.029.117-.068.108-.137.186-.107.156-.246.216-.273.176-.2.068-.029-.137.146-.245.225-.244.441-.284.01-.254-.166-.225-.295-.059-1.027.1.246-.157.293-.127.322-.078.3-.029-.02-.1-.156-.029-.293-.118-.156-.01-.117.04-.2.088-.129.039-1-.02-.186.137-.01-.088-.02-.078L33.9,33.5l.088-.078.344-.059.8-.02.266-.078-.088-.107-.078-.117-.059-.138-.019-.147.078-.02.107.157.1.078.469.294.146.01.137-.02.226.01.186.078.117.1.117.078h.2l.146-.107.059-.205-.01-.245-.068-.206.166.059.07.127.039.147.088.117.166.087.078-.048.068-.088.127-.068.686-.715.107-.078.088-.089.059-.126.019-.117L38.9,31.94l-.068-.011-.588-.371-.166-.137.156-.06.236.1.41.312.3.177.146-.069.127-.176.236-.127.234-.078.469-.265.559-.205.088-.117-.107-.118-.273-.127-.02-.079.088-.087.117-.01.283.01.273-.059.1-.068.559-.577.127-.284-.039-.4-.068.02v.079l-.029.01-.176-.069-.088-.107-.109-.078-.4-.011-.176-.1-.146-.156-.078-.177.176.107.166.06.107-.03.01-.176-.059-.2-.166-.3-.059-.176.059-.049.43.186-.029-.039v-.1l.029-.1.068-.049.227.137-.187.372-.059.224.088.079.207.029.147.137.127.138.127.049.234-.1.3-.2.527-.46.137-.264.117-.323.156-.293.275-.167.049-.049.02-.1.029-.1.078-.059.088-.039.469-.4.068-.117.039-.205L44.773,26l-.1.078-.068.088-.039.117L44.4,26.1l-.088-.137-.01-.157.166-.636.107-.2.146-.1.3-.295.185-.1.117.137.049.1.2.226.068.127.137-.137.2-.128.236-.107.244-.059.264-.117.049-.176-.029-.216.039-.244.176-.235.432-.3.137-.206-.02-.273-.215-.068-.256-.01-.147-.157.225-.02.266.02.215.089.117.2.068-.038.039-.039.049-.059.029-.078-.137-.1-.107-.137-.01-.127.137-.078.1.029.127.205.107.078.049-.225.107-.146.139-.128.117-.137-.156-.02-.08-.059-.117-.215-.059-.147-.01-.146-.049-.107-.391-.029-.283-.1-.256-.167-.137-.235-.02-.273L47,20.161l.068-.284.363-.782.176-.245.225-.156.01.078-.1.138-.3.528-.176.655-.029.312.059.128.449-.079.156.049.147.157.1.225.1.47.129.166.068-.01-.059-.3V19.642l.059-.155-.1-.069.147-.587.81-1.722.744-1.594.6-.949.939-1.174,1.006-.92.422-.265.44-.117Z"/></svg>
