<svg xmlns="http://www.w3.org/2000/svg" viewBox="0 0 89.656 32.926"><defs>
  <style>.a{stroke:#fff;stroke-linecap:round;stroke-linejoin:round;stroke-width:0.25px;}
    path.state {
      fill:rgb(80,80,80,100)
    }
    path.state.active {
      fill:red;
    }
  </style></defs><title>tn</title>
  <path class="a state active" d="M68.449,3.529l1.1-.156,1.1-.156,1.1-.156,1.1-.166,1.1-.157,1.1-.167,1.1-.166,1.1-.166,1.1-.166,1.1-.166,1.1-.167,1.1-.166L82.683,1.4l1.1-.166,1.1-.176,1.1-.166L86.48.8l.078-.049.2-.235.088-.039L86.93.458l.725-.089.889-.117.988-.127-.361.9-.049.283.029.059.205.284.02.117-.088.509-.176.587-.019.128V3.08l.029.049.146.2.176.176.039.059.039.059-.02.05-.049.019-.332.01-.588-.1-.049.01-.049.029-.732.686-.246.283-.039.059L86.7,6.846l-.068.128-.088.107-.1.068-.148.177-.088.088-.088.049-.068.02h-.088l-.166-.02-.078-.02-.059-.029L85.6,7.385l-.049-.049-.029-.049L85.5,7.228l-.02-.069L85.453,7.1l-.029-.049-.039-.039-.049-.029-.061-.02h-.068l-.147.02h-.078l-.059-.02-.107-.06-.059-.01-.039.01-.059.02-.107.069-.293.294-.051.039-.225.029-.088.02-.244.176-.352.156-.1.059-.158.117-.166.177-.3.44-.088.166L82.4,9l-.029.088-.156.284-.068.1-.059.068-.039.039-.041.029-.439.381-.088.059-.068.029-.068.01-.068-.01-.068-.02-.059-.029-.059-.049-.039-.039-.039-.049-.09-.166L80.9,9.654l-.01-.078.01-.1.031-.177.01-.059-.01-.039-.021-.029L80.7,8.949l-.049-.029-.078-.01-.1.039-.459.333-.246.138-.664.508-.01.019-.019.039v.049l.029.186-.01.068-.019.059-.107.157-.029.117-.01.078-.049.107-.059.049-.068.029-.06-.01-.127-.078-.156-.088-.147-.039-.1-.01-.107.02-.156.059-.078.059-.059.059-.019.059-.02.059-.02.078v.078l.01.068.02.068.029.06.127.2.01.069-.02.078-.1.176-.02.059v.137l-.01.068-.039.127-.207.432-.215.361-.078.068-.059.029-.166-.02-.451.029-.127-.02-.059.02-.049.029-.517.372-.354.166-.078.05L75.3,13.8l-.215.3-.1.078-.254.146-.078.049-.049.059-.029.059-.2.255-.168.333-.068.039-.078.02-.078-.01-.1.01-.107.039-.088.059-.137.176-.1.146-.117.128-.539.333-.088.078-.059.068-.088.156-.205.264-.068.068-.059.039-.676.245-.078.01-.078-.01-.059-.029-.059-.039-.059-.039-.078-.01-.1.01-.2.1-.117.029-.1.02-.059-.01H70.5l-.068.02-.068.021-.1.059-.039.01-.039.01-.383.019-.068.01-.205.088-.2.107-.234.2-.147.156-.1.068-.078.049-.332.128L68.283,18l-.088.068-.049.06-.127.381-.039.068-.068.107-.068.059-.422.216-.088.068-.068.078-.205.294-.019.068-.02.049v.1l.078.166.01.059v.078l-.01.069-.02.068-.147.294-.019.078-.029.127v.078l.039.42-.029.118-.078.127-.178.235-.088.107-.068.059-.039.01-.273.039-.566.146-.158.02h-.068l-.059-.02-.059-.029-.1-.078-.068-.01-.088.01-.156.078-.078.059-.059.059-.166.206-.1.176-.049.128-.019.059v.107l.019.449.029.49.039.733.029.626.041.616-.949.088-1.017.089-.764.068-.078-.02-.371.049-1.352.2-1.34.185-1.35.186-1.35.186-1.342.176-1.35.177-1.35.186-1.34.176-1.7.2-1.691.2-1.693.2-1.691.2-1.693.2-1.7.185-1.693.186-1.693.186-1.691.177-1.7.176-1.691.176-1.693.176-1.7.176-1.693.167-1.7.167-1.693.166-.371.029-.127.01.156.332-.1.01-.392.039-1.389.146-1.4.147-1.4.147-1.408.147-1.4.137-1.4.137-1.4.137-1.4.137-1.4.127-1.4.138-1.4.127L5.828,32.3l-1.4.127-1.4.127-1.4.127L.223,32.8l-.1-.146.107-.107.205-.059.244-.127.373-.265L1.2,31.92l.1-.215.049-.225v-.264l.088-.235.264-.029L1.992,31h.227l.2-.352-.039-.527-.156-.539-.275-.636-.068-.254-.068-.6.019-.313.117-.216.529-.527.146-.205.107-.226.039-.226-.029-.332.029-.225.117-.147.254-.1.266-.059.234-.088.1-.177-.176-.3-.185-.234-.059-.148.059-.127.166-.167.166-.225-.01-.166-.332-.361-.185-.295L3.156,23l.139-.185,1.564-.861.627-.626L5.369,21.1l-.3-.186-.293-.107.078-.244L5,20.377l.186-.118.236-.049.332.216.166.029.059-.255-.186-.382-.3-.264-.236-.312.01-.1.049-.46.275-.566.02-.226.068-.128.156-.146.2-.127.166-.049.068-.254-.332-.5L5.269,15.9l.188-.088.986-.127.129-.049.1-.089L6.7,15.4l-.117-.078-.275-.068-.215-.166-.186-.254-.049-.235.2-.128.273-.02.256-.059.176-.147.088-.3-.059-.284L6.5,13.137l-.01-.205.049-.254-.1-.186-.049-.039.686-.089-.02.118-.068.265.029.2.283.049.137-.088.158-.185.2-.314.02-.079,1.828-.176,1.84-.176,1.82-.185L15.15,11.6l1.82-.187,1.83-.186,1.828-.2,1.83-.2v-.313l-.039-.471-.039-.2-.215-.655-.254-.6-.039-.127-.01-.068.02-.019.049-.01.576-.01.959-.01.588-.01.088.019.059.068.088.176.059.068.059.039.059-.02.43-.049.147-.019.4-.049.615-.078.813-.1.959-.128,1.057-.127L30.031,8l1.174-.156L32.389,7.7l1.135-.146L34.59,7.4l.959-.127.8-.1.625-.088.4-.049.137-.019.459-.068.363-.128.1-.019.459-.039.313-.029.91-.078,1.4-.127,1.818-.166,2.152-.2,2.4-.226L50.459,5.7l2.65-.264,2.652-.273L58.324,4.9l2.4-.255,2.152-.225,1.82-.205,1.4-.156.9-.1.322-.03.51-.068.361-.156.264-.177Z"/></svg>
