<svg xmlns="http://www.w3.org/2000/svg" viewBox="0 0 147.886 140.482"><defs><style>.a{stroke:#fff;stroke-linecap:round;stroke-linejoin:round;stroke-width:0.25px;}</style></defs><title>tx</title><path class="a" d="M105.861,129.165l.156.567.107.274.137.215.059.127.156.734.117.273.3.5.1.294.156,1.008.127.342.205.333.1.215.3,2.689.088.226.117.069.088-.235-.01-.225-.146-.694-.188-.4-.029-.265-.01-.558-.049-.3-.186-.518-.117-.783-.088-.293-.107-.157.02-.166-1.33-4.04-.451-2.289-.176-3.366.078-.255-.166.2-.049.616-.088.273.1.235v.245l-.078.5.029.264.117.469.137,1.233-.019.46-.107.449.371.519.051.108.02.049.059.1.01.079-.02.039-.119.039-.02.049.01.106.031.1.049.078.088.078-.088.1Zm2.934-15.1-.088.352-.068.137-.479.47-.3.4-.607,1.42h-.068l-.088-.147-.137-.088-.285-.108.059.216.08.138-.02.127-.168.146.039.254-.205.352-.254.361-.117.255-.019.157-.205.439-.049.177-.088.548-.344.86-.166,1.447-.078.226.107.059.078-.039.127-.205.186-.45.217-1.1.645-1.868,1.027-2.134,1.42-2.2.127-.136-.1-.118Zm2.379-3.874-.158-.059-.137.078-.088.138-.059.136-.078.1-.166.039-.647,1.193v.068l.227.049.01.079-.07.156-.049.088-.342.381-.4.637-.147.4.107.234.059-.254.156-.265.4-.489.461-.744,1-1.183.029-.128.01-.293.029-.127-.039-.108Zm5.086-3.648-.059-.01-.068.029-.107.029-.039.058.02.274v.107l-.137.245-.137.078-.441-.029-.254.039-.146.1-.234.245-.529.264-.088.078-.107.128-.478.283-.107.234-.09.079-.439.283-.137.059-.186.039-.373.128-.234.039-.2.106-.039.235.039.244.1.138v.088l-.137.137-.117.215-.088.255-.039.226h.088l.088-.226.137-.205.3-.313.617-.479.273-.323,1.076-.606.627-.576.352-.245.381-.117.832-.44.02-.059.088-.148.029-.106.01-.108-.02-.353Zm1.5-1.136-.432.284-.635.6v.1l.234-.029.176-.137.293-.314.273-.088.09-.127.244-.186.088-.059-.01-.04.029-.029.049-.029.1-.01-.01-.088Zm16.248-12.18-.02-.068-.039-.01-.019.019-.01.078v-.088l-.01.039v.039l-.01.02h-.059v.088l.205.029.039.156-.068.177-.107.088-.029.01-.244.088-.059.068-.078.206-.469.411-.041.058-.176.02-.127.04-.088.107-.02.176-.127.2-.832.567-.449.44-.205.245-.127.3.078-.01.185-.264,1.6-1.272.51-.215,1.662-1.507-.723-.225Zm13.707-23.068-.166-.138-.334-.47.019-.147.1-.186.01-.127V68.51l-.068-.216-.207-.039-.215.068h-.078l-.029-.01-.029-.02-.039-.039-.029-.039-.029-.068-.068-.352-.019-.068-.059-.088-.039-.068-.039-.088-.02-.108-.039-.069-.029-.067-.039-.049-.129-.127-.3-.226-.059-.06-.039-.077-.029-.137.01-.1.019-.078.039-.118.029-.05.127-.194.01-.039-.029-.039-.156-.1-.185-.178-.117-.145-.049-.088-.029-.107-.049-.207-.029-.106-.049-.078L145.2,64.9l-.059-.02L145,64.851l-.059-.029-.039-.029-.039-.059-.029-.059-.029-.107.01-.059.029-.059.117-.078v-.01l.01-.01.029-.039.029-.068-.01-.078-.039-.05-.059-.029-.068-.03-.273-.067-.068-.029-.059-.029-.1-.078-.312-.313-.129-.147-.068-.117-.039-.078-.039-.127-.019-.1v-.087l.039-.137.039-.1.019-.078.01-.108-.01-.371.02-.117.039-.216v-.078l-.019-.059-.029-.049-.029-.049-.039-.029-.049-.1-.049-.156-.107-.509-.039-.117-.3-.4-.1-.165-.049-.127-.059-.117-.107-.177-.168-.186-.225-.216-.107-.079-.371-.165L142,58.951l-.049-.039-.039-.049-.256-.411-.049-.059-.147-.107-.078-.029-.156-.108-.059-.068-.029-.04-.01-.028-.049-.979L141,55.488l-.088-1.536-.078-1.546-.078-1.546-.09-1.547-.156-3.08-.078-1.546-.107-1.575-.1-1.565-.1-1.566-.1-1.564-.049-.86v-.01l-.107-.039-.176-.069-.324-.225-.2.117-.234.02-.215-.039-.383-.2-.156.068-.137.137-.156.068-.539-.244-.185.02-.108.166-.068.206-.1.127-.234-.117-.225.127-.207-.029-.078-.127.127-.138v-.088l-.273.059-.273-.069-.215-.175-.088-.265-.117-.234-.2-.039-.059-.01-.273.01-.205-.1v.1l-.529-.157-.166-.078.039-.068.029-.059-.234-.011-.283.069-.088-.117-.127-.068-.156-.039-.158-.02h-.078l-.117.068-.078.02-.059-.02-.1-.117-.2-.088-.2-.3-.156-.059h-.139l-.283-.078-.715-.1-.43-.382-.176-.284-.059-.078-.117-.069-.1-.038-.068-.078-.039-.2-.029-.059-.08-.068-.088-.059-.078-.02h-.381l-.166-.039-.176-.117-.373-.343-.2-.117-.342-.068-.068-.078-.049-.088-.059-.079-.127-.078-.734-.205-.176.029-.2.176-.061.206-.01.224-.049.147-.137-.068-.059.107-.078.059-.1.05-.117.068-.127-.068h-.078l-.029.127v.1l-.019.059-.049.039-.068.039-.088.01-.92.01-.117.029-.078-.1-.07-.05-.088-.028h-.107l-.039.028-.068.05-.049.029-.029-.049-.049-.068-.029-.049v-.019l-.342.01-.147-.068.1-.2-.088-.2-.127-.1-.148-.068-.147-.107-.147-.05-.117.118-.137.254H122.4l-.186-.06-.029.029-.256.147-.117.029-.117.079-.107.088-.068.088h-.107l-.166.019-.353.01-.078.087.059.363-.117.1-.078-.029-.059-.059-.059-.088-.088.029-.059.068-.068.088-.3.067-.127-.028-.637-.372-.117-.117-.117-.03-.137.089-.107.127-.041.1h-.078l-.166.1-.2.146-.371.177-.147.02-.568.02-.108.03-.215.137-.117.029-.107.1-.178.46-.1.176-.205.137-.2.029-.469-.039-.285.049-.068.128.01.194-.049.275-.3.225-.332-.3-.334-.478-.264-.3-.205-.039-.734.067-.088-.038-.039-.107-.029-.117-.039-.1-.068-.049-.244-.117-.451-.127-.137-.137-.049-.049-.029-.059-.02-.068V34.6l.01-.069.117-.243-.029-.079-.1-.088-.273-.107-.147-.03h-.117l-.059.04-.039.039-.07.117-.127.411-.029.068-.029.059-.039.049-.049.04-.088.039-.107.039-.205.029h-.117l-.1-.01-.059-.029-.295-.216-.117-.049-.088-.01-.381.059h-.107l-.088-.029-.049-.029-.139-.137-.068-.107-.059-.128-.078-.371-.049-.127-.049-.069-.088-.049-.147-.068-.107-.01h-.088l-.373.078-.068.029-.049.029-.078.108.01.176-.019.313-.156.361-.166.226-.234.078-.392-.1.02.205.078.088.09.058.049.127-.049.1-.207.127-.039.146-.02.382-.088.342-.2.216-.351.029-.266-.156-.215-.294-.156-.343-.059-.322.039-.226.2-.332.039-.216-.029-.166-.088-.146-.127-.117-.137-.1-.068.04-.137.059-.059.049-.039.059-.039.1-.186.344-.061.088-.3-.255-.127-.039-.176.128-.02.039-.059.137-.029.049-.059.067-.117.069-.039.049-.088.068-.119.039-.713.069-.176-.108-.078-.3-.029-.274-.09-.167-.166-.087-.254-.039-.7.059-.166-.088-.107-.245v-.489l-.107-.226-.41-.194-.432.156-.381.312-.92.969-.42.274-.48.088-.469-.137-.254-.128-.107-.127.029-.2.01-.088.019-.128.068-.273v-.127l-.078-.148.068-.146-.029-.137-.078-.107-.109.029-.391-.127-.537-.1-.422-.206-.029-.43-.059-.283.039-.392V31.44l-.176-.146-.273.039-.51.2-.332.05-1.466-.167-.274.088-.177.2-.127.234-.147.226-.068.117-.264.049-.549.01-.156-.088-.371-.422-.147-.1-.068-.068-.186-.313-.117-.079L89.65,31.2h-.127l-.245.048-.733.314-.127-.069-1.37-.283-.226-.078-.831-.528-.245-.059-.176.049-.166.068-.234.048-.216-.028-.421-.127-.225-.029-.509.029-.245-.049-.186-.157-.039-.205-.039-.714.039-.157.039-.107-.186-.225-.342-.3-.1-.205-.068-.235-.107-.2-.216-.087-.215-.01-.107-.029-.1-.039-.088-.088-.049-.1-.029-.088-.059-.078-.206-.146h-.157l-.107.146-.059.655-.088.2-.166.088-.254-.029-.235-.088-.411-.235L79.5,28l-.1.03-.1.059-.118.146L79.1,28.3l-.2.059-.665-.059-.206-.069-.137-.146-.215-.322L75.846,26l-.107-.068-.234-.049-.1-.059-.176-.05-.49.069-.166.019v-.743l-.01-1.5V17.646l-.01-1.5V10.172l-.01-1.486V2.707l-.01-1.486V.564h-3.57l-2-.01L66.6.535,63.969.516,61.142.486,58.236.457,55.32.408,52.5.359,49.871.311,47.5.252l-2-.049L43.973.164,42.984.145l-.351-.01-.451-.01V.359l-.01.411L42.113,2.6l-.059,1.82L42,6.249l-.059,1.829L41.879,9.9l-.059,1.829-.059,1.829-.059,1.82-.059,1.829-.059,1.83-.059,1.829-.049,1.829-.06,1.82-.059,1.828-.068,1.83L41.233,30l-.059,1.829-.06,1.829-.059,1.83L41,37.32l-.059,1.83-.059,1.829-.059,1.829-.059,1.83L40.7,46.468,40.646,48.3l-.059,1.83-.059,1.829-.059,1.839-.059,1.82-.059,1.829-.06,1.84-2.476-.069-2.484-.079-2.484-.077-2.485-.088-2.476-.088-2.484-.1-2.484-.1-2.476-.108-2.485-.106-2.475-.117L13,58.237l-2.476-.128-2.485-.127-2.475-.137-2.485-.137L.6,57.562l-.293-.02-.185-.01v.226l.2.489.039.283.019.3.059.234.255.421-.089.088.069.156.1.118.127.088.147.029.146.107.626.733.216.068.5-.02.4.2.352.392.273.479.2.459L4,63.295l.117.244.44.587.1.206.039.137.01.078.019.058.068.1.372.244.107.165.255.129.459.166.372.253.206.1.283.05.176.078.48.36.127.139.078.127.068.225.059.118.215.137.127.107v.049l.186.078.2.177.811,1.056.069.245.1.176.831.6.186.089.068.059.265.332.225.186.185.117.166.146.118.265.127.468.1.2.284.156.352.479.891.763.41.586.138.129.333.1.625.351.069.07.059.088.059.068.117.059h.06l.049-.029.088-.088.039-.02.117.049.068.019.088.049.1.2.107.048.118.02.088.041.049.078.01.146.039-.019.049.039.138.166.078-.088h0l.5.655.216.1.206.061.234.127.215.186.137.206.029.137v.156l.019.137.068.118.118.039.352.068.078.049.059.146.322.421.127.234.02.128.01.283.02.127.186.128.039.068-.01.078-.068.147-.02.088.02.146.107.177.019.137-.029.185-.02.09.02.068.088.156.079.1.146.088.068.088.02.118v.156l.019.127.059.059.215.147.146.322.128.372.127.264.078.068.2.108.107.107.2.479.156.215.02.294-.039.479-.059.3-.176.46-.049.264.01.314.185.733v.118l-.039.2.02.137.039.068.146.186.029.068.039.137.206.274.137.616.04.117.2.244.2.177.146.2.078.567.187.382.068.2.01.186V89.3l.039.127.156.186.528.4.156.166.029.088.039.118.049.117.069.049.078.039.909.636.118.177.2-.1.323.011.293.088.176.244.265.216.089.048.078.069.185.479.361.44.235.216.392.215.527.636.432.265,1.037.391.723.177.8.078.127.049.107.1.049.127-.107.294.078.068.128.049.107.049.528.489.332.2,1.008.284.313-.01.088.02.1.078.039.089.02.1.068.108.566.606.49.294.137.048.1.079.313.312.167.079L35.8,98.3l.107-.127.108-.02.127.235.068-.04.176-.049-.088.274.166.107.7.01.625.186.451.079.293-.138.166-.352.068-.449h0l.107-.029.039.029.079-.226.059-.127.1-.078.47-.235.088-.078h0l.107-.137.333-.646.137-.137.079-.069h0l.254.147.068-.107.528-.382.313-.049.127-.059h0l-.1-.146-.274-.2-.088-.117.01-.167.176-.508.01-.235.029-.137.069-.1.146-.108.059-.019h.147l.107-.058h0v-.06l-.088-.186.02-.078.107-.177L42,93.4l-.039-.156-.029-.146.029-.187.068-.117.078-.117.382-.959h0l.108-.078v-.01l.068-.1-.049-.177.107-.049.029-.049-.059-.176.137-.059.068-.078h0l.117-.216.01-.029.186-.351.049-.02.059-.177.344-.587.039-.146.019-.107.029-.1.088-.1h.088l.43.019.2-.049.421-.215.215-.078.039.02.049.137.059.039.078-.019.039-.02.019-.029v-.01l.118-.088v-.01l.1-.157.088-.029,1.243.128h.01l.019-.049.283-.4.039-.127.039-.353.039-.117.088-.088.146-.029.128-.05.117-.234.108-.068.205.068.146.146.147.117.205-.049.049.245.157.078.411.049.527.294.128.117.411.2,1.086-.1.3.078.186-.166.177.059.156.137.148.078h.117l.1-.019.1-.049.078-.068.1-.039.117.02.226.078h.382l.137-.088.068.01.029.137.1.078,1.859.294.6-.068.176-.068.128-.127v-.01l.049-.245.039-.059h0l.078.029.088.1.029.127-.02.06-.107.225L56.9,89l.244.068.185-.1.176-.146.226-.078.088.039.079.166.107.068.127.01.127-.01.117-.039.1-.049-.049.156.029.177.078.156.187.3.078.235.127.312L59,90.4l.1.088.147.078.3.01.1.059-.02.205-.1.284-.02.2.127.048.206-.176.284-.166L60.408,91l.176.166.01.343-.107.391.039.187.117.117.127.02.118.029.1.078.216.284.332.176.764.255.342.127.088.225.039.372.039.185.078.137.088.128.108.107.127.078.831.392.274.254.216.284.1.078.537.265.235.176.147.2.234.45-.088.284.088.176.6.509.039.078.049.078.137.039.138.02.107.039.1.186.088.764.225.519.039.274-.1.283.078.078.049.108.019.147v.167l.068.1.138.1.137.147.06.205.029.049.176.088.059.039.039.107-.078.167.039.088.078.039.166.01.078.049.049.068.059.138.049.067.069.128.284,1.271.146.293.42.558-.02.235.127.088.274.138.118.087.049.128-.02.313.01.146.156.273.234.157.48.2h-.01l-.334.176-.059.1.019.146.079.108.1.078.039.078.059.48.1.46.332.439.176.294.01.215-.078.245.107.255.206.215.2.146.323.059.078.029.039.108.02.185.039.176.1.078.185.03,1.145.587.216.215.088.294.01.176.03.088.166.186.156.138.088.029-.01.067-.029.089-.01.088.078.216.078.175.117.167.167.206.166.059.255.058.147.1-.137.2.108.186.185.244.205.205.186.079.029.058-.049.138-.1.205.039.147.089.077.107.059.088.118.02.127-.029.283.01.128.06.01.156.137.137.147.01.068.283.058.147.138.108.176.137.167.118.058.2.069.078.049.049.117.029.157.039.126.088.059.205.314.059.059h.422l.068.068.117.225.049.049h.127l.244-.137.147-.04.117.05.147.254.068.06.2.068.234.106.234.216.1.2v.528l-.029.3v.137l.078.06.176.01.089.049.049.106.039.187v.059l.01.489-.039.156-.1.3-.04.265-.059.165-.01.147-.039.117-.2.216-.01.01-.078.137.333.127.078.059.02.029.02.108.039.049.127.059.039.028.166.2.127.216.088.234.019.254-.039.254-.166.568-.029.264.029.06.049.078.059.1.02.118-.029.107-.234.431.215.294.049.078.176.137.108.049h.1l.1.02.079.107.029.147v.264l.049.147.107.108.479.381.128.177.382.459.166.215.205.206.166.216.177.577.156.616.479,1.389.039.216.088.654.078.3.284.117.3.068.146.186.137.361.029.167-.049.157-.107.166-.068.166.029.147.244.2.234.039.216-.029.235.01.059.039.078.106.068.03.078-.02.205-.088.283.01.1.068.107.206.186-.186.439.324.273-.059.108.068.117.029.1-.02.068-.088h.01l.127.078.1-.029.078-.059.107.01.068.049L89,134l.412.256.127.156-.049.215.166-.01.146.01.147.049.117.118-.146.176.019.067.108.01.1.029.245.235.138.079.156.029.694-.274.343.176.371.1.343.127.245.293.156-.2.029-.039.332.1.382.216.323.088-.088.264v.137l.137.04h.322l.068.088.283.41.119.128.928.46.451.127.41.01.559-.156.234.049.107.322.117.049.244-.089.373-.194.166-.019.684.088.754-.108.9-.01.234.059.029.194.156.05,1.047.039.236.049.215.108.234.166.117.176.1.206.127.176.354.137.547.537.215.147.2.069.2.039h.254l.088.1.068.2.127.186.254.039.049-.05h0v-.078l.019-.059h.1l.08.068.039.089.059.088.117.029.234-.107v-.256l-.088-.3-.039-.236.039-.077h0l.273-.2.205.137.275-.088.068-.068.147-.147h0l.029-.215h0l.156-.039.576.02.783-.078.02-.117L108.56,138l-.039-.371-.108-.353-.156-.029-.127.089-.049.2-.01.233-.049.206-.078.147-.107.088-.285.136-.068.069-.01.059-.039.019-.127-.059-.068-.05-.039-.077-.059-.215V137.9l.127-.312.01-.235.176.078.117-.039.078-.118.039-.194-.146-.059-.146-.029h-.322l-.146-.019-.117-.06-.09-.059-.068-.02-.147-.147-.068-.352.01-.391.059-.275-.176-.264-.059-.118-.029-.156.049-.108.068-.088.039-.107-.078-.147-.1-.068-.078.01-.078.039-.107.029-.1-.118-.01-.282.059-.275.108-.126.068-.059-.049-.1-.088-.059-.049.069-.029.049-.059.068-.078.039h-.078l-.031-.088.109-.265-.01-.108-.078-.029-.256-.019-.088-.028-.068-.156-.02-.177-.059-.138-.215-.058h-.156l-.029-.049.029-.127.029-.372.049-.2.01-.118-.4-.127.314-.1.108-.1.059-.177.029.079.088.107.039.088-.088-.431-.283-.86-.137-.862-.3-.831-.088-.577-.068-.216-.1-.194-.147-.138-.2-.059h-.166l-.129-.029-.088-.167-.01-.175.02-.265.049-.254.08-.128.127.059.537.48.137-.265-.166-.165-.469-.2-.137-.157-.109-.184-.068-.235-.049-.558.02-.147.127-.059.656-.068.156-.118-.01-.226-.147-.322.127-.146-.078-.176-.117-.156.01-.079.186-.02.176-.068.146-.118.08-.155-.029-.167-.09-.205-.039-.176.107-.078.051-.1.01-.235-.01-.244-.029-.137.137-.059.078-.147.01-.175-.068-.167-.773.265-.225.156-.215.107h-.295l-.586-.128-.254-.1-.187-.117L102,121.69l-.293-.039-.588.059-.254-.068-.166-.245h.283l.273.059.285.03.273-.108.127-.175-.059-.138-.176-.049-.225.107-.029-.049-.019-.039-.02-.088.234-.127-.147-.275-.432-.41h.166l-.127-.274-.41-.392-.049-.313.371.234.3.294.967,1.33.039.117.01.118.041.078.156.029.127-.029.068-.059.01-.089-.049-.088.215-.322.108-.049.078.185.176-.165.1-.059.129-.059-.09-.176.139-.089.264-.273.225-.107-.039.255-.02.254.049.146.088.05.088-.02.02-.05.088.069h.049v.029l-.1.116-.078.049-.127.019-.234-.01.049.05.02.049.029.039.068.039-.137.138-.422.233.227.157.166-.059.244-.283.754-.333.127-.1.029-.294.449-1.369.156-.206.039-.137.031-.254.185-.587.342-.676.039-.107.019-.293.039-.147.059-.107.127-.177.107-.215.039-.205-.1-.166-1.047-.421-.186-.176-.312-.362.078-.108-.039-.126.088-.383-.068-.205-.088.118-.127.067h-.147l-.107-.077-.383.1-.264-.038-.215-.177-.2-.313.186-.077.049-.01.1.028.039.059.01.05.02.029.068.029.088.039.088.019.068-.019.029-.118.059-.049.324-.029.654.01.3-.087-.039.087-.01.049-.029.05-.078.078.295-.029.469-.215.264-.039.205.049.168.137.156.2.137.216-.244.01.01.1.3.03.254-.2.881-1.351.41-.782.02.039v.038l.019.019.049-.01.187-.4.078-.108.117-.126.02-.068-.01-.079-.02-.176.059-.519-.039-.147-.127-.1-.078.038-.039.029-.02.01.02.05.049.049-.188.234-.557.254-.117.216-.01.167-.059.176-.068.156-.088.1-.139.059v-.068l.051-.117V111.6l-.129-.185-.166-.138-.215-.088-.254-.029-.107-.118.215-.293.469-.5-.186-.059-.049-.127.039-.148.1-.106.137-.03.168.04.088.106-.068.128.313-.078.449-.206.4-.273.176-.284h.078l.078.186-.059.4.078.136-.029.069-.039.049-.039.039-.039.029.42.127.127-.059.156-.265.109-.273.059-.226-.039-.185-.158-.138.266-.431.156-.205.137-.01.019.2-.107.225-.059.235.166.244-.156.216-.1.216-.127.488.2-.1.371-.107.185-.138.393-.567.185-.215.41-.274.117-.165-.234-.489.039-.235.107-.235.059-.234-.176-.313-.352-.41-.234-.353.185-.176.156.088.244.166.225.1.088-.137-.039-.205-.088-.147-.293-.225-.1.049-.039-.078.039-.137.1-.1.088-.059.107.089.215.323.049.039.139.077.049.05.029.078.01.127.029.107.059.049.215.011.107.078.039.147.039.478.078.206.117.108.2-.068.207.157,1.242-.744.176-.059.391-.264.225-.059.822-.479-.049-.313-.342-.284-.441-.147-.352.107-.117.108-.2.117-.186.01-.088-.216.1-.029.605-.312-.107-.245-.059-.1-.088-.088-.078-.068-.244-.108-.344-.215-.147-.049-.107.127-.088.019-.107-.137v-.088l.049-.322.01-.138-.039-.127-.049-.1-.342-.441-.1-.2-.059-.234-.02-.322.137.067.059.04.049.068.146-.088.156-.02.156.03.137.107.1.117.039.088.02.1.059.176.02.107v.088l.01.078.061.089.059.019.156-.01.068.038.127.029.137-.038.117-.02.049.1.108.314.432-.314.107.245-.068.254-.166.06-.217.029-.176.176.363-.068.4-.177.656-.43-.4-.108-.156-.1.029-.186.039-.117-.029-.1-.049-.089-.01-.107.039-.049.078-.059.068-.078.029-.127-.039-.1-.088.04-.1.088-.088.029-.078-.1-.088-.2-.068-.234-.02-.2h.068l.049.108.215.332.049-.049.107-.068.068-.068.166.176.078.2-.029.186-.107.156.059.127.353.323.068.128.01.087.049.029.2-.067.225-.157.3-.391.236-.128-.068.186.254-.176.156-.078.176-.029h.234l.088.039-.049.138-.254.44-.049.157.059.087.234.03.168-.03.146-.059.166-.038.2.01v.1h-.068l-.176.157-.539.078-.2.117-.039.2h.254l.539-.176.674-.342.236-.06.147-.067.439-.274.225-.039.227.108.078.206-.039.205-.119.1-.244.068-1.633.91-.383.294-.264.352.342-.166.734-.489.656-.245.684-.587,1.184-.322.744-.411,1.33-.959-.41.059-.44.186-1.557.97-.039.039-.068.028-.088.01-.049-.019-.049-.079.01-.049.029-.059.01-.215.039-.118.01-.137-.078-.156,1.535-.636.432-.068.527.01.519-.049.508-.146.49-.255,1.291-.92.752-.6.207-.088.254-.039.127-.088.6-.567.6-.734.322-.2.8-.694.078-.166.019-.187-.019-.215-.117-.548-.019-.284.088-.3-.156-.332-.1-.107.205.1.186.02.147.068.107.244.314-.205.254-.215.725-.91v-.029l-.02-.117.01-.029.029-.01.1.01.039-.01.225-.185.1-.118.039-.166h.088l.186.137.168-.107.127-.265.039-.283.078-.265.205-.068.244.05.186.117.029-.059.029-.02.039-.01.039-.02-.518-.2-.156-.02-.127-.088-.344-.528v.068l-.019.01h-.019v.058l.049.039.01.1h-.293l-.059-.177-.019-.215-.205-.128v-.1l.166-.059.156-.088.127-.137.078-.185-.859-.226-.393-.225.078-.352.117-.137.158-.235.059-.225-.393-.186-.068-.215.049-.244.205-.167-.059-.117-.068-.049h-.225l-.127-.02-.1-.078-.186-.2.059-.068.684-.01.373.206.351.293.361.148.353-.265.166-.45.1-.421.078-.127.2-.127.412-.2.254-.157.1-.029.088.049.059.245.1.059.225.039.049.137.02.206.088.234-.078.294-.117.636-.137.479-.176.439-.137.206-.117.059-.166.039-.127.049-.012.107.09.107.117.05h.137l.6-.107,1.654-.578h.205l.185.068.186.167.236.068.166-.137.1-.1.02.186-.068.234-.137.117-.207.039-.566-.01-.107.04-.127.088-.324.381-.088.059-.107.069-.127.049-.273.059-.283.166-.891.959-.088.176.049.127.273.04.234-.118.559-.743.4-.322,3.57-1.84,1.342-.587.938-.6.334-.177.469-.166.254-.049,1.391-.039.342.068.127-.01.166-.244-.205-.392-.664-.694-.295-.47.068-.479.822-1.34.1-.245.029-.244.137-.069.295-.029.225.01h0l.205-.42.627-.8-.09-.156.01-.117.129-.274.059-.3-.02-.206-.049-.185-.039-.245-.029-.088-.129-.186-.029-.127.01-.157.1-.264.02-.127-.068-.294-.176-.186-.186-.147-.088-.2-.078-.577.029-.254.137-.3.264-.361.068-.187.02-.244-.02-.1-.156-.392v-.01l-.019-.255-.039-.068-.088-.049-.039-.059-.01-.264.088-.235.156-.176.225-.078.012-.139.127-.664.088-.215.361-.323.1-.2L146.9,74l.363-.783.058-.225.01-.117-.01-.157-.019-.147-.07-.244-.019-.147.029-.137.1-.117.156-.166.068-.138.01-.059-.1-.166-.088-.1-.2-.265-.117-.293.156-.148.109-.028.3-.107.078-.068.039-.137Z"/></svg>