<svg xmlns="http://www.w3.org/2000/svg" viewBox="0 0 84.18 46.504"><defs>
  <style>.a{stroke:#fff;stroke-linecap:round;stroke-linejoin:round;stroke-width:0.25px;}
    path.state {
      fill:rgb(80,80,80,100)
    }
    path.state.active {
      fill:red;
    }
  </style></defs><title>va</title><path class="a state active" d="M81.08,31.891l-.146.147.1.127v.02l.166-.039.186-.039-.137-.332Zm-.842-8.727-.078.01.02.088.344-.107.117-.225-.01-.334-.1-.43-.07.02-.039.244.01.284-.029.274Zm.969-2.76.059-.293v-.3l-.078.02-.059.156-.156.733v.069l.02.1.068-.02Zm1.252-8.314-.283.1-.44.166-.5.176-.332.127-.432.156-.244.089-.049.078-.039.206-.039.205.108.029-.1.166-.156.1-.312.137-.215.206-.207.255.02.078.246-.1H79.8l.215.107.078.176-.049.117.029.107.068.107.117.1-.107.05-.244.01-.068.029-.039.146.039.148.078.127.117.088-.586.215-.129-.029-.137-.068-.117.01-.078.185.254.166.039.167-.1.2-.176.215.02.1.215-.049.039.068-.273.479.01.108.107.186-.234.059-.185.078-.127.146-.068.225.205.156-.107.1-.2.107-.158.156.148.069.01.107-.078.137-.119.146.461.088-.2.186-.168.236-.088.313.049.371.2-.147.107.049.02.146-.254.206-.08.205-.029.245.019.225.08-.02v-.088l.039-.02h.059l.02-.019.019.127-.039.176-.078.176-.148.128.088.156-.01.255-.1.508.088-.059.049-.02.148.02-.137.2-.1.323.049.3.266.186.02.078-.02.186.352.343.137.244.117.273.156.059.148-.1.088-.215v-.117l-.049-.47.02-.138.068-.156.088-.078.049.039.078.558.107.138.225-.177-.088-.127-.107-.274-.068-.1.049-.254V22.86l-.166-1.174V21.53l.029-.157.146-.352.049-.176v-.1l-.039-.1-.068-.205.01-.167.137-.312.029-.107.107-.117.764-.313-.107-.118-.146-.029-.158.01-.146-.02.049-.205.129-.234.146-.117.1.146.1.215.127.127.146.1.117.138.166-.245.146-.313.119-.343.049-.313-.187-.068-.029-.342.059-.421.109-.421.019-.488.469-1.85.293-.519.029-.216-.156-.234.166-.107.01-.078-.068-.078-.059-.146-.078-.313-.029-.206.02-.156.117-.156.147-.107.107-.137-.01-.167Zm1.5-.559-.068.029-.02.078-.178.353-.127.333-.039.166-.049.45-.039.117-.029.147-.068.1-.107.068-.127.039-.019.059.088.088.185.166-.078.068-.1.059-.108.029-.117.02.029.1.322-.1.234-.322.147-.43.363-1.654ZM80.16,28.9l-.439-1.018-.264-.293-.256.029-.264.156-.332.078-.451-.078-.537.068-1.066-.166-.352.078-.168.294.068.2.129.049.068.06-.1.254v.146l.127.147.244.225-.176.011-.2-.069-.139-.127-.01-.156-.254-.088-.293-.02-.293.049-.266.107-.2.176-.166.206-.2.176-.264.089-.029-.1.254-.274.107-.176.039-.137-.1-.156-.127-.127-.049-.127.146-.157-.01-.088-.715-.216-.166-.1-.088-.029-.088-.02-.146.02-.068-.039v-.078l.02-.029.088-.1-.019-.078-.656-.039-.185-.059-.108-.167-.176-.782-.3-.725-.1-.117-.127.088-.215.411-.2.079-.215-.1-.432-.323-.156-.049-.959.2-.215-.04-.449-.205-.246-.01-.107-.1-.1-.244-.146-.226-.244-.049-.078.069-.254.322-.107.088-.109-.068-.107-.107-.068-.059-.891.185-.723-.117-.107.059-.049-.029-.107-.01-.119-.039-.068-.166.226-.323.205.176.166.039.43-.107.068.02.207.078h.117l.1-.029.2-.127.127-.078.1-.03.088.03.127.078.049.078.109.147.107.117.02-.068.049-.1.264-.333.1-.078.147.01.107.078.4.441.146.205.156.107.234-.078.166-.2.088-.148.019-.137-.078-.343.01-.137.088-.117.088.225.049.294.07.245.156.078.156.01.42.1.185.01.088.029.08.1.059.127.068.088.117.049.039-.078.01-.137.039-.1.186-.1.42-.127.129-.118.254.118.225.244.146.322-.019.382.088.079.166.146.256.186.264.127.186-.049,1.086.606.166.157.225.478.156.02.148-.117.234-.312.127-.117.176-.069.254-.068.176-.108.1-.226.029-.273-.01-.273-.09-.362-.127-.06-.4.2L75.377,26l.1-.186.205-.205.107-.078-.107-.176-.244-.147-.342-.137-.01.156-.119-.01-.147-.088-.1-.108-.029-.117-.02-.167v-.146l.02-.029-.156-.137-.186.029-.422.176-.225-.01-.273-.059-.479-.186-.8-.44-.754-.587L71.082,23l-.185-.177-.373-.137-.6-.675-.107-.039-.127-.01-.107-.029-.061-.078-.02-.138v-.137l.029-.1.09-.059.635.412.432.518.264.234.254.069.186.078.842.88.088.049h.137l.107.02.137.157.324.05.459.215.215.029.783-.362.029-.089-.088-.156-.127-.156-.108-.078-.1-.01-.324.1-.02-.078.275-.176.039-.039-.039-.117-.068-.039-.08-.01-.322-.147-.068-.1.02-.147.078-.1.107-.029.117.01.117.029-.059-.1-.068-.107-.1-.078-.127-.01.068-.343.225.128.441.508.2.019.137-.1.117-.049.068.2.539.441.127.146.059-.01-.049-.392.088-.753-.078-.4-.137-.206-.117-.019-.127.019-.119-.059-.029-.137.07-.156.117-.137.1-.088-.02-.079-.353-.234-.156.01v.284l-.068.156-.244-.049-.4-.186H73.8l-.186-.068-.02-.108.254-.157.471-.146.166-.107.147-.185-.449-.049-.441.049-.41-.049L73.01,19.5l-.137.107-.217.05H72l-.185-.06-.168-.117-.205-.255-.146-.215-.039-.1-.02-.019-.137-.362-.088-.078-.342-.226-.119-.039-.478.01-.019-.039-.02-.176-.02-.039-.049-.01-.039.019-.039.01-.137-.068-.256-.029-.059-.049-.127-.146-.059-.02-.107-.078-.332-.382-.078-.128-.078-.234-.1-.1-.353-.059-.147-.049-.186-.107-.176-.137-.156-.265-.117-.05-.129-.029-.117-.059-.127-.108-.039-.068-.244-.7-.059-.068-.234-.167-.059-.059-.137-.1-.764-.029-.117-.068-.088-.088-.068-.117-.039-.166-.061-.089-.078.01-.117.089-.351.02-.2-.039-.108-.128.059-.146.2-.02.479.02.168.049.156.156.147.187.127.137.1-.039H66.2l.178.059.146.1.264.264.439.637.108.068.471.225.225.382.7.2.234.372.508.538.158.1.147.039.137-.049.1-.156.029.2.078.108.1.059.107.029.1-.148.078.05.068.117.068.088.363.176.059.068.137.234.459.383.168.186.029.146.127.225.156.127.156-.059.01-.488.059-.2.176.177.049.107.117.147.1.088.039.01.041-.078.127.059.137.107.059.059.606.088.3-.01.137-.215-.137.039-.059-.078-.188-.166-.058-.117.029-.1.078-.068.041-.089-.1-.166.109.02h.127L74.2,18.3l.078-.079-.049-.146-.383-.2-.117-.137.01-.059.068-.01h.078l.039-.029.041-.187v-.137l-.019-.117-.08-.186-.3-.381-.127-.234.078-.138.176.049.4.274.186-.02.068-.2-.019-.313-.127-.537L74.1,15.4l-.207-.1-.234-.069-1.018-.156-.43-.177-.539-.078-.127-.049.078-.029.059-.068.059-.029-.107-.078-.117-.059-.127-.039h-.127l-.352.156-.059-.02-.049-.176-.02-.049.1-.156-.01-.176-.176-.139-.4-.166-.283-.176-.059-.049-.039-.273-.049-.088-.1-.019-.117.049-.2.107-.117.029-.088-.02-.088-.049-.1-.039h-.117l-.088.1-.2.2-.236.117-.146-.117-.1-.146-.176-.068-.205.01-.215.029-.422.01-.547-.078-.441-.137-.2-.294.01-.079.01-.078-.029-.1-.1-.088-.107-.039-.107-.029-.088-.039-.559-.392-.059-.01-.107-.059-.078-.068.059-.049.185-.029.088-.029.059-.06.06-.2-.051-.215-.1-.2-.107-.117-.264-.089-.225.157-.225.244-.461.264-.293.313-.176.1-.646.226-.459-.039-.49.049-.02-.088.107-.049.344-.05.1-.068-.039-.1-.156-.128-.107-.117-.432-.293-.147-.137.137-.117.147.059.256.225-.187-.46v-.577l.059-.509-.029-.245-.02-.1.078-.049.168-.176-.068-.049-.061-.078-.059-.02.107-.166.08-.216.029-.235-.01-.205L62,8.029l.117-.137.146-.029.088.107.059.205.068.088.107-.029.156-.117L62.853,8l.078-.146-.02-.127-.186-.06-.1-.117L62.6,7.394l.078-.147.166-.068.01.176.068.079.08-.02.01-.255.078-.039.107-.01.1-.068.166-.176.156-.088.088-.137-.029-.323L63.4,5l-.029-.059L63.295,4.8l-.049-.068L62.992,4.5H63l-.119-.108-.459-.234-.059-.05-.156-.137L62.082,3.9l-.324.01-.371-.049H61.24l-.156-.039-.1-.156-.088-.2L60.8,3.3l-.275-.185-.322-.1-.342-.029-.91.1-.273-.079-.432-.293-.186-.107-.166-.137-.1-.185.029-.235L58.1,1.69l.107-.225L58.2,1.2l-.156-.177L57.826.976,57.582.956,57.365.867,57.1.584,56.975.506,56.5.486,56.025.408h-.2l-.508.107L55.105.457,55.1.516l-.039.167-.107.558-.1.43-.127.637-.088.41-.039.176-.029.167-.1-.06-.127-.058L53.678,2.6l-.656-.342-.664-.344-.666-.332-.664-.342L50.371.9,49.705.555,49.051.213,48.865.125l-.129.1-.1.254-.029.137V.721l.029.127.139.373.029.127.01.156v.078l-.02.146L48.7,2l-.225.5-.02.059-.01.068v.059l.01.059.02.059.02.05.039.136.01.069v.078l-.029.216V3.52l.019.068.02.059.078.176.02.059.01.069L48.648,4l-.039.078-.244.471-.342.391-.312.558-.109.3-.01.059v.049l.019.039.02.049v.049L47.6,6.16l-.2.382-.059.069-.078.078-.147.088-.107.039-.078.049-.049.059-.039.117-.059.254-.059.118-.039.068-.068.068-.217.147-.078.039-.059.019-.059-.01-.049-.019-.039-.039-.039-.05L46.047,7.6l-.039-.02-.049.01-.049.039-.166.382-.225.519-.275.606-.205.489-.049.068-.049.059-.078-.01-.4-.176-.5-.226-.342-.146-.049.01-.049.059-.314.656-.059.127-.02.117v.068l-.02.078-.029.1-.127.284-.029.117-.01.078.039.743-.01.059-.039.06-.068.078-.137.127-.088.1-.088.127-.059.166-.029.1-.01.088-.02.44-.01.039v.108l-.068.469-.029.147-.049.127-.139.284-.186.392-.264.567-.039.049-.049.039-.078.01-.676-.088-.566-.068-.5-.069-.508-.068-.029-.01-.02-.01.01-.049.02-.107v-.088l-.01-.019-.039-.059-.529-.636-.039-.04-.039-.019-.029-.01-.91-.156-.068.01-.049.068-.039.107-.029.235.01.128.01.1.019.068.01.078-.01.068-.029.107-.137.3V15.2l.088.538-.01.078-.029.088-.127.245-.029.127-.039.4-.029.078-.1.088-.176.107L36.832,17l-.02.078-.02.128-.039.117-.08.147-.039.1.01.127.029.078.06.117.029.059.02.059-.02.088-.029.088L36.6,18.4l-.205.2-.078.107-.176.313-.4.528-.019.068-.01.069.02.107.049.117v.088l-.1.764-.158.508-.225.725-.254.43-.449.744-.354.567-.283.479-.352.566-.01.05-.029.313-.02.1-.2.6-.254.764-.02.137.02.049.02.029.02.02.156.1.117.06.334.1.049.039.049.068.029.118-.01.078-.02.068-.088.108-.186.166-.158.117-.059.049-.068.078-.088.128-.029.1-.01.088.01.06.019.059.029.049.049.039.137.059.051.049.02.137-.02.078-.041.068-1.135.93-.264.332-.049.059-.059.03-.049.01h-.059l-.049-.02L31.7,30.2l-.039-.049-.029-.059-.01-.068-.02-.107-.019-.049-.02-.049-.049-.039-.107-.01-.078.01-.236.068-.234.127-.391.274L30,30.57l-.42.361-.42.361-.039.03-.078.039H29l-.039-.01-.029-.029-.029-.05-.039-.039-.049-.029-.049-.01-.2-.01-.049-.02-.029-.039-.02-.107-.019-.029-.039-.02-.039-.01-.3-.01-.088.01-.1.029-.137.078-.068.068-.049.059-.029.078-.01.069-.01.078.01.068.01.068.029.069.205.244.019.068v.1l-.039.146-.049.078-.039.068-.615.52-.068.029H26.99l-.178-.1h-.078l-.1.029-.264.2-.088.039-1.047.322-.773.588L24.357,34l-.029-.01-.029-.02-.029-.039-.059-.078-.029-.049-.049-.029-.1-.059-.607-.255-.049-.029-.078-.059-.254-.254L23,33.084l-.068-.029h-.088l-.137.029-.078.068-.039.059-.02.059-.039.226-.029.1-.039.117-.1.167-.078.078L22.215,34l-.4.117-.156.068-.078.059-.059.059-.441.666-.068.068-.068.049-.244.059-.646.049-.127-.02-.293-.147-.4-.127-.059-.029-.1-.079L18.9,34.61l-.049-.039-.049-.04-.068-.029-.059-.019-.1-.02-.234.01-.137.029-.139.01-.039-.01-.137-.049-.107-.078-.039-.039-.039-.049-.137-.225-.039-.049-.049-.049-.107-.068-.559-.265-.049-.039-.039-.049-.039-.059-.01-.069-.019-.068-.01-.322-.01-.068-.01-.068L16.6,32.82l-.029-.059-.029-.049-.039-.04-.049-.029-.41-.176-.049-.039-.029-.05-.01-.059.019-.068.02-.049.225-.234v-.01l.01-.029v-.059l.01-.068-.02-.078-.02-.059-.039-.059-.039-.04-.108-.078-.5.587-.773.891-.547.646-.861,1-.783.9-.225.206-.693.489-.764.538-1.018.714-.449.431-.168.215-.068.138.01.088.068.2.059.283v.157l-.02.078-.029.059-.029.059-.1.089-.85.6-.227.226-.088.127-.039.118.029.205.02.068L8,40.734l.01.2V41l-.019.068-.01.069-.029.059-.039.059-.146.107-.6.343-.607.351-.449.078-.068.029-.051.04-.176.254-.137.45-.049.127-.107.156-.02.049v.05l.039.117.01.068-.01.059-.059.059-.078.059-1.047.332L3.334,44.5l-.381.294-.117.137-.068.059-.109.049-1,.254-.871.481-.068.019-.2.127-.4.459,1.1-.156,1.1-.156,2.191-.322,1.1-.157,1.1-.167,1.1-.166,1.1-.166,1.1-.166,1.1-.166,1.1-.167,1.1-.166,1.086-.177,1.1-.166,1.1-.176,1.1-.166.51-.088.078-.049.2-.235.088-.039.088-.02.725-.089.889-.117.988-.127.088.137.049.029.08.01.234-.039,1.828-.293,1.84-.283,1.83-.3,1.828-.3,1.84-.293,1.83-.3,1.828-.313,1.83-.312,1.83-.312,1.828-.314,1.83-.323,1.83-.322,1.83-.323,1.828-.333,1.83-.332,1.83-.333,1.818-.333,1.83-.342,1.82-.342,1.828-.343,1.83-.353,1.82-.351,1.818-.353,1.83-.362,1.82-.361,1.818-.362L71,34.248l1.828-.371,1.82-.372,1.82-.372,1.818-.371,1.537-.333.273-.06-.059-.107-.068-.088-.068-.1-.049-.176.439.43.48-.1-.019-.02-.234-.684-.148-1.351.02-.146.119-.01.137.059.088.059.1.128.42.86.068.078.156.138.068.088.029.156-.01.147.02.146.09.156.137-.029.146-.029-.225-.509Z"/></svg>
