<svg xmlns="http://www.w3.org/2000/svg" viewBox="0 0 18.562 32.612"><defs>
  <style>.a{stroke:#fff;stroke-linecap:round;stroke-linejoin:round;stroke-width:0.25px;}
    polygon.state {
      fill:rgb(80,80,80,100)
    }
    polygon.state.active {
      fill:red;
    }
  </style></defs><title>vt</title>
  <polygon class="a state active" points="2.119 4.145 1.65 4.263 1.514 4.302 0.711 4.508 0.359 4.595 0.359 4.586 0.125 4.742 0.232 4.918 0.281 5.036 0.301 5.153 0.271 5.29 0.223 5.339 0.174 5.349 0.144 5.378 0.164 5.573 0.252 6.024 0.223 6.386 0.242 6.62 0.291 6.846 0.369 6.983 0.535 7.08 0.652 7.188 0.682 7.345 0.623 7.599 0.564 7.667 0.506 7.677 0.447 7.706 0.408 7.834 0.418 7.99 0.447 8.029 0.516 8.059 0.672 8.196 0.74 8.245 0.799 8.323 0.828 8.45 0.799 8.548 0.73 8.548 0.672 8.499 0.535 8.313 0.418 8.313 0.34 8.44 0.35 8.704 0.476 9.027 0.486 9.214 0.369 9.37 0.457 9.468 0.516 9.565 0.545 9.683 0.545 9.78 0.603 9.77 0.633 9.936 0.73 10.191 0.857 10.407 0.955 10.495 1.18 10.524 1.279 10.69 1.26 10.905 1.131 11.092 1.367 11.347 1.455 11.503 1.455 11.679 1.426 11.845 1.435 12.02 1.484 12.187 1.582 12.334 1.533 12.118 1.523 11.835 1.562 11.61 1.67 11.581 1.719 11.718 1.865 12.402 1.904 12.442 1.963 12.5 2.031 12.589 2.207 12.999 2.326 13.351 2.394 13.518 2.492 13.645 2.629 13.792 2.139 14.663 1.924 14.868 2.119 15.278 2.1 16.619 2.275 17.128 2.305 16.991 2.394 16.863 2.463 16.835 2.551 16.903 2.56 16.923 2.59 17.069 2.6 17.323 2.766 17.979 2.863 18.194 3 18.399 3.166 18.565 3.254 18.683 3.312 18.82 3.322 18.977 3.293 19.231 3.303 19.378 3.381 19.505 3.646 19.671 3.744 19.768 3.783 19.877 3.871 20.268 3.91 20.2 3.91 20.298 3.715 21.657 3.715 21.775 3.734 21.921 3.803 22.195 3.861 22.343 3.939 22.47 4.037 22.577 4.066 22.606 4.096 22.606 4.125 22.587 4.223 22.518 4.31 22.411 4.34 22.352 4.369 22.294 4.379 22.215 4.369 21.98 4.379 21.911 4.408 21.843 4.447 21.794 4.496 21.755 4.557 21.716 4.625 21.696 4.693 21.677 4.85 21.677 4.928 21.686 4.996 21.735 5.055 21.794 5.299 22.205 5.406 22.294 5.465 22.313 5.572 22.382 5.672 22.46 5.73 22.733 5.75 22.831 5.809 23.086 5.896 23.497 6.014 24.024 6.16 24.642 6.316 25.336 6.482 26.079 6.826 27.615 6.992 28.358 7.148 29.063 7.285 29.681 7.402 30.208 7.49 30.618 7.549 30.883 7.578 30.971 7.598 31.108 7.627 31.323 7.627 31.792 7.873 32.175 8.078 32.487 9.506 32.184 9.986 32.086 10.465 31.988 10.943 31.891 11.414 31.782 11.893 31.684 12.373 31.588 12.842 31.479 13.322 31.382 13.801 31.284 14.279 31.177 14.75 31.079 15.228 30.971 15.709 30.873 15.709 30.863 15.553 30.521 15.297 30.306 14.779 30.003 14.662 29.885 14.584 29.777 14.506 29.642 14.437 29.454 14.389 29.229 14.398 29.063 14.428 28.917 14.457 28.721 14.389 28.163 14.398 27.929 14.545 27.792 14.75 27.654 14.789 27.419 14.682 26.843 14.672 26.099 14.623 25.806 14.486 25.492 14.447 25.346 14.369 24.817 14.418 24.729 14.447 24.661 14.447 24.583 14.428 24.505 14.389 24.476 14.357 24.456 14.338 24.426 14.318 24.26 14.328 24.122 14.369 23.985 14.437 23.849 14.496 23.585 14.447 23.301 14.289 22.831 13.82 20.689 13.791 20.347 13.84 20.142 14.094 19.759 14.172 19.505 14.191 19.241 14.143 18.703 14.064 18.263 14.094 18.116 14.299 17.851 14.379 17.656 14.76 17.089 14.818 16.863 14.828 16.6 14.818 16.315 14.769 16.042 14.76 15.768 14.828 15.475 15.228 14.467 15.228 14.369 15.15 14.319 15.043 14.261 14.975 14.163 14.984 13.958 15.209 13.155 15.238 12.726 15.17 12.235 14.887 11.149 14.799 10.495 14.887 9.996 15.17 9.643 15.621 9.429 16.09 9.331 16.305 9.232 16.451 9.066 16.668 8.606 16.775 8.44 17.469 7.726 17.695 7.569 17.744 7.433 17.842 7.13 18.096 6.786 18.213 6.522 18.164 6.298 18.086 6.083 18.086 5.828 18.164 5.74 18.281 5.71 18.389 5.662 18.437 5.515 18.408 5.397 18.31 5.28 18.144 5.143 17.676 4.508 17.586 4.331 17.459 4.126 17.283 3.999 17.146 3.822 17.098 3.499 17.215 3.001 17.498 2.286 17.764 1.611 17.773 1.289 17.635 1.112 17.459 0.966 17.322 0.692 17.264 0.359 17.322 0.213 17.469 0.125 16.539 0.369 15.611 0.624 14.682 0.868 13.752 1.122 12.822 1.366 11.893 1.611 10.963 1.856 10.035 2.101 9.105 2.346 8.166 2.591 7.236 2.835 6.307 3.069 4.447 3.559 3.51 3.793 2.648 4.009 2.58 4.028 2.275 4.106 2.119 4.145"/></svg>
