<svg xmlns="http://www.w3.org/2000/svg" viewBox="0 0 72.869 56.366"><defs><style>.a{stroke:#fff;stroke-linecap:round;stroke-linejoin:round;stroke-width:0.25px;}</style></defs><title>wy</title><path class="a" d="M71.894,30.375l-.049,1.613-.059,1.606-.049,1.613-.059,1.614-.059,1.614-.049,1.615-.059,1.613-.049,1.624L71.4,44.9l-.049,1.614L71.3,48.141l-.049,1.614-.059,1.624L71.141,53l-.059,1.624-.058,1.614-1.586-.058-1.584-.06-1.585-.059L64.674,56l-1.585-.068L61.5,55.859l-1.585-.078-1.585-.068-1.584-.078-1.586-.078-1.584-.088L52,55.391,50.4,55.3l-1.585-.088-1.585-.088-1.585-.1-1.585-.089-1.584-.1-1.586-.1-1.584-.108-1.586-.1-1.584-.107-1.585-.108-1.585-.118L31.382,54.1l-1.575-.116-1.584-.119-1.586-.117-1.584-.117L23.467,53.5l-1.584-.127L20.3,53.248l-1.253-.107-1.271-.108-1.252-.107-1.271-.108L14,52.709,12.735,52.6l-1.262-.117-1.263-.107L8.949,52.26l-1.262-.117-1.262-.118L5.163,51.9,3.9,51.78l-1.253-.128-1.262-.116L.125,51.408h0L.2,50.6l.078-.8.078-.812.088-.8.079-.812.078-.8.088-.811.078-.8.079-.8.078-.812.078-.8.088-.8.078-.811.078-.8.078-.8.088-.8.2-2.015.2-2.006.206-2,.205-2.006.2-2.006.2-2.006.206-2,.2-2,.205-2.006.2-2,.2-2,.206-2,.2-2,.2-1.986.205-2,.2-1.985.039-.381.039-.393.039-.391.039-.383L4.8,4.576l.039-.382.039-.382.04-.391.039-.382L5,2.649l.039-.382.039-.392.039-.382L5.153,1.1l.04-.381L5.232.33l.02-.205L5.74.174,6.777.281l1.047.1L8.871.487l1.047.1,1.047.1L12,.78l1.047.1,1.047.1,1.047.1,1.047.088,1.047.1,1.046.088,1.037.1,1.047.089,1.047.087,1.047.088,1.046.09,1.047.087,1.047.088,1.047.079,1.047.088,1.047.078,1.047.078,1.047.088,1.047.078,1.047.078,1.047.069,1.047.077,1.047.078,1.047.068,1.047.08,1.047.067,1.047.068,1.046.068,1.047.069,1.047.068,1.047.068,1.047.068,1.057.059,1.046.068,1.037.059,1.057.068,1.047.06,1.047.059,1.047.058,1.047.059,1.047.049,1.057.061,1.047.058L58.07,4.1l1.047.049,1.047.059,1.047.05,1.057.049,1.047.049,1.047.039,1.046.049,1.047.049,1.047.039,1.057.049,1.047.039,1.047.039,1.047.039,1.046.039L72.7,6.327l-.059,1.595-.049,1.6-.049,1.595-.059,1.6-.049,1.6-.059,1.6-.049,1.595-.049,1.6-.059,1.605-.049,1.6-.059,1.6-.049,1.614L72,27.156l-.05,1.6-.059,1.615Z"/></svg>