<svg xmlns="http://www.w3.org/2000/svg" viewBox="0 0 92.852 137.121"><title>ca</title><path d="M43.428,129.03l-.313-.606-.46-.489-.186-.264-.1-.382-.049-.1-.049-.136-.039-.157v-.127l-.029-.118-.118-.058-.147-.049-.118-.088-.078.3.117.362.147.352.108.527.323.647.118.5.206.243.245.206.2.118.108.029.078-.02.078-.029.079-.01.3.059h.137l.137-.049-.44-.48Zm-10.644-7.171-.323-.2-.039-.059-.157-.148-.117.069-.137.029-.137-.02-.137-.089.059.4.215.323.323.234.391.137.381-.059-.049-.283Zm12.317.226-.871-.519-.176-.079-.645-.567-.274-.117-.264-.01-.117.167.1.186.225.186.264.137.206.069.274.117.068.205-.068.548.01.3.059.244.127.177.235.088.108-.01.293-.078.117-.01.137.059.333.293.2.068.186-.039.078-.176-.479-1.058ZM28.42,111.273l-.078-.312.078-.332-.2.108-.2.039-.656-.078-.137.029-.127.049-.176.029-.235-.049-.431-.166-.225.049.176.225.186.332.156.343.039.255.078.147.2.205.245.156h.2l.127-.068.107.01.118.049.176.058.118-.01.636-.283.156-.117.118-.186.078-.3-.323.02Zm-2.944-1.164-.088-.088-.107-.078-.118-.068-.059-.107-.049-.127-.1-.117-.088.234-.156.059-.333-.039-.225.117-.059.127.088.049.166-.117.284.2.274.108.665.107-.039-.137Zm8.12,1.311-.078-.049-.127-.039-.176.068-.479.284-.088.02H32.52l-.861-.6-.215-.059-.459-.059-.186-.068-.518-.42-.294-.069H29.9l-.079.029-.127.079-.078.068.059.059.176.068.118.127.1.156.079.186-.2.313.215.3.42.244.372.117,2.465-.059.274-.078.137-.137.039-.186-.029-.029Zm59.226,5.635.02-.176-.313-.273-.107-.157-.1-.1-.176-.127-.812-.773-.137-.215-.049-.049-.2-.176-.039-.05-.079-.108-.039-.039-.039-.02-.049-.02-.147-.019-.059-.029-.049-.068-.039-.088-.01-.167v-.117l.01-.01.078-.2.078-.175-.088-.147-.02-.011-.019-.274-.1-.147-.127-.127-.107-.234v-.088l.059-.3v-.107l-.039-.068-.039-.06-.509-1.535-.284-.088-.205-.166-.108-.265.03-.372-.02-.166-.059-.215-.1-.2-.147-.1-.156-.078-.059-.167.088-1.545.01-.1-1.751-2.123L85.094,103.1l-1.8-2.221-1.673-2.113-1.478-1.879L78.667,95,77.2,93.107l-1.457-1.879L74.284,89.34l-1.458-1.9-1.448-1.888L69.94,83.666l-1.663-2.084L66.633,79.5,64.99,77.414,63.366,75.32l-1.634-2.084-1.624-2.093L58.494,69.05l-1.6-2.094-2.074-2.515-2.064-2.514L50.7,59.4l-2.045-2.524-2.035-2.523-2.025-2.533-2.015-2.535-2.005-2.533.029-.176.137-.715.431-2.357.42-2.348.431-2.348.431-2.349.43-2.349.431-2.348.43-2.348.421-2.348.43-2.338.431-2.338.42-2.349.431-2.339.431-2.338.42-2.328.431-2.338.42-2.328L45,7.895,42.43,7.416l-2.563-.481-2.563-.5L34.73,5.948l-2.563-.509L29.6,4.932l-2.564-.52-2.563-.519-2.563-.528-2.563-.528L16.8,2.3l-2.563-.548-2.554-.558L9.128.636,6.574.078,6.525.059,6.251,0l.059.255.01.136-.01.148-.3,1.153-.127.2-.342.43L5.195,2.6l-.019.078.3.205.411.46.3.51-.049.361-.059.2.059.332.049.313.059.138.02.078-.078.332-.019.128.029.126.059.118.079.1.1.079-.186.2-.029.41-.01.8L6.1,7.935l-.362.685-.225.646-.411.81-.284.4-.215.45-.205.156-.069.2-.039.235.01.177-.059.176.215.567.039.294-.078.283L3.415,14.773l-.6.586-.166.255.206-.059.215-.186.616-.675.059-.029.4.137.117-.028.078.1.039.02-.225.254-.206.068-.225-.01-.284.039-.176.127-.362.45-.137.088-.137.5-.137.225-.206-.156-.118-.156.02-.049.108-.244.059-.088-.381.322-.245.273-.215.362.01.04.02.067.01.059-.049.01H1.468l-.039.029-.039.039-.049.137-.391.439-.117.167-.176.323-.166.322-.068.205-.088.177-.147.2-.107.185-.01.176.1.3.118.832v.332L.04,21.5l-.04.3.127.176.127.107,1.066,1.459L1.8,24l.147.215.264.646.01.1-.04.293.02.117.068.061.225.136.078.068L2.828,26l.978,2.377.01.225-.078.568.039.313.039.176.049.088.107.069L4,29.937l.02.138.029.137.019.215-.225.891.117.8-.059.108-.176.088-.166.254-.245.538-.293.86-.254.421.1.5-.059.225.068.108.039.2.029.362v.606l.039.294.137.147.186.959-.01.137-.108.43-.01.128.039.284V38.9l-.117.312-.137.147-.166.087-.186.2-.039.392.2.488.538.92.45.548.059.157.049.205.176.244.323.353.245.382,1.233,2.65.274.372,1.1.9.235.392.1.812.206.3L7.6,49.4l.079.225.01-.088.068-.265.509.529.137.244.019.107V50.4l.02.118.215.4.313.881.313.576.108.3V53L9.265,52.7l-.215-.284-.176-.312-.02-.362-.068-.235-.421-.654L8.2,50.638l.147.821-.039.353L7.7,53.006l-.392.449-.107.186.274.079h.078l.088-.04.019-.029.01-.029.157-.147.078-.1.108-.1.166-.078-.068-.059-.029-.059-.068-.2.1-.011.078-.039.079-.059.078-.088.107.421.235.312.587.46.049.059.107.138.078.176.029.361.1.137.225.178.108.147.176.41.117.088.127-.059.088-.166v-.205l.469.6.235.392.3.313.118.166.156.176.225.127.235.03.176-.118.029-.225-.078-.205-.04-.166.166-.128.049.216.118.107.107-.049.02-.205-.078-.206-.264-.333-.108-.2.079-.02.107-.078.068-.029-.078-.156.039-.138.127-.1.313-.039-.078-.138L12.66,54.5l-.029-.254.146-.744.02-.342.4.068.274-.01.235-.146.265-.313.958.831.137.255.02.127.088.128.137.1.314.127.479.332.205.039h.137l.137-.059.431-.264.078-.068.068-.1.118-.245.049-.068.117-.068.206-.059.206-.039.156.029.147.166-.02.167-.274.371.44.234.509.138-.117.137-.059.049-.088.039.118.069.166.02.2-.01.166-.029.039-.138h.127l.352.138.137.02h.4l.235-.079.274-.215.411-.45.058.02-.107.283-.137.226-.186.167-.225.107-.118.02H20.34l-.127.01-.107.068-.049.107-.01.117.029.088.078.059.47.01.264-.039.127-.117.039-.176.049-.088.176-.147.079-.029.059.039.059.049.078.039.059-.01.1-.1.049-.02.245.039.166.088.127.107.587.733.166.1.088.118.137.244.1.244-.02.1-.157-.107-.176-.205-.157-.244-.059-.2h-.186l-.215-.156-.3-.352-.029-.088v-.108l-.02-.107-.1-.088-.108-.01-.1.039-.078.059-.069.02-.225-.059-.118.02-.068.1-.029.107-.049.127-.049.107L21,55.734l-.1-.01-.118.029-.1.059-.049.079.049.039.284.156-.225.069-.215-.069-.381-.245-1.223-.381-.46-.264-1.223-.4-.244.02-.538.215-.254.02-.2-.107-.323-.392-.205-.107-.235-.01-.176.068-.587.392-.117.029-.147-.01-.1-.049L14.04,54.8l-.079-.01-.146.273-.157.177-.2.127h-.176l.186.5.372.273.294.313-.029.636-.235.45-.068.283.167.156.2.079.489.314.176.156-.46.088.059.029.137.107-.108.176.079.049.284.01.107.107.039.118.1.538.137,1.575.078.3.127.215.254.049.059.039.039.068.039.117v.068l-.029.078-.02.078.029.039.078.03.157.117-.176.1-.225.01-.215-.059-.186-.127-.088-.186-.068-.244-.088-.186-.137-.02-.1-.107-.088-.138-.1-.088-.245.049-.039-.107-.01-.157-.02-.117-.137-.117L14,60.988l-.06-.078.019-.225-.059-.059-.352-.019-.117-.029-.118-.294-.059-.079-.078-.049-.186-.049-.078-.059-.108-.146v-.1l.01-.107-.049-.176.02-.128.235-.8.049-.107.088-.059.176-.029-.166-.029-.04-.079.03-.1.01-.108-.03-.548-.078-.156-.206-.088-.44-.069H12.19l-.176.079-.284.469-.049.568.029.586-.059.5-.117.225-.254.342-.108.294-.049.587.1.137.127.049.127.029.108.068.107.255v.577l.068.264.1.235.049.284v.293l-.029.264-.166.549-.206.479-.107.479.137.528.254.313.107.2.01.255.068.176.567.645.431.871.254.382.694.654.186.118.225.078h.254l.245-.039.205.019.147.2.381-.147.313.029.254.216.215.41L16.72,71l.176.4-.372.752.078.069.088.039h.1l.1-.039.02.107v.088l-.029.079-.059.078-.235-.117-.146-.05-.108.118-.176.605-.146.245-.166.216-.186.176-.235.068-.157-.127-.127-.2-.2-.117-.186.068-.186.177-.284.449.156.088.118.127.107.089.088.117.01.186-.068.108-.206-.02-.068.108-.01.234.127.666v.566l-.088.568v.107l.059.4v.156l-.01.1.01.078.049.138.1.107.1.078.079.1v.186l.02.137.088.156.117.118.294.156.871.871.235.392.362,1,.078.5.079.255.146.137.245.078.186.138.146.166.1.2.069.225.039.265.01.284-.029.3.01.264.117.226.294.382.176.42.117.2.333.274.068.312v.587l.254.86.215.088.548.441.362.137.245.391.2.676.284.5.225.461.245.342.264.264.695.255.245.167.1.186.029.2.029.362.049.166.157.323.049.2L23,92.5l-.166-.01-.049-.088.137-.205-.059-.1-.45.782-.107.46-.01.225.068.215.225.3.587.382.235.244.059-.049.2-.029.235.01.156.049.079.088.156.245.088.058.176.108.068.078.02.411-.03.46-.127.5-.166.5-.479.754-.1.293.029.118.264.343.069.107.039.117.029.117v.146l-.078.3-.254.48-.1.283.1.215.068.255.039.265-.1.332-.137.215-.127.167-.108.186-.186.391-.137.2.039.166.108.147.264.137.3.157.245.039.342.391.225.5.156.548.46.1,1.047-.029,1.614.2.508.138.421.265.577-.059.587.332,1,.754h.206l.254-.06.244-.019.166.108.117.137.215.2.245.166.186.059.147-.068.108-.107.127-.078.558-.029.215.117.264.029.127.039.107.078.206.255.626.431.371.186,1.086,1.379.137.1.254.04.117.039.1.088.02.117-.02.138.01.127.127.107-.078.137v.186l.068.2.078.185.029.089.01.166.019.068.049.049.1.039.059.049.4.519.254.206.342.078-.147-.059-.088-.049H38.39l-.029-.128.342.138.8.7,1.027.5.528.147.392.254.156.215.225-.078.225-.059,1.6.088.147.039.1.069.088.019.127-.029.176-.069.254.108.294.274.284.352.3.714.147.647.147.518.03.245-.02.2-.079.421-.117.166-.186.147-.088.205.166.323.069.059.107.059.117.028.118-.038.117-.01.088.137.088.166.1.089.1.049.117.078.118.059.127-.01.068-.078.029-.1.01-.128.137-.371.078-.069h.147l.088-.02.1-.039.108-.01.235.245.176.029.225.009.284.069.186.127,1.242,1.712.323.362,1.184.881.45.5.352.655.206.156.43.372.157.166.528.772.89.871,1.232,2.407.392,1.32.107.7-.01.245.068.175.079,1.361-.039.205-.147.244-.146.118-.108.127-.029.283.206.46.01.2-.059.264-.176.566.01.138.068.245.02.175.069-.107.127-.4.127-.127.157-.049.078.01.186.068.166.137.235.147.1.128.146.283.108.323v.244l-.1.1-.137-.059-.059-.187L56.889,134l-.078-.266-.117-.136.01-.177-.2-.117-.157-.029-.127.127-.108.118.313.049.215.215.137.323.127.42-.01.333-.088.3.01.381.068.108h0l.822.049.812.049.822.059.822.049.812.049.822.049.822.049.822.059.812.049.822.05.822.039.812.049.822.049.822.049.822.039,1.634.1.822.04.812.039.822.049.822.039.812.039.822.05.822.039.812.039.822.039L79,136.9l.812.039.822.039.822.029.812.038.822.04.45.019v.02l.068-.166.46-.245,1.115.382.479-.039.127-.186.049-.235.019-.234.068-.225.166-.157.45-.225.146-.156.068-.274-.068-.861.039-.166.039-.117.02-.127-.02-.177-.244-.479-.352-.264-.988-.205-.411-.226-.264-.509.1-.45.225-.469.137-.558-.01-.764-.049-.186-.293-.44v-.2l.156-.353.147-.116.059-.107-.049-.148-.069-.117-.1-.185-.029-.157.117-.059.538.039.284-.049.215-.117.5-.714.147-.3.127-.118.245-.194.176-.167.049-.088.059-.166-.02-.294.029-.176.1-.059.049-.059.03-.147.029-.284.088-.313.147-.166.146-.137.1-.176-.088-.255-.029-.147.068-.059.049-.068.03-.147.01-.156-.03-.078-.117-.156.01-.323.039-.333v-.2l.225-.137.1-.108v-.118l-.176-.283-.068-.156-.02-.157.108-.283.2-.157.469-.225.2-.156.205-.187.156-.234.157-.548.147-.225.2-.167.411-.068,1.213-.647.215-.028.4-.4.411-.312.371-.216.118-.166ZM6.584,57.369l-.059.059.01.039-.01.02.01-.02.01.01-.019.02.069-.117-.01.01Zm6.28-.959-.019.029-.049-.01-.039.049-.01.107h0v.01l.059.049.088-.01.088-.147h0Zm.47.626V57.2l.01.01.088.167.02-.039v-.01h0l-.059-.039.059-.216h0ZM35.317,112.35l-.146-.058-.088-.068-.118-.059-.107-.02-.029.039.02.039.166.127h.1l.146.04.157-.01-.01-.04Zm2.769,7.426-.079.029-.117.01-.039.019.02.06.02.117.029.067h0v.01l.147-.194.02-.108h-.01Z"/></svg>