<?xml version="1.0" encoding="UTF-8"?>
<svg xmlns="http://www.w3.org/2000/svg" viewBox="0 0 100 100">
  <defs>
    <style>
      .cls-1 {
        fill: #4f4f4f;
      }

      .cls-2 {
        fill: #d1d2d3;
        stroke: #d1d2d3;
        stroke-miterlimit: 10;
        stroke-width: 1.93px;
      }
    </style>
  </defs>
  <g id="maps">
    <polygon class="cls-2" points="92.3 67.01 92.73 61.02 93.9 48.07 94.55 40.2 95.19 32.81 78.86 31.05 63.93 29.17 49 27.09 32.46 24.3 23.09 22.54 6.39 18.9 4.09 29.98 5.86 33.94 5.16 36.34 6.12 38.75 7.78 39.45 9.66 44.8 11.53 46.73 11.74 47.32 13.51 47.91 13.72 48.98 10.08 58.13 10.08 59.47 11.37 61.13 11.85 61.13 14.31 59.57 14.69 58.99 15.49 59.36 15.38 62.09 16.78 68.62 18.27 69.96 18.76 70.33 19.72 71.51 19.4 73.22 19.77 74.99 20.36 75.47 21.54 74.29 22.93 74.29 24.59 75.15 25.87 74.67 27.96 74.67 29.84 75.52 31.23 75.31 31.44 73.76 32.94 73.38 33.64 74.08 33.85 75.74 35.19 77.02 35.99 71.13 46.16 72.69 60.61 74.83 68.85 75.9 85.23 77.61 91.07 78.25 91.92 70.01 92.3 67.01 92.3 67.01"/>
  </g>
  <g id="black_pins" data-name="black pins">
    <path class="cls-1" d="M64.1,56.48c-3.12,0-5.66,2.45-5.66,5.48,0,1.2.41,2.33,1.13,3.27l4.28,5.6c.09.13.31.16.44.06l.06-.06,4.28-5.6c.72-.94,1.13-2.08,1.13-3.27,0-3.02-2.55-5.48-5.66-5.48h0Z"/>
  </g>
</svg>